SeanSans-NarrowBold.ufo
<glyph name="exclam" format="1">
  <advance width="255"/>
  <unicode hex="0021"/>
  <outline>
    <contour>
      <point x="183" y="229" type="line"/>
      <point x="193" y="722" type="line"/>
      <point x="63" y="722" type="line"/>
      <point x="73" y="229" type="line"/>
    </contour>
    <contour>
      <point x="192" y="50" type="curve"/>
      <point x="192" y="90"/>
      <point x="165" y="110"/>
      <point x="127" y="110" type="curve"/>
      <point x="89" y="110"/>
      <point x="64" y="88"/>
      <point x="64" y="50" type="curve"/>
      <point x="191" y="50"/>
      <point x="65" y="50"/>
      <point x="192" y="50" type="curve"/>
      <point x="192" y="10"/>
      <point x="165" y="-8"/>
      <point x="127" y="-8" type="curve"/>
      <point x="88" y="-8"/>
      <point x="64" y="12"/>
      <point x="64" y="50" type="curve"/>
      <point x="191" y="50"/>
      <point x="65" y="50"/>
    </contour>
  </outline>
</glyph>
<glyph name="quotedbl" format="1">
  <advance width="409"/>
  <unicode hex="0022"/>
  <outline>
    <contour>
      <point x="162" y="620" type="line"/>
      <point x="171" y="835" type="line"/>
      <point x="48" y="835" type="line"/>
      <point x="56" y="620" type="line"/>
    </contour>
    <contour>
      <point x="353" y="620" type="line"/>
      <point x="362" y="835" type="line"/>
      <point x="239" y="835" type="line"/>
      <point x="247" y="620" type="line"/>
    </contour>
  </outline>
</glyph>
<glyph name="numbersign" format="1">
  <advance width="630"/>
  <unicode hex="0023"/>
  <outline>
    <contour>
      <point x="35" y="224" type="curve"/>
      <point x="509" y="224" type="curve"/>
      <point x="536" y="314" type="curve"/>
      <point x="63" y="314" type="curve"/>
    </contour>
    <contour>
      <point x="95" y="444" type="curve"/>
      <point x="571" y="444" type="curve"/>
      <point x="597" y="534" type="curve"/>
      <point x="120" y="534" type="curve"/>
    </contour>
    <contour>
      <point x="401" y="39" type="curve"/>
      <point x="593" y="722" type="curve"/>
      <point x="476" y="722" type="curve"/>
      <point x="283" y="39" type="curve"/>
    </contour>
    <contour>
      <point x="158" y="46" type="curve"/>
      <point x="349" y="722" type="curve"/>
      <point x="231" y="722" type="curve"/>
      <point x="45" y="46" type="curve"/>
    </contour>
  </outline>
</glyph>
<glyph name="dollar" format="1">
  <advance width="526"/>
  <unicode hex="0024"/>
  <outline>
    <contour>
      <point x="302" y="-41" type="curve"/>
      <point x="302" y="-11"/>
      <point x="302" y="57"/>
      <point x="302" y="88" type="curve"/>
      <point x="184" y="88"/>
      <point x="302" y="88"/>
      <point x="184" y="88" type="curve"/>
      <point x="184" y="57"/>
      <point x="184" y="-11"/>
      <point x="184" y="-41" type="curve"/>
      <point x="302" y="-41"/>
      <point x="184" y="-41"/>
    </contour>
    <contour>
      <point x="312" y="641" type="curve"/>
      <point x="312" y="672"/>
      <point x="312" y="742"/>
      <point x="312" y="773" type="curve"/>
      <point x="195" y="773"/>
      <point x="312" y="773"/>
      <point x="195" y="773" type="curve"/>
      <point x="195" y="742"/>
      <point x="195" y="672"/>
      <point x="195" y="641" type="curve"/>
      <point x="312" y="641"/>
      <point x="195" y="641"/>
    </contour>
    <contour>
      <point x="42" y="93" type="curve"/>
      <point x="97" y="66"/>
      <point x="162" y="43"/>
      <point x="238" y="43" type="curve"/>
      <point x="380" y="43"/>
      <point x="493" y="100"/>
      <point x="493" y="216" type="curve"/>
      <point x="493" y="318"/>
      <point x="397" y="367"/>
      <point x="290" y="414" type="curve"/>
      <point x="221" y="445"/>
      <point x="160" y="466"/>
      <point x="160" y="525" type="curve"/>
      <point x="160" y="571"/>
      <point x="200" y="597"/>
      <point x="256" y="597" type="curve"/>
      <point x="311" y="597"/>
      <point x="348" y="583"/>
      <point x="399" y="558" type="curve"/>
      <point x="454" y="635"/>
      <point x="399" y="558"/>
      <point x="454" y="635" type="curve"/>
      <point x="390" y="669"/>
      <point x="337" y="687"/>
      <point x="261" y="687" type="curve"/>
      <point x="135" y="687"/>
      <point x="42" y="630"/>
      <point x="42" y="525" type="curve"/>
      <point x="42" y="426"/>
      <point x="118" y="378"/>
      <point x="221" y="333" type="curve"/>
      <point x="296" y="301"/>
      <point x="375" y="277"/>
      <point x="375" y="212" type="curve"/>
      <point x="375" y="159"/>
      <point x="318" y="133"/>
      <point x="248" y="133" type="curve"/>
      <point x="193" y="133"/>
      <point x="146" y="154"/>
      <point x="103" y="174" type="curve"/>
      <point x="42" y="93"/>
      <point x="103" y="174"/>
    </contour>
  </outline>
</glyph>
<glyph name="percent" format="1">
  <advance width="1037"/>
  <unicode hex="0025"/>
  <outline>
    <contour>
      <point x="388" y="-48" type="line"/>
      <point x="768" y="718" type="line"/>
      <point x="659" y="718" type="line"/>
      <point x="280" y="-48" type="line"/>
    </contour>
    <contour>
      <point x="132" y="506" type="curve"/>
      <point x="132" y="581"/>
      <point x="156" y="638"/>
      <point x="224" y="638" type="curve"/>
      <point x="293" y="639"/>
      <point x="317" y="581"/>
      <point x="317" y="504" type="curve"/>
      <point x="317" y="429"/>
      <point x="298" y="369"/>
      <point x="230" y="369" type="curve"/>
      <point x="158" y="369"/>
      <point x="132" y="428"/>
      <point x="132" y="506" type="curve"/>
      <point x="94" y="506"/>
      <point x="67" y="506"/>
      <point x="29" y="506" type="curve"/>
      <point x="29" y="374"/>
      <point x="98" y="285"/>
      <point x="225" y="285" type="curve"/>
      <point x="354" y="285"/>
      <point x="425" y="375"/>
      <point x="425" y="509" type="curve"/>
      <point x="425" y="638"/>
      <point x="355" y="722"/>
      <point x="229" y="722" type="curve"/>
      <point x="101" y="722"/>
      <point x="29" y="636"/>
      <point x="29" y="506" type="curve"/>
      <point x="67" y="506"/>
      <point x="94" y="506"/>
    </contour>
    <contour>
      <point x="715" y="169" type="curve"/>
      <point x="715" y="244"/>
      <point x="739" y="301"/>
      <point x="807" y="301" type="curve"/>
      <point x="876" y="302"/>
      <point x="901" y="244"/>
      <point x="901" y="168" type="curve"/>
      <point x="901" y="92"/>
      <point x="881" y="32"/>
      <point x="813" y="32" type="curve"/>
      <point x="742" y="32"/>
      <point x="715" y="91"/>
      <point x="715" y="169" type="curve"/>
      <point x="677" y="169"/>
      <point x="651" y="169"/>
      <point x="613" y="169" type="curve"/>
      <point x="613" y="37"/>
      <point x="681" y="-51"/>
      <point x="808" y="-51" type="curve"/>
      <point x="938" y="-51"/>
      <point x="1008" y="38"/>
      <point x="1008" y="172" type="curve"/>
      <point x="1008" y="301"/>
      <point x="938" y="385"/>
      <point x="812" y="385" type="curve"/>
      <point x="684" y="385"/>
      <point x="613" y="300"/>
      <point x="613" y="169" type="curve"/>
      <point x="651" y="169"/>
      <point x="677" y="169"/>
    </contour>
  </outline>
</glyph>
<glyph name="ampersand" format="1">
  <advance width="660"/>
  <unicode hex="0026"/>
  <outline>
    <contour>
      <point x="632" y="44" type="line"/>
      <point x="541" y="143"/>
      <point x="437" y="268"/>
      <point x="341" y="371" type="curve"/>
      <point x="290" y="430"/>
      <point x="221" y="475"/>
      <point x="221" y="555" type="curve"/>
      <point x="221" y="600"/>
      <point x="240" y="637"/>
      <point x="281" y="637" type="curve"/>
      <point x="326" y="637"/>
      <point x="349" y="605"/>
      <point x="349" y="557" type="curve"/>
      <point x="349" y="486"/>
      <point x="299" y="450"/>
      <point x="236" y="413" type="curve"/>
      <point x="138" y="354"/>
      <point x="49" y="307"/>
      <point x="49" y="195" type="curve"/>
      <point x="49" y="69"/>
      <point x="144" y="-5"/>
      <point x="275" y="-5" type="curve"/>
      <point x="460" y="-5"/>
      <point x="557" y="130"/>
      <point x="613" y="313" type="curve"/>
      <point x="512" y="336"/>
      <point x="613" y="313"/>
      <point x="512" y="336" type="curve"/>
      <point x="469" y="199"/>
      <point x="414" y="86"/>
      <point x="280" y="86" type="curve"/>
      <point x="212" y="86"/>
      <point x="166" y="126"/>
      <point x="166" y="195" type="curve"/>
      <point x="166" y="269"/>
      <point x="221" y="302"/>
      <point x="285" y="340" type="curve"/>
      <point x="380" y="398"/>
      <point x="466" y="448"/>
      <point x="467" y="558" type="curve"/>
      <point x="467" y="663"/>
      <point x="392" y="727"/>
      <point x="286" y="727" type="curve"/>
      <point x="180" y="727"/>
      <point x="109" y="660"/>
      <point x="109" y="555" type="curve"/>
      <point x="109" y="452"/>
      <point x="188" y="392"/>
      <point x="258" y="317" type="curve"/>
      <point x="350" y="216"/>
      <point x="467" y="81"/>
      <point x="555" y="-16" type="curve"/>
    </contour>
  </outline>
</glyph>
<glyph name="parenleft" format="1">
  <advance width="350"/>
  <unicode hex="0028"/>
  <outline>
    <contour>
      <point x="349" y="-212" type="curve"/>
      <point x="204" y="-48"/>
      <point x="154" y="106"/>
      <point x="154" y="326" type="curve"/>
      <point x="154" y="546"/>
      <point x="205" y="700"/>
      <point x="348" y="867" type="curve"/>
      <point x="278" y="925"/>
      <point x="348" y="867"/>
      <point x="278" y="925" type="curve"/>
      <point x="114" y="740"/>
      <point x="39" y="575"/>
      <point x="39" y="326" type="curve"/>
      <point x="39" y="76"/>
      <point x="115" y="-89"/>
      <point x="278" y="-275" type="curve"/>
      <point x="349" y="-212"/>
      <point x="278" y="-275"/>
    </contour>
  </outline>
</glyph>
<glyph name="asterisk" format="1">
  <advance width="560"/>
  <unicode hex="002A"/>
  <outline>
    <contour>
      <point x="317" y="571" type="line"/>
      <point x="323" y="785" type="line"/>
      <point x="235" y="785" type="line"/>
      <point x="241" y="571" type="line"/>
    </contour>
    <contour>
      <point x="310" y="522" type="line"/>
      <point x="514" y="588" type="line"/>
      <point x="484" y="671" type="line"/>
      <point x="285" y="594" type="line"/>
    </contour>
    <contour>
      <point x="262" y="512" type="line"/>
      <point x="393" y="342" type="line"/>
      <point x="460" y="399" type="line"/>
      <point x="321" y="561" type="line"/>
    </contour>
    <contour>
      <point x="240" y="561" type="line"/>
      <point x="100" y="398" type="line"/>
      <point x="168" y="342" type="line"/>
      <point x="298" y="512" type="line"/>
    </contour>
    <contour>
      <point x="275" y="593" type="line"/>
      <point x="75" y="670" type="line"/>
      <point x="45" y="587" type="line"/>
      <point x="249" y="521" type="line"/>
    </contour>
  </outline>
</glyph>
<glyph name="plus" format="1">
  <advance width="610"/>
  <unicode hex="002B"/>
  <outline>
    <contour>
      <point x="36" y="264" type="curve"/>
      <point x="574" y="264" type="line"/>
      <point x="574" y="363"/>
      <point x="574" y="264"/>
      <point x="574" y="363" type="curve"/>
      <point x="36" y="363" type="line"/>
      <point x="36" y="264"/>
      <point x="36" y="363"/>
    </contour>
    <contour>
      <point x="360" y="40" type="curve"/>
      <point x="360" y="582" type="line"/>
      <point x="243" y="582"/>
      <point x="368" y="582"/>
      <point x="251" y="582" type="curve"/>
      <point x="251" y="40" type="line"/>
      <point x="368" y="40"/>
      <point x="243" y="40"/>
    </contour>
  </outline>
</glyph>
<glyph name="comma" format="1">
  <advance width="205"/>
  <unicode hex="002C"/>
  <outline>
    <contour>
      <point x="16" y="-117" type="line"/>
      <point x="101" y="-111"/>
      <point x="159" y="-50"/>
      <point x="159" y="44" type="curve"/>
      <point x="159" y="114"/>
      <point x="131" y="157"/>
      <point x="87" y="157" type="curve"/>
      <point x="48" y="157"/>
      <point x="23" y="136"/>
      <point x="23" y="97" type="curve"/>
      <point x="23" y="63"/>
      <point x="44" y="40"/>
      <point x="80" y="39" type="curve"/>
      <point x="79" y="9"/>
      <point x="71" y="-38"/>
      <point x="12" y="-53" type="curve"/>
    </contour>
  </outline>
</glyph>
<glyph name="hyphen" format="1">
  <advance width="379"/>
  <unicode hex="002D"/>
  <outline>
    <contour>
      <point x="60" y="231" type="curve"/>
      <point x="146" y="231"/>
      <point x="233" y="231"/>
      <point x="319" y="231" type="curve"/>
      <point x="319" y="330"/>
      <point x="319" y="231"/>
      <point x="319" y="330" type="curve"/>
      <point x="233" y="330"/>
      <point x="146" y="330"/>
      <point x="60" y="330" type="curve"/>
      <point x="60" y="231"/>
      <point x="60" y="330"/>
    </contour>
  </outline>
</glyph>
<glyph name="period" format="1">
  <advance width="231"/>
  <unicode hex="002E"/>
  <outline>
    <contour>
      <point x="180" y="50" type="curve"/>
      <point x="180" y="90"/>
      <point x="152" y="110"/>
      <point x="115" y="110" type="curve"/>
      <point x="77" y="110"/>
      <point x="51" y="88"/>
      <point x="51" y="50" type="curve"/>
      <point x="179" y="50"/>
      <point x="53" y="50"/>
      <point x="180" y="50" type="curve"/>
      <point x="180" y="10"/>
      <point x="153" y="-8"/>
      <point x="115" y="-8" type="curve"/>
      <point x="76" y="-8"/>
      <point x="51" y="12"/>
      <point x="51" y="50" type="curve"/>
      <point x="179" y="50"/>
      <point x="53" y="50"/>
    </contour>
  </outline>
</glyph>
<glyph name="slash" format="1">
  <advance width="538"/>
  <unicode hex="002F"/>
  <outline>
    <contour>
      <point x="139" y="-25" type="curve"/>
      <point x="265" y="248"/>
      <point x="391" y="522"/>
      <point x="518" y="796" type="curve"/>
      <point x="400" y="796"/>
      <point x="518" y="796"/>
      <point x="400" y="796" type="curve"/>
      <point x="274" y="522"/>
      <point x="147" y="248"/>
      <point x="21" y="-25" type="curve"/>
      <point x="139" y="-25"/>
      <point x="21" y="-25"/>
    </contour>
  </outline>
</glyph>
<glyph name="zero" format="1">
  <advance width="669"/>
  <unicode hex="0030"/>
  <outline>
    <contour>
      <point x="165" y="360" type="curve"/>
      <point x="165" y="515"/>
      <point x="205" y="633"/>
      <point x="331" y="633" type="curve"/>
      <point x="460" y="633"/>
      <point x="505" y="517"/>
      <point x="505" y="363" type="curve"/>
      <point x="505" y="208"/>
      <point x="464" y="90"/>
      <point x="340" y="90" type="curve"/>
      <point x="210" y="90"/>
      <point x="165" y="205"/>
      <point x="165" y="360" type="curve"/>
      <point x="48" y="360"/>
      <point x="164" y="360"/>
      <point x="48" y="360" type="curve"/>
      <point x="48" y="144"/>
      <point x="138" y="-5"/>
      <point x="335" y="-5" type="curve"/>
      <point x="533" y="-5"/>
      <point x="621" y="145"/>
      <point x="621" y="363" type="curve"/>
      <point x="621" y="578"/>
      <point x="536" y="727"/>
      <point x="342" y="727" type="curve"/>
      <point x="141" y="727"/>
      <point x="48" y="578"/>
      <point x="48" y="360" type="curve"/>
      <point x="164" y="360"/>
      <point x="48" y="360"/>
    </contour>
  </outline>
</glyph>
<glyph name="one" format="1">
  <advance width="371"/>
  <unicode hex="0031"/>
  <outline>
    <contour>
      <point x="76" y="487" type="curve"/>
      <point x="275" y="663"/>
      <point x="76" y="487"/>
      <point x="275" y="663" type="curve"/>
      <point x="188" y="722"/>
      <point x="275" y="663"/>
      <point x="188" y="722" type="curve"/>
      <point x="11" y="564"/>
      <point x="188" y="722"/>
      <point x="11" y="564" type="curve"/>
      <point x="76" y="487"/>
      <point x="11" y="564"/>
    </contour>
    <contour>
      <point x="303" y="0" type="curve"/>
      <point x="303" y="241"/>
      <point x="303" y="481"/>
      <point x="303" y="722" type="curve"/>
      <point x="188" y="722"/>
      <point x="303" y="722"/>
      <point x="188" y="722" type="curve"/>
      <point x="188" y="481"/>
      <point x="188" y="241"/>
      <point x="188" y="0" type="curve"/>
      <point x="303" y="0"/>
      <point x="188" y="0"/>
    </contour>
  </outline>
</glyph>
<glyph name="two" format="1">
  <advance width="540"/>
  <unicode hex="0032"/>
  <outline>
    <contour>
      <point x="38" y="0" type="curve"/>
      <point x="219" y="0"/>
      <point x="373" y="0"/>
      <point x="499" y="0" type="curve"/>
      <point x="499" y="90"/>
      <point x="499" y="0"/>
      <point x="499" y="90" type="curve"/>
      <point x="354" y="90"/>
      <point x="184" y="90"/>
      <point x="38" y="90" type="curve"/>
      <point x="38" y="0"/>
      <point x="38" y="90"/>
    </contour>
    <contour>
      <point x="123" y="526" type="curve"/>
      <point x="164" y="588"/>
      <point x="195" y="633"/>
      <point x="262" y="633" type="curve"/>
      <point x="333" y="633"/>
      <point x="368" y="585"/>
      <point x="368" y="508" type="curve"/>
      <point x="368" y="407"/>
      <point x="305" y="337"/>
      <point x="234" y="273" type="curve"/>
      <point x="169" y="211"/>
      <point x="106" y="153"/>
      <point x="38" y="90" type="curve"/>
      <point x="40" y="0"/>
      <point x="38" y="90"/>
      <point x="40" y="0" type="curve"/>
      <point x="167" y="62"/>
      <point x="238" y="136"/>
      <point x="310" y="205" type="curve"/>
      <point x="405" y="291"/>
      <point x="479" y="374"/>
      <point x="479" y="512" type="curve"/>
      <point x="479" y="649"/>
      <point x="403" y="727"/>
      <point x="267" y="727" type="curve"/>
      <point x="160" y="727"/>
      <point x="88" y="670"/>
      <point x="42" y="575" type="curve"/>
      <point x="123" y="526"/>
      <point x="42" y="575"/>
    </contour>
  </outline>
</glyph>
<glyph name="three" format="1">
  <advance width="513"/>
  <unicode hex="0033"/>
  <outline>
    <contour>
      <point x="36" y="58" type="curve"/>
      <point x="90" y="20"/>
      <point x="144" y="-5"/>
      <point x="219" y="-5" type="curve"/>
      <point x="369" y="-5"/>
      <point x="467" y="62"/>
      <point x="467" y="209" type="curve"/>
      <point x="467" y="340"/>
      <point x="336" y="406"/>
      <point x="144" y="406" type="curve"/>
      <point x="144" y="332"/>
      <point x="144" y="404"/>
      <point x="144" y="330" type="curve"/>
      <point x="259" y="330"/>
      <point x="355" y="287"/>
      <point x="355" y="205" type="curve"/>
      <point x="355" y="125"/>
      <point x="296" y="90"/>
      <point x="223" y="90" type="curve"/>
      <point x="179" y="90"/>
      <point x="139" y="104"/>
      <point x="96" y="129" type="curve"/>
      <point x="36" y="58"/>
      <point x="96" y="129"/>
    </contour>
    <contour>
      <point x="108" y="576" type="curve"/>
      <point x="130" y="602"/>
      <point x="170" y="633"/>
      <point x="216" y="633" type="curve"/>
      <point x="284" y="633"/>
      <point x="326" y="600"/>
      <point x="326" y="531" type="curve"/>
      <point x="326" y="459"/>
      <point x="246" y="420"/>
      <point x="144" y="420" type="curve"/>
      <point x="144" y="346"/>
      <point x="144" y="418"/>
      <point x="144" y="344" type="curve"/>
      <point x="311" y="344"/>
      <point x="437" y="407"/>
      <point x="437" y="534" type="curve"/>
      <point x="437" y="661"/>
      <point x="354" y="727"/>
      <point x="226" y="727" type="curve"/>
      <point x="144" y="727"/>
      <point x="73" y="685"/>
      <point x="37" y="637" type="curve"/>
      <point x="108" y="576"/>
      <point x="37" y="637"/>
    </contour>
  </outline>
</glyph>
<glyph name="four" format="1">
  <advance width="554"/>
  <unicode hex="0034"/>
  <outline>
    <contour>
      <point x="60" y="252" type="line"/>
      <point x="383" y="689" type="line"/>
      <point x="287" y="702" type="line"/>
      <point x="13" y="334" type="line"/>
    </contour>
    <contour>
      <point x="521" y="334" type="line"/>
      <point x="13" y="334" type="line"/>
      <point x="14" y="235" type="line"/>
      <point x="521" y="235" type="line"/>
    </contour>
    <contour>
      <point x="405" y="0" type="line"/>
      <point x="405" y="702" type="line"/>
      <point x="289" y="702" type="line"/>
      <point x="289" y="0" type="line"/>
    </contour>
  </outline>
</glyph>
<glyph name="five" format="1">
  <advance width="508"/>
  <unicode hex="0035"/>
  <outline>
    <contour>
      <point x="67" y="722" type="curve"/>
      <point x="67" y="624"/>
      <point x="67" y="516"/>
      <point x="67" y="383" type="curve"/>
      <point x="179" y="350"/>
      <point x="67" y="383"/>
      <point x="178" y="350" type="curve"/>
      <point x="178" y="441"/>
      <point x="178" y="541"/>
      <point x="178" y="632" type="curve"/>
      <point x="67" y="722"/>
      <point x="178" y="632"/>
    </contour>
    <contour>
      <point x="178" y="350" type="curve"/>
      <point x="192" y="361"/>
      <point x="220" y="371"/>
      <point x="246" y="371" type="curve"/>
      <point x="321" y="371"/>
      <point x="354" y="316"/>
      <point x="354" y="237" type="curve"/>
      <point x="354" y="154"/>
      <point x="306" y="89"/>
      <point x="228" y="89" type="curve"/>
      <point x="179" y="89"/>
      <point x="143" y="100"/>
      <point x="99" y="124" type="curve"/>
      <point x="42" y="43"/>
      <point x="99" y="124"/>
      <point x="42" y="43" type="curve"/>
      <point x="95" y="12"/>
      <point x="160" y="-5"/>
      <point x="231" y="-5" type="curve"/>
      <point x="369" y="-5"/>
      <point x="469" y="93"/>
      <point x="469" y="238" type="curve"/>
      <point x="469" y="373"/>
      <point x="391" y="468"/>
      <point x="259" y="468" type="curve"/>
      <point x="201" y="468"/>
      <point x="140" y="447"/>
      <point x="87" y="384" type="curve"/>
      <point x="181" y="355"/>
      <point x="85" y="378"/>
    </contour>
    <contour>
      <point x="440" y="722" type="curve"/>
      <point x="318" y="722"/>
      <point x="183" y="722"/>
      <point x="67" y="722" type="curve"/>
      <point x="178" y="632"/>
      <point x="67" y="722"/>
      <point x="178" y="632" type="curve"/>
      <point x="258" y="632"/>
      <point x="355" y="632"/>
      <point x="440" y="632" type="curve"/>
      <point x="440" y="722"/>
      <point x="440" y="632"/>
    </contour>
  </outline>
</glyph>
<glyph name="six" format="1">
  <advance width="562"/>
  <unicode hex="0036"/>
  <outline>
    <contour>
      <point x="139" y="217" type="curve"/>
      <point x="166" y="293"/>
      <point x="214" y="347"/>
      <point x="293" y="347" type="curve"/>
      <point x="369" y="347"/>
      <point x="405" y="298"/>
      <point x="405" y="220" type="curve"/>
      <point x="405" y="147"/>
      <point x="367" y="96"/>
      <point x="295" y="96" type="curve"/>
      <point x="203" y="96"/>
      <point x="156" y="159"/>
      <point x="156" y="256" type="curve"/>
      <point x="156" y="466"/>
      <point x="290" y="578"/>
      <point x="500" y="644" type="curve"/>
      <point x="470" y="729"/>
      <point x="500" y="644"/>
      <point x="470" y="729" type="curve"/>
      <point x="220" y="656"/>
      <point x="43" y="516"/>
      <point x="43" y="251" type="curve"/>
      <point x="43" y="90"/>
      <point x="135" y="-10"/>
      <point x="293" y="-10" type="curve"/>
      <point x="437" y="-10"/>
      <point x="523" y="77"/>
      <point x="523" y="221" type="curve"/>
      <point x="523" y="360"/>
      <point x="442" y="441"/>
      <point x="310" y="441" type="curve"/>
      <point x="181" y="441"/>
      <point x="102" y="338"/>
      <point x="76" y="247" type="curve"/>
      <point x="139" y="217"/>
      <point x="76" y="247"/>
    </contour>
  </outline>
</glyph>
<glyph name="seven" format="1">
  <advance width="502"/>
  <unicode hex="0037"/>
  <outline>
    <contour>
      <point x="40" y="632" type="curve"/>
      <point x="486" y="632" type="curve"/>
      <point x="486" y="722" type="curve"/>
      <point x="40" y="722" type="curve"/>
    </contour>
    <contour>
      <point x="412" y="722" type="curve"/>
      <point x="43" y="0" type="curve"/>
      <point x="172" y="0" type="curve"/>
      <point x="486" y="632" type="curve"/>
    </contour>
  </outline>
</glyph>
<glyph name="eight" format="1">
  <advance width="555"/>
  <unicode hex="0038"/>
  <outline>
    <contour>
      <point x="65" y="542" type="curve"/>
      <point x="65" y="433"/>
      <point x="143" y="396"/>
      <point x="244" y="346" type="curve"/>
      <point x="326" y="303"/>
      <point x="392" y="273"/>
      <point x="392" y="189" type="curve"/>
      <point x="392" y="123"/>
      <point x="349" y="89"/>
      <point x="278" y="89" type="curve"/>
      <point x="206" y="89"/>
      <point x="163" y="122"/>
      <point x="163" y="189" type="curve"/>
      <point x="163" y="275"/>
      <point x="231" y="302"/>
      <point x="314" y="345" type="curve"/>
      <point x="411" y="397"/>
      <point x="490" y="433"/>
      <point x="490" y="541" type="curve"/>
      <point x="490" y="667"/>
      <point x="410" y="727"/>
      <point x="278" y="727" type="curve"/>
      <point x="149" y="727"/>
      <point x="65" y="666"/>
      <point x="65" y="542" type="curve"/>
      <point x="180" y="542"/>
      <point x="65" y="542"/>
      <point x="180" y="542" type="curve"/>
      <point x="180" y="600"/>
      <point x="213" y="634"/>
      <point x="274" y="634" type="curve"/>
      <point x="339" y="634"/>
      <point x="375" y="602"/>
      <point x="375" y="541" type="curve"/>
      <point x="375" y="468"/>
      <point x="314" y="445"/>
      <point x="242" y="409" type="curve"/>
      <point x="132" y="352"/>
      <point x="48" y="310"/>
      <point x="48" y="189" type="curve"/>
      <point x="48" y="58"/>
      <point x="135" y="-5"/>
      <point x="273" y="-5" type="curve"/>
      <point x="413" y="-5"/>
      <point x="507" y="55"/>
      <point x="507" y="189" type="curve"/>
      <point x="507" y="309"/>
      <point x="423" y="353"/>
      <point x="315" y="410" type="curve"/>
      <point x="242" y="448"/>
      <point x="180" y="468"/>
      <point x="180" y="542" type="curve"/>
      <point x="65" y="542"/>
      <point x="180" y="542"/>
    </contour>
  </outline>
</glyph>
<glyph name="nine" format="1">
  <advance width="561"/>
  <unicode hex="0039"/>
  <outline>
    <contour>
      <point x="427" y="483" type="curve"/>
      <point x="396" y="411"/>
      <point x="352" y="375"/>
      <point x="273" y="375" type="curve"/>
      <point x="195" y="375"/>
      <point x="152" y="426"/>
      <point x="152" y="506" type="curve"/>
      <point x="152" y="579"/>
      <point x="193" y="625"/>
      <point x="263" y="625" type="curve"/>
      <point x="357" y="625"/>
      <point x="404" y="563"/>
      <point x="404" y="466" type="curve"/>
      <point x="404" y="256"/>
      <point x="276" y="144"/>
      <point x="68" y="78" type="curve"/>
      <point x="107" y="-13"/>
      <point x="68" y="78"/>
      <point x="107" y="-13" type="curve"/>
      <point x="346" y="57"/>
      <point x="516" y="206"/>
      <point x="516" y="471" type="curve"/>
      <point x="516" y="632"/>
      <point x="426" y="732"/>
      <point x="268" y="732" type="curve"/>
      <point x="123" y="732"/>
      <point x="37" y="645"/>
      <point x="37" y="501" type="curve"/>
      <point x="37" y="362"/>
      <point x="123" y="281"/>
      <point x="263" y="281" type="curve"/>
      <point x="382" y="281"/>
      <point x="448" y="366"/>
      <point x="484" y="458" type="curve"/>
      <point x="427" y="483"/>
      <point x="484" y="458"/>
    </contour>
  </outline>
</glyph>
<glyph name="colon" format="1">
  <advance width="246"/>
  <unicode hex="003A"/>
  <outline>
    <contour>
      <point x="186" y="380" type="curve"/>
      <point x="186" y="419"/>
      <point x="159" y="439"/>
      <point x="121" y="439" type="curve"/>
      <point x="83" y="439"/>
      <point x="58" y="418"/>
      <point x="58" y="380" type="curve"/>
      <point x="185" y="380"/>
      <point x="59" y="380"/>
      <point x="186" y="380" type="curve"/>
      <point x="186" y="339"/>
      <point x="159" y="321"/>
      <point x="121" y="321" type="curve"/>
      <point x="82" y="321"/>
      <point x="58" y="341"/>
      <point x="58" y="380" type="curve"/>
      <point x="185" y="380"/>
      <point x="59" y="380"/>
    </contour>
    <contour>
      <point x="186" y="53" type="curve"/>
      <point x="186" y="93"/>
      <point x="158" y="112"/>
      <point x="121" y="112" type="curve"/>
      <point x="83" y="112"/>
      <point x="57" y="91"/>
      <point x="57" y="53" type="curve"/>
      <point x="185" y="53"/>
      <point x="59" y="53"/>
      <point x="186" y="53" type="curve"/>
      <point x="186" y="12"/>
      <point x="159" y="-6"/>
      <point x="121" y="-6" type="curve"/>
      <point x="82" y="-6"/>
      <point x="57" y="14"/>
      <point x="57" y="53" type="curve"/>
      <point x="185" y="53"/>
      <point x="59" y="53"/>
    </contour>
  </outline>
</glyph>
<glyph name="semicolon" format="1">
  <advance width="228"/>
  <unicode hex="003B"/>
  <outline>
    <contour>
      <point x="25" y="-177" type="line"/>
      <point x="115" y="-171"/>
      <point x="176" y="-110"/>
      <point x="176" y="-17" type="curve"/>
      <point x="176" y="54"/>
      <point x="145" y="97"/>
      <point x="99" y="97" type="curve"/>
      <point x="58" y="97"/>
      <point x="31" y="76"/>
      <point x="31" y="37" type="curve"/>
      <point x="31" y="3"/>
      <point x="53" y="-20"/>
      <point x="91" y="-22" type="curve"/>
      <point x="91" y="-52"/>
      <point x="83" y="-99"/>
      <point x="21" y="-113" type="curve"/>
    </contour>
    <contour>
      <point x="162" y="388" type="curve"/>
      <point x="162" y="428"/>
      <point x="134" y="448"/>
      <point x="97" y="448" type="curve"/>
      <point x="58" y="448"/>
      <point x="33" y="426"/>
      <point x="33" y="388" type="curve"/>
      <point x="161" y="388"/>
      <point x="35" y="388"/>
      <point x="162" y="388" type="curve"/>
      <point x="162" y="348"/>
      <point x="135" y="330"/>
      <point x="96" y="330" type="curve"/>
      <point x="58" y="330"/>
      <point x="33" y="350"/>
      <point x="33" y="388" type="curve"/>
      <point x="161" y="388"/>
      <point x="35" y="388"/>
    </contour>
  </outline>
</glyph>
<glyph name="less" format="1">
  <advance width="626"/>
  <unicode hex="003C"/>
  <outline>
    <contour>
      <point x="570" y="620" type="curve"/>
      <point x="390" y="530"/>
      <point x="209" y="440"/>
      <point x="29" y="350" type="curve"/>
      <point x="29" y="250"/>
      <point x="29" y="350"/>
      <point x="29" y="250" type="curve"/>
      <point x="209" y="340"/>
      <point x="390" y="430"/>
      <point x="570" y="520" type="curve"/>
      <point x="570" y="620"/>
      <point x="570" y="520"/>
    </contour>
    <contour>
      <point x="579" y="86" type="curve"/>
      <point x="396" y="174"/>
      <point x="212" y="262"/>
      <point x="29" y="350" type="curve"/>
      <point x="29" y="250"/>
      <point x="29" y="350"/>
      <point x="29" y="250" type="curve"/>
      <point x="212" y="162"/>
      <point x="396" y="74"/>
      <point x="579" y="-14" type="curve"/>
      <point x="579" y="86"/>
      <point x="579" y="-14"/>
    </contour>
  </outline>
</glyph>
<glyph name="equal" format="1">
  <advance width="664"/>
  <unicode hex="003D"/>
  <outline>
    <contour>
      <point x="55" y="170" type="curve"/>
      <point x="242" y="170"/>
      <point x="428" y="170"/>
      <point x="615" y="170" type="curve"/>
      <point x="615" y="265"/>
      <point x="615" y="170"/>
      <point x="615" y="265" type="curve"/>
      <point x="428" y="265"/>
      <point x="242" y="265"/>
      <point x="55" y="265" type="curve"/>
      <point x="55" y="170"/>
      <point x="55" y="265"/>
    </contour>
    <contour>
      <point x="55" y="392" type="curve"/>
      <point x="242" y="392"/>
      <point x="428" y="392"/>
      <point x="615" y="392" type="curve"/>
      <point x="615" y="487"/>
      <point x="615" y="392"/>
      <point x="615" y="487" type="curve"/>
      <point x="428" y="487"/>
      <point x="242" y="487"/>
      <point x="55" y="487" type="curve"/>
      <point x="55" y="392"/>
      <point x="55" y="487"/>
    </contour>
  </outline>
</glyph>
<glyph name="greater" format="1">
  <advance width="628"/>
  <unicode hex="003E"/>
  <outline>
    <contour>
      <point x="56" y="-14" type="curve"/>
      <point x="236" y="76"/>
      <point x="417" y="166"/>
      <point x="598" y="256" type="curve"/>
      <point x="598" y="356"/>
      <point x="598" y="256"/>
      <point x="598" y="356" type="curve"/>
      <point x="417" y="266"/>
      <point x="236" y="176"/>
      <point x="56" y="86" type="curve"/>
      <point x="56" y="-14"/>
      <point x="56" y="86"/>
    </contour>
    <contour>
      <point x="47" y="520" type="curve"/>
      <point x="230" y="432"/>
      <point x="414" y="344"/>
      <point x="598" y="256" type="curve"/>
      <point x="598" y="356"/>
      <point x="598" y="256"/>
      <point x="598" y="356" type="curve"/>
      <point x="414" y="444"/>
      <point x="230" y="532"/>
      <point x="47" y="620" type="curve"/>
      <point x="47" y="520"/>
      <point x="47" y="620"/>
    </contour>
  </outline>
</glyph>
<glyph name="question" format="1">
  <advance width="500"/>
  <unicode hex="003F"/>
  <outline>
    <contour>
      <point x="182" y="370" type="curve"/>
      <point x="182" y="333"/>
      <point x="182" y="258"/>
      <point x="182" y="221" type="curve"/>
      <point x="293" y="221"/>
      <point x="182" y="221"/>
      <point x="293" y="221" type="curve"/>
      <point x="293" y="258"/>
      <point x="293" y="333"/>
      <point x="293" y="370" type="curve"/>
      <point x="182" y="370"/>
      <point x="293" y="370"/>
    </contour>
    <contour>
      <point x="104" y="587" type="line"/>
      <point x="136" y="622"/>
      <point x="175" y="647"/>
      <point x="229" y="647" type="curve"/>
      <point x="306" y="647"/>
      <point x="353" y="597"/>
      <point x="353" y="518" type="curve"/>
      <point x="353" y="427"/>
      <point x="291" y="370"/>
      <point x="195" y="370" type="curve"/>
      <point x="195" y="335"/>
      <point x="194" y="317"/>
      <point x="194" y="282" type="curve"/>
      <point x="356" y="282"/>
      <point x="465" y="370"/>
      <point x="465" y="518" type="curve"/>
      <point x="465" y="659"/>
      <point x="372" y="743"/>
      <point x="234" y="743" type="curve"/>
      <point x="151" y="743"/>
      <point x="90" y="714"/>
      <point x="42" y="659" type="curve"/>
    </contour>
    <contour>
      <point x="303" y="41" type="curve"/>
      <point x="303" y="81"/>
      <point x="275" y="100"/>
      <point x="238" y="100" type="curve"/>
      <point x="199" y="100"/>
      <point x="174" y="79"/>
      <point x="174" y="41" type="curve"/>
      <point x="303" y="41"/>
      <point x="174" y="41"/>
      <point x="303" y="41" type="curve"/>
      <point x="303" y="1"/>
      <point x="276" y="-17"/>
      <point x="237" y="-17" type="curve"/>
      <point x="199" y="-17"/>
      <point x="174" y="2"/>
      <point x="174" y="41" type="curve"/>
      <point x="303" y="41"/>
      <point x="174" y="41"/>
    </contour>
  </outline>
</glyph>
<glyph name="at" format="1">
  <advance width="789"/>
  <unicode hex="0040"/>
  <outline>
    <contour>
      <point x="530" y="-24" type="curve"/>
      <point x="488" y="-46"/>
      <point x="457" y="-54"/>
      <point x="410" y="-54" type="curve"/>
      <point x="247" y="-54"/>
      <point x="149" y="45"/>
      <point x="149" y="210" type="curve"/>
      <point x="149" y="369"/>
      <point x="244" y="465"/>
      <point x="401" y="465" type="curve"/>
      <point x="550" y="465"/>
      <point x="640" y="367"/>
      <point x="640" y="213" type="curve"/>
      <point x="640" y="158"/>
      <point x="638" y="110"/>
      <point x="606" y="110" type="curve"/>
      <point x="574" y="110"/>
      <point x="569" y="156"/>
      <point x="569" y="214" type="curve"/>
      <point x="569" y="329"/>
      <point x="506" y="404"/>
      <point x="395" y="404" type="curve"/>
      <point x="273" y="404"/>
      <point x="213" y="332"/>
      <point x="213" y="212" type="curve"/>
      <point x="213" y="89"/>
      <point x="267" y="12"/>
      <point x="384" y="12" type="curve"/>
      <point x="489" y="12"/>
      <point x="536" y="86"/>
      <point x="552" y="197" type="curve"/>
      <point x="477" y="214"/>
      <point x="552" y="197"/>
      <point x="477" y="214" type="curve"/>
      <point x="463" y="154"/>
      <point x="454" y="102"/>
      <point x="398" y="102" type="curve"/>
      <point x="342" y="102"/>
      <point x="319" y="149"/>
      <point x="319" y="216" type="curve"/>
      <point x="319" y="273"/>
      <point x="337" y="313"/>
      <point x="388" y="313" type="curve"/>
      <point x="446" y="313"/>
      <point x="462" y="271"/>
      <point x="462" y="210" type="curve"/>
      <point x="462" y="103"/>
      <point x="498" y="24"/>
      <point x="597" y="24" type="curve"/>
      <point x="702" y="24"/>
      <point x="743" y="104"/>
      <point x="743" y="218" type="curve"/>
      <point x="743" y="431"/>
      <point x="617" y="558"/>
      <point x="405" y="558" type="curve"/>
      <point x="178" y="558"/>
      <point x="43" y="431"/>
      <point x="43" y="205" type="curve"/>
      <point x="43" y="-17"/>
      <point x="180" y="-145"/>
      <point x="404" y="-145" type="curve"/>
      <point x="474" y="-145"/>
      <point x="519" y="-133"/>
      <point x="574" y="-101" type="curve"/>
      <point x="530" y="-24"/>
      <point x="574" y="-101"/>
    </contour>
  </outline>
</glyph>
<glyph name="B" format="1">
  <advance width="594"/>
  <unicode hex="0042"/>
  <outline>
    <contour>
      <point x="131" y="632" type="curve"/>
      <point x="192" y="632"/>
      <point x="240" y="632"/>
      <point x="301" y="632" type="curve"/>
      <point x="362" y="632"/>
      <point x="396" y="597"/>
      <point x="396" y="539" type="curve"/>
      <point x="396" y="482"/>
      <point x="356" y="450"/>
      <point x="297" y="450" type="curve"/>
      <point x="237" y="450"/>
      <point x="190" y="450"/>
      <point x="131" y="450" type="curve"/>
      <point x="131" y="401"/>
      <point x="131" y="409"/>
      <point x="131" y="360" type="curve"/>
      <point x="174" y="360"/>
      <point x="209" y="360"/>
      <point x="252" y="360" type="curve"/>
      <point x="371" y="360"/>
      <point x="512" y="405"/>
      <point x="512" y="536" type="curve"/>
      <point x="512" y="657"/>
      <point x="432" y="722"/>
      <point x="307" y="722" type="curve"/>
      <point x="244" y="722"/>
      <point x="194" y="722"/>
      <point x="131" y="722" type="curve"/>
      <point x="131" y="672"/>
      <point x="131" y="682"/>
    </contour>
    <contour>
      <point x="202" y="0" type="curve"/>
      <point x="202" y="241"/>
      <point x="202" y="481"/>
      <point x="202" y="722" type="curve"/>
      <point x="80" y="722"/>
      <point x="202" y="722"/>
      <point x="80" y="722" type="curve"/>
      <point x="80" y="481"/>
      <point x="80" y="241"/>
      <point x="80" y="0" type="curve"/>
      <point x="202" y="0"/>
      <point x="80" y="0"/>
    </contour>
    <contour>
      <point x="131" y="360" type="curve"/>
      <point x="190" y="360"/>
      <point x="237" y="360"/>
      <point x="297" y="360" type="curve"/>
      <point x="386" y="360"/>
      <point x="437" y="309"/>
      <point x="437" y="222" type="curve"/>
      <point x="437" y="138"/>
      <point x="389" y="90"/>
      <point x="303" y="90" type="curve"/>
      <point x="242" y="90"/>
      <point x="193" y="90"/>
      <point x="131" y="90" type="curve"/>
      <point x="131" y="40"/>
      <point x="131" y="50"/>
      <point x="131" y="0" type="curve"/>
      <point x="195" y="0"/>
      <point x="245" y="0"/>
      <point x="309" y="0" type="curve"/>
      <point x="458" y="0"/>
      <point x="555" y="75"/>
      <point x="555" y="220" type="curve"/>
      <point x="555" y="383"/>
      <point x="407" y="450"/>
      <point x="252" y="450" type="curve"/>
      <point x="209" y="450"/>
      <point x="174" y="450"/>
      <point x="131" y="450" type="curve"/>
      <point x="131" y="401"/>
      <point x="131" y="409"/>
    </contour>
  </outline>
</glyph>
<glyph name="C" format="1">
  <advance width="630"/>
  <unicode hex="0043"/>
  <outline>
    <contour>
      <point x="606" y="654" type="curve"/>
      <point x="540" y="696"/>
      <point x="464" y="727"/>
      <point x="377" y="727" type="curve"/>
      <point x="158" y="727"/>
      <point x="45" y="578"/>
      <point x="45" y="345" type="curve"/>
      <point x="45" y="131"/>
      <point x="153" y="-5"/>
      <point x="358" y="-5" type="curve"/>
      <point x="471" y="-5"/>
      <point x="544" y="28"/>
      <point x="617" y="96" type="curve"/>
      <point x="555" y="166"/>
      <point x="617" y="96"/>
      <point x="555" y="166" type="curve"/>
      <point x="493" y="117"/>
      <point x="442" y="90"/>
      <point x="364" y="90" type="curve"/>
      <point x="221" y="90"/>
      <point x="162" y="196"/>
      <point x="162" y="349" type="curve"/>
      <point x="162" y="515"/>
      <point x="223" y="633"/>
      <point x="373" y="633" type="curve"/>
      <point x="437" y="633"/>
      <point x="494" y="614"/>
      <point x="548" y="581" type="curve"/>
      <point x="606" y="654"/>
      <point x="548" y="581"/>
    </contour>
    <contour>
      <point x="369" y="791" type="move" name="top"/>
    </contour>
    <contour>
      <point x="390" y="4" type="move" name="bottom"/>
    </contour>
  </outline>
</glyph>
<glyph name="D" format="1">
  <advance width="692"/>
  <unicode hex="0044"/>
  <outline>
    <contour>
      <point x="80" y="722" type="curve"/>
      <point x="80" y="481"/>
      <point x="80" y="241"/>
      <point x="80" y="0" type="curve"/>
      <point x="197" y="0"/>
      <point x="80" y="0"/>
      <point x="197" y="0" type="curve"/>
      <point x="197" y="241"/>
      <point x="197" y="481"/>
      <point x="197" y="722" type="curve"/>
      <point x="80" y="722"/>
      <point x="197" y="722"/>
    </contour>
    <contour>
      <point x="140" y="0" type="curve"/>
      <point x="197" y="0"/>
      <point x="252" y="0"/>
      <point x="310" y="0" type="curve"/>
      <point x="533" y="0"/>
      <point x="647" y="127"/>
      <point x="647" y="354" type="curve"/>
      <point x="647" y="588"/>
      <point x="534" y="722"/>
      <point x="305" y="722" type="curve"/>
      <point x="249" y="722"/>
      <point x="196" y="722"/>
      <point x="140" y="722" type="curve"/>
      <point x="140" y="635"/>
      <point x="140" y="719"/>
      <point x="140" y="632" type="curve"/>
      <point x="194" y="632"/>
      <point x="245" y="632"/>
      <point x="300" y="632" type="curve"/>
      <point x="464" y="632"/>
      <point x="530" y="524"/>
      <point x="530" y="352" type="curve"/>
      <point x="530" y="192"/>
      <point x="470" y="90"/>
      <point x="320" y="90" type="curve"/>
      <point x="259" y="90"/>
      <point x="201" y="90"/>
      <point x="140" y="90" type="curve"/>
      <point x="140" y="3"/>
      <point x="140" y="87"/>
    </contour>
    <contour>
      <point x="285" y="791" type="move" name="top"/>
    </contour>
  </outline>
</glyph>
<glyph name="F" format="1">
  <advance width="516"/>
  <unicode hex="0046"/>
  <outline>
    <contour>
      <point x="142" y="328" type="curve"/>
      <point x="238" y="328"/>
      <point x="333" y="328"/>
      <point x="429" y="328" type="curve"/>
      <point x="429" y="418"/>
      <point x="429" y="328"/>
      <point x="429" y="418" type="curve"/>
      <point x="333" y="418"/>
      <point x="238" y="418"/>
      <point x="142" y="418" type="curve"/>
      <point x="142" y="328"/>
      <point x="142" y="418"/>
    </contour>
    <contour>
      <point x="197" y="0" type="curve"/>
      <point x="197" y="722" type="line"/>
      <point x="80" y="722"/>
      <point x="197" y="722"/>
      <point x="80" y="722" type="curve"/>
      <point x="80" y="481"/>
      <point x="80" y="241"/>
      <point x="80" y="0" type="curve"/>
      <point x="197" y="0"/>
      <point x="80" y="0"/>
    </contour>
    <contour>
      <point x="129" y="632" type="curve"/>
      <point x="250" y="632"/>
      <point x="372" y="632"/>
      <point x="494" y="632" type="curve"/>
      <point x="494" y="722"/>
      <point x="494" y="632"/>
      <point x="494" y="722" type="curve"/>
      <point x="372" y="722"/>
      <point x="250" y="722"/>
      <point x="129" y="722" type="curve"/>
      <point x="129" y="632"/>
      <point x="129" y="722"/>
    </contour>
  </outline>
</glyph>
<glyph name="G" format="1">
  <advance width="720"/>
  <unicode hex="0047"/>
  <outline>
    <contour>
      <point x="639" y="358" type="curve"/>
      <point x="573" y="358"/>
      <point x="508" y="358"/>
      <point x="443" y="358" type="curve"/>
      <point x="443" y="268"/>
      <point x="443" y="358"/>
      <point x="443" y="268" type="curve"/>
      <point x="508" y="268"/>
      <point x="573" y="268"/>
      <point x="639" y="268" type="curve"/>
      <point x="639" y="358"/>
      <point x="639" y="268"/>
    </contour>
    <contour>
      <point x="670" y="79" type="curve"/>
      <point x="670" y="172"/>
      <point x="670" y="265"/>
      <point x="670" y="358" type="curve"/>
      <point x="563" y="358"/>
      <point x="670" y="358"/>
      <point x="563" y="358" type="curve"/>
      <point x="563" y="265"/>
      <point x="563" y="172"/>
      <point x="563" y="79" type="curve"/>
      <point x="670" y="79"/>
      <point x="563" y="79"/>
    </contour>
    <contour>
      <point x="655" y="644" type="curve"/>
      <point x="569" y="701"/>
      <point x="488" y="727"/>
      <point x="385" y="727" type="curve"/>
      <point x="164" y="727"/>
      <point x="44" y="588"/>
      <point x="44" y="361" type="curve"/>
      <point x="44" y="131"/>
      <point x="170" y="-5"/>
      <point x="394" y="-5" type="curve"/>
      <point x="505" y="-5"/>
      <point x="575" y="23"/>
      <point x="670" y="79" type="curve"/>
      <point x="611" y="147"/>
      <point x="670" y="79"/>
      <point x="611" y="147" type="curve"/>
      <point x="540" y="106"/>
      <point x="479" y="90"/>
      <point x="394" y="90" type="curve"/>
      <point x="234" y="90"/>
      <point x="162" y="200"/>
      <point x="162" y="370" type="curve"/>
      <point x="162" y="529"/>
      <point x="234" y="633"/>
      <point x="385" y="633" type="curve"/>
      <point x="466" y="633"/>
      <point x="528" y="612"/>
      <point x="600" y="567" type="curve"/>
      <point x="655" y="644"/>
      <point x="600" y="567"/>
    </contour>
    <contour>
      <point x="382" y="791" type="move" name="top"/>
    </contour>
    <contour>
      <point x="427" y="-11" type="move" name="bottom"/>
    </contour>
  </outline>
</glyph>
<glyph name="H" format="1">
  <advance width="721"/>
  <unicode hex="0048"/>
  <outline>
    <contour>
      <point x="197" y="0" type="curve"/>
      <point x="197" y="722" type="line"/>
      <point x="80" y="722"/>
      <point x="197" y="722"/>
      <point x="80" y="722" type="curve"/>
      <point x="80" y="481"/>
      <point x="80" y="241"/>
      <point x="80" y="0" type="curve"/>
      <point x="197" y="0"/>
      <point x="80" y="0"/>
    </contour>
    <contour>
      <point x="581" y="408" type="curve"/>
      <point x="433" y="408"/>
      <point x="286" y="408"/>
      <point x="138" y="408" type="curve"/>
      <point x="138" y="317"/>
      <point x="138" y="408"/>
      <point x="138" y="317" type="curve"/>
      <point x="286" y="317"/>
      <point x="433" y="317"/>
      <point x="581" y="317" type="curve"/>
      <point x="581" y="408"/>
      <point x="581" y="317"/>
    </contour>
    <contour>
      <point x="641" y="0" type="curve"/>
      <point x="641" y="216"/>
      <point x="641" y="506"/>
      <point x="641" y="722" type="curve"/>
      <point x="524" y="722"/>
      <point x="641" y="722"/>
      <point x="524" y="722" type="curve"/>
      <point x="524" y="0" type="line"/>
      <point x="641" y="0"/>
      <point x="524" y="0"/>
    </contour>
  </outline>
</glyph>
<glyph name="J" format="1">
  <advance width="416"/>
  <unicode hex="004A"/>
  <outline>
    <contour>
      <point x="2" y="44" type="curve"/>
      <point x="33" y="21"/>
      <point x="76" y="-4"/>
      <point x="130" y="-4" type="curve"/>
      <point x="272" y="-4"/>
      <point x="342" y="81"/>
      <point x="342" y="239" type="curve"/>
      <point x="342" y="403"/>
      <point x="342" y="557"/>
      <point x="342" y="722" type="curve"/>
      <point x="227" y="722"/>
      <point x="339" y="722"/>
      <point x="225" y="722" type="curve"/>
      <point x="225" y="557"/>
      <point x="225" y="403"/>
      <point x="225" y="239" type="curve"/>
      <point x="225" y="152"/>
      <point x="206" y="87"/>
      <point x="130" y="87" type="curve"/>
      <point x="99" y="87"/>
      <point x="80" y="101"/>
      <point x="56" y="115" type="curve"/>
      <point x="4" y="46"/>
      <point x="55" y="113"/>
    </contour>
  </outline>
</glyph>
<glyph name="K" format="1">
  <advance width="634"/>
  <unicode hex="004B"/>
  <outline>
    <contour>
      <point x="463" y="722" type="curve"/>
      <point x="174" y="380" type="line"/>
      <point x="308" y="380"/>
      <point x="180" y="380"/>
      <point x="314" y="380" type="curve"/>
      <point x="605" y="722" type="line"/>
      <point x="492" y="722"/>
      <point x="575" y="722"/>
    </contour>
    <contour>
      <point x="197" y="0" type="curve"/>
      <point x="197" y="722" type="line"/>
      <point x="80" y="722"/>
      <point x="197" y="722"/>
      <point x="80" y="722" type="curve"/>
      <point x="80" y="481"/>
      <point x="80" y="241"/>
      <point x="80" y="0" type="curve"/>
      <point x="197" y="0"/>
      <point x="80" y="0"/>
    </contour>
    <contour>
      <point x="626" y="0" type="curve"/>
      <point x="314" y="380" type="line"/>
      <point x="180" y="380"/>
      <point x="308" y="380"/>
      <point x="174" y="380" type="curve"/>
      <point x="482" y="0" type="line"/>
      <point x="604" y="0"/>
      <point x="504" y="0"/>
    </contour>
    <contour>
      <point x="349" y="-13" type="move" name="bottom"/>
    </contour>
  </outline>
</glyph>
<glyph name="L" format="1">
  <advance width="524"/>
  <unicode hex="004C"/>
  <outline>
    <contour>
      <point x="197" y="0" type="curve"/>
      <point x="197" y="241"/>
      <point x="197" y="481"/>
      <point x="197" y="722" type="curve"/>
      <point x="80" y="722"/>
      <point x="197" y="722"/>
      <point x="80" y="722" type="curve"/>
      <point x="80" y="481"/>
      <point x="80" y="241"/>
      <point x="80" y="0" type="curve"/>
      <point x="197" y="0"/>
      <point x="80" y="0"/>
    </contour>
    <contour>
      <point x="138" y="0" type="curve"/>
      <point x="263" y="0"/>
      <point x="388" y="0"/>
      <point x="513" y="0" type="curve"/>
      <point x="513" y="90"/>
      <point x="513" y="0"/>
      <point x="513" y="90" type="curve"/>
      <point x="388" y="90"/>
      <point x="263" y="90"/>
      <point x="138" y="90" type="curve"/>
      <point x="138" y="0"/>
      <point x="138" y="90"/>
    </contour>
    <contour>
      <point x="138" y="791" type="move" name="top"/>
    </contour>
    <contour>
      <point x="302" y="-10" type="move" name="bottom"/>
    </contour>
  </outline>
</glyph>
<glyph name="M" format="1">
  <advance width="838"/>
  <unicode hex="004D"/>
  <outline>
    <contour>
      <point x="785" y="0" type="curve"/>
      <point x="767" y="241"/>
      <point x="744" y="481"/>
      <point x="726" y="722" type="curve"/>
      <point x="619" y="722"/>
      <point x="726" y="722"/>
      <point x="619" y="722" type="curve"/>
      <point x="637" y="481"/>
      <point x="650" y="241"/>
      <point x="668" y="0" type="curve"/>
      <point x="785" y="0"/>
      <point x="668" y="0"/>
    </contour>
    <contour>
      <point x="162" y="0" type="curve"/>
      <point x="178" y="241"/>
      <point x="195" y="481"/>
      <point x="212" y="722" type="curve"/>
      <point x="108" y="722"/>
      <point x="212" y="722"/>
      <point x="108" y="722" type="curve"/>
      <point x="90" y="481"/>
      <point x="73" y="241"/>
      <point x="55" y="0" type="curve"/>
      <point x="162" y="0"/>
      <point x="55" y="0"/>
    </contour>
    <contour>
      <point x="465" y="0" type="curve"/>
      <point x="381" y="241"/>
      <point x="297" y="481"/>
      <point x="214" y="722" type="curve"/>
      <point x="110" y="722"/>
      <point x="214" y="722"/>
      <point x="110" y="722" type="curve"/>
      <point x="193" y="481"/>
      <point x="276" y="241"/>
      <point x="359" y="0" type="curve"/>
      <point x="464" y="0"/>
      <point x="359" y="0"/>
    </contour>
    <contour>
      <point x="473" y="0" type="curve"/>
      <point x="554" y="241"/>
      <point x="636" y="481"/>
      <point x="717" y="722" type="curve"/>
      <point x="614" y="722"/>
      <point x="717" y="722"/>
      <point x="613" y="722" type="curve"/>
      <point x="531" y="481"/>
      <point x="448" y="241"/>
      <point x="366" y="0" type="curve"/>
      <point x="473" y="0"/>
      <point x="366" y="0"/>
    </contour>
  </outline>
</glyph>
<glyph name="N" format="1">
  <advance width="762"/>
  <unicode hex="004E"/>
  <outline>
    <contour>
      <point x="683" y="0" type="curve"/>
      <point x="524" y="241"/>
      <point x="366" y="481"/>
      <point x="209" y="722" type="curve"/>
      <point x="80" y="722"/>
      <point x="208" y="722"/>
      <point x="80" y="722" type="curve"/>
      <point x="237" y="481"/>
      <point x="395" y="241"/>
      <point x="554" y="0" type="curve"/>
      <point x="682" y="0"/>
      <point x="554" y="0"/>
    </contour>
    <contour>
      <point x="566" y="722" type="curve"/>
      <point x="566" y="481"/>
      <point x="566" y="241"/>
      <point x="566" y="0" type="curve"/>
      <point x="683" y="0"/>
      <point x="566" y="0"/>
      <point x="683" y="0" type="curve"/>
      <point x="683" y="241"/>
      <point x="683" y="481"/>
      <point x="683" y="722" type="curve"/>
      <point x="566" y="722"/>
      <point x="683" y="722"/>
    </contour>
    <contour>
      <point x="197" y="0" type="curve"/>
      <point x="197" y="241"/>
      <point x="197" y="481"/>
      <point x="197" y="722" type="curve"/>
      <point x="80" y="722"/>
      <point x="197" y="722"/>
      <point x="80" y="722" type="curve"/>
      <point x="80" y="481"/>
      <point x="80" y="241"/>
      <point x="80" y="0" type="curve"/>
      <point x="197" y="0"/>
      <point x="80" y="0"/>
    </contour>
    <contour>
      <point x="382" y="791" type="move" name="top"/>
    </contour>
    <contour>
      <point x="417" y="-13" type="move" name="bottom"/>
    </contour>
  </outline>
</glyph>
<glyph name="P" format="1">
  <advance width="551"/>
  <unicode hex="0050"/>
  <outline>
    <contour>
      <point x="122" y="302" type="curve"/>
      <point x="175" y="274"/>
      <point x="234" y="257"/>
      <point x="297" y="257" type="curve"/>
      <point x="433" y="259"/>
      <point x="520" y="337"/>
      <point x="520" y="481" type="curve"/>
      <point x="520" y="631"/>
      <point x="416" y="722"/>
      <point x="262" y="722" type="curve"/>
      <point x="222" y="722"/>
      <point x="182" y="722"/>
      <point x="142" y="722" type="curve"/>
      <point x="142" y="632"/>
      <point x="142" y="722"/>
      <point x="142" y="632" type="curve"/>
      <point x="177" y="632"/>
      <point x="212" y="632"/>
      <point x="247" y="632" type="curve"/>
      <point x="342" y="632"/>
      <point x="403" y="576"/>
      <point x="403" y="484" type="curve"/>
      <point x="403" y="400"/>
      <point x="360" y="344"/>
      <point x="283" y="344" type="curve"/>
      <point x="235" y="344"/>
      <point x="202" y="357"/>
      <point x="159" y="379" type="curve"/>
      <point x="123" y="304"/>
      <point x="159" y="379"/>
    </contour>
    <contour>
      <point x="197" y="0" type="curve"/>
      <point x="197" y="241"/>
      <point x="197" y="481"/>
      <point x="197" y="722" type="curve"/>
      <point x="80" y="722"/>
      <point x="197" y="722"/>
      <point x="80" y="722" type="curve"/>
      <point x="80" y="481"/>
      <point x="80" y="241"/>
      <point x="80" y="0" type="curve"/>
      <point x="197" y="0"/>
      <point x="80" y="0"/>
    </contour>
  </outline>
</glyph>
<glyph name="Q" format="1">
  <advance width="751"/>
  <unicode hex="0051"/>
  <outline>
    <contour>
      <point x="317" y="22" type="curve"/>
      <point x="413" y="-153"/>
      <point x="530" y="-218"/>
      <point x="718" y="-218" type="curve"/>
      <point x="718" y="-123"/>
      <point x="718" y="-218"/>
      <point x="718" y="-123" type="curve"/>
      <point x="576" y="-123"/>
      <point x="493" y="-67"/>
      <point x="418" y="67" type="curve"/>
      <point x="317" y="22"/>
      <point x="418" y="67"/>
    </contour>
    <contour>
      <point x="162" y="360" type="curve"/>
      <point x="162" y="512"/>
      <point x="218" y="628"/>
      <point x="357" y="628" type="curve"/>
      <point x="498" y="628"/>
      <point x="557" y="515"/>
      <point x="557" y="361" type="curve"/>
      <point x="557" y="208"/>
      <point x="504" y="89"/>
      <point x="364" y="89" type="curve"/>
      <point x="221" y="90"/>
      <point x="162" y="205"/>
      <point x="162" y="360" type="curve"/>
      <point x="45" y="360"/>
      <point x="162" y="360"/>
      <point x="45" y="360" type="curve"/>
      <point x="45" y="145"/>
      <point x="155" y="-5"/>
      <point x="358" y="-5" type="curve"/>
      <point x="565" y="-5"/>
      <point x="674" y="148"/>
      <point x="674" y="366" type="curve"/>
      <point x="674" y="580"/>
      <point x="569" y="731"/>
      <point x="365" y="731" type="curve"/>
      <point x="157" y="731"/>
      <point x="45" y="578"/>
      <point x="45" y="360" type="curve"/>
      <point x="162" y="360"/>
      <point x="45" y="360"/>
    </contour>
  </outline>
</glyph>
<glyph name="R" format="1">
  <advance width="612"/>
  <unicode hex="0052"/>
  <outline>
    <contour>
      <point x="256" y="354" type="curve"/>
      <point x="324" y="244"/>
      <point x="412" y="110"/>
      <point x="480" y="0" type="curve"/>
      <point x="602" y="0"/>
      <point x="489" y="0"/>
      <point x="611" y="0" type="curve"/>
      <point x="544" y="108"/>
      <point x="453" y="246"/>
      <point x="387" y="354" type="curve"/>
      <point x="258" y="354"/>
      <point x="385" y="354"/>
    </contour>
    <contour>
      <point x="197" y="0" type="curve"/>
      <point x="197" y="241"/>
      <point x="197" y="481"/>
      <point x="197" y="722" type="curve"/>
      <point x="80" y="722"/>
      <point x="197" y="722"/>
      <point x="80" y="722" type="curve"/>
      <point x="80" y="481"/>
      <point x="80" y="241"/>
      <point x="80" y="0" type="curve"/>
      <point x="197" y="0"/>
      <point x="80" y="0"/>
    </contour>
    <contour>
      <point x="140" y="307" type="curve"/>
      <point x="192" y="307"/>
      <point x="245" y="307"/>
      <point x="297" y="307" type="curve"/>
      <point x="441" y="307"/>
      <point x="535" y="378"/>
      <point x="535" y="523" type="curve"/>
      <point x="535" y="657"/>
      <point x="444" y="722"/>
      <point x="306" y="722" type="curve"/>
      <point x="250" y="722"/>
      <point x="196" y="722"/>
      <point x="140" y="722" type="curve"/>
      <point x="140" y="632"/>
      <point x="140" y="722"/>
      <point x="140" y="632" type="curve"/>
      <point x="189" y="632"/>
      <point x="236" y="632"/>
      <point x="284" y="632" type="curve"/>
      <point x="366" y="632"/>
      <point x="417" y="593"/>
      <point x="417" y="514" type="curve"/>
      <point x="417" y="439"/>
      <point x="375" y="397"/>
      <point x="299" y="397" type="curve"/>
      <point x="246" y="397"/>
      <point x="193" y="397"/>
      <point x="140" y="397" type="curve"/>
      <point x="140" y="307"/>
      <point x="140" y="397"/>
    </contour>
    <contour>
      <point x="262" y="791" type="move" name="top"/>
    </contour>
    <contour>
      <point x="368" y="-14" type="move" name="bottom"/>
    </contour>
  </outline>
</glyph>
<glyph name="S" format="1">
  <advance width="530"/>
  <unicode hex="0053"/>
  <outline>
    <contour>
      <point x="40" y="54" type="curve"/>
      <point x="101" y="14"/>
      <point x="166" y="-5"/>
      <point x="247" y="-5" type="curve"/>
      <point x="389" y="-5"/>
      <point x="499" y="55"/>
      <point x="499" y="188" type="curve"/>
      <point x="499" y="305"/>
      <point x="412" y="358"/>
      <point x="304" y="411" type="curve"/>
      <point x="229" y="448"/>
      <point x="158" y="485"/>
      <point x="158" y="546" type="curve"/>
      <point x="156" y="601"/>
      <point x="199" y="635"/>
      <point x="259" y="635" type="curve"/>
      <point x="315" y="635"/>
      <point x="364" y="610"/>
      <point x="403" y="589" type="curve"/>
      <point x="454" y="660"/>
      <point x="405" y="592"/>
      <point x="455" y="661" type="curve"/>
      <point x="396" y="699"/>
      <point x="338" y="721"/>
      <point x="262" y="721" type="curve"/>
      <point x="134" y="721"/>
      <point x="40" y="659"/>
      <point x="40" y="540" type="curve"/>
      <point x="40" y="428"/>
      <point x="125" y="377"/>
      <point x="228" y="327" type="curve"/>
      <point x="306" y="289"/>
      <point x="381" y="250"/>
      <point x="381" y="187" type="curve"/>
      <point x="381" y="131"/>
      <point x="325" y="89"/>
      <point x="252" y="89" type="curve"/>
      <point x="194" y="89"/>
      <point x="146" y="112"/>
      <point x="101" y="140" type="curve"/>
      <point x="42" y="56"/>
      <point x="99" y="138"/>
    </contour>
    <contour>
      <point x="262" y="791" type="move" name="top"/>
    </contour>
    <contour>
      <point x="292" y="-8" type="move" name="bottom"/>
    </contour>
  </outline>
</glyph>
<glyph name="T" format="1">
  <advance width="575"/>
  <unicode hex="0054"/>
  <outline>
    <contour>
      <point x="346" y="0" type="curve"/>
      <point x="346" y="237"/>
      <point x="346" y="473"/>
      <point x="346" y="710" type="curve"/>
      <point x="229" y="710"/>
      <point x="346" y="710"/>
      <point x="229" y="710" type="curve"/>
      <point x="228" y="473"/>
      <point x="229" y="237"/>
      <point x="229" y="0" type="curve"/>
      <point x="346" y="0"/>
      <point x="229" y="0"/>
    </contour>
    <contour>
      <point x="12" y="626" type="curve"/>
      <point x="195" y="626"/>
      <point x="379" y="626"/>
      <point x="563" y="626" type="curve"/>
      <point x="563" y="726"/>
      <point x="563" y="623"/>
      <point x="563" y="722" type="curve"/>
      <point x="379" y="722"/>
      <point x="195" y="722"/>
      <point x="12" y="722" type="curve"/>
      <point x="12" y="623"/>
      <point x="12" y="726"/>
    </contour>
    <contour>
      <point x="286" y="791" type="move" name="top"/>
    </contour>
    <contour>
      <point x="332" y="-13" type="move" name="bottom"/>
    </contour>
  </outline>
</glyph>
<glyph name="V" format="1">
  <advance width="638"/>
  <unicode hex="0056"/>
  <outline>
    <contour>
      <point x="510" y="722" type="curve"/>
      <point x="429" y="480"/>
      <point x="350" y="242"/>
      <point x="271" y="0" type="curve"/>
      <point x="392" y="0"/>
      <point x="262" y="0"/>
      <point x="383" y="0" type="curve"/>
      <point x="465" y="241"/>
      <point x="547" y="481"/>
      <point x="630" y="722" type="curve"/>
      <point x="510" y="722"/>
      <point x="630" y="722"/>
    </contour>
    <contour>
      <point x="6" y="722" type="curve"/>
      <point x="89" y="481"/>
      <point x="173" y="241"/>
      <point x="257" y="0" type="curve"/>
      <point x="377" y="0"/>
      <point x="250" y="0"/>
      <point x="370" y="0" type="curve"/>
      <point x="289" y="242"/>
      <point x="209" y="482"/>
      <point x="127" y="722" type="curve"/>
      <point x="6" y="722"/>
      <point x="127" y="722"/>
    </contour>
  </outline>
</glyph>
<glyph name="W" format="1">
  <advance width="829"/>
  <unicode hex="0057"/>
  <outline>
    <contour>
      <point x="292" y="0" type="curve"/>
      <point x="352" y="241"/>
      <point x="410" y="481"/>
      <point x="469" y="722" type="curve"/>
      <point x="365" y="722"/>
      <point x="470" y="722"/>
      <point x="366" y="722" type="curve"/>
      <point x="311" y="481"/>
      <point x="256" y="242"/>
      <point x="200" y="0" type="curve"/>
      <point x="300" y="0"/>
      <point x="192" y="0"/>
    </contour>
    <contour>
      <point x="374" y="722" type="curve"/>
      <point x="428" y="481"/>
      <point x="479" y="241"/>
      <point x="533" y="0" type="curve"/>
      <point x="633" y="0"/>
      <point x="523" y="0"/>
      <point x="623" y="0" type="curve"/>
      <point x="574" y="243"/>
      <point x="527" y="481"/>
      <point x="476" y="722" type="curve"/>
      <point x="372" y="722"/>
      <point x="478" y="722"/>
    </contour>
    <contour>
      <point x="24" y="722" type="curve"/>
      <point x="78" y="481"/>
      <point x="132" y="241"/>
      <point x="186" y="0" type="curve"/>
      <point x="287" y="0"/>
      <point x="185" y="0"/>
      <point x="285" y="0" type="curve"/>
      <point x="233" y="241"/>
      <point x="182" y="481"/>
      <point x="131" y="722" type="curve"/>
      <point x="24" y="722"/>
      <point x="131" y="722"/>
    </contour>
    <contour>
      <point x="701" y="722" type="curve"/>
      <point x="648" y="481"/>
      <point x="595" y="241"/>
      <point x="541" y="0" type="curve"/>
      <point x="642" y="0"/>
      <point x="539" y="0"/>
      <point x="639" y="0" type="curve"/>
      <point x="695" y="241"/>
      <point x="752" y="481"/>
      <point x="808" y="722" type="curve"/>
      <point x="701" y="722"/>
      <point x="808" y="722"/>
    </contour>
  </outline>
</glyph>
<glyph name="X" format="1">
  <advance width="595"/>
  <unicode hex="0058"/>
  <outline>
    <contour>
      <point x="452" y="722" type="curve"/>
      <point x="306" y="484"/>
      <point x="150" y="238"/>
      <point x="4" y="0" type="curve"/>
      <point x="121" y="0"/>
      <point x="14" y="0"/>
      <point x="131" y="0" type="curve"/>
      <point x="276" y="238"/>
      <point x="428" y="484"/>
      <point x="573" y="722" type="curve"/>
      <point x="461" y="722"/>
      <point x="564" y="722"/>
    </contour>
    <contour>
      <point x="29" y="722" type="curve"/>
      <point x="172" y="484"/>
      <point x="322" y="238"/>
      <point x="465" y="0" type="curve"/>
      <point x="582" y="0"/>
      <point x="472" y="0"/>
      <point x="589" y="0" type="curve"/>
      <point x="444" y="239"/>
      <point x="293" y="483"/>
      <point x="148" y="722" type="curve"/>
      <point x="37" y="722"/>
      <point x="140" y="722"/>
    </contour>
  </outline>
</glyph>
<glyph name="Y" format="1">
  <advance width="570"/>
  <unicode hex="0059"/>
  <outline>
    <contour>
      <point x="12" y="722" type="curve"/>
      <point x="80" y="597"/>
      <point x="156" y="464"/>
      <point x="222" y="337" type="curve"/>
      <point x="342" y="337"/>
      <point x="210" y="337"/>
      <point x="330" y="337" type="curve"/>
      <point x="265" y="468"/>
      <point x="202" y="592"/>
      <point x="136" y="722" type="curve"/>
      <point x="23" y="722"/>
      <point x="126" y="722"/>
    </contour>
    <contour>
      <point x="446" y="722" type="curve"/>
      <point x="374" y="591"/>
      <point x="307" y="467"/>
      <point x="235" y="337" type="curve"/>
      <point x="355" y="337"/>
      <point x="229" y="337"/>
      <point x="348" y="337" type="curve"/>
      <point x="419" y="464"/>
      <point x="495" y="597"/>
      <point x="567" y="722" type="curve"/>
      <point x="453" y="722"/>
      <point x="559" y="722"/>
    </contour>
    <contour>
      <point x="349" y="0" type="curve"/>
      <point x="349" y="115"/>
      <point x="349" y="226"/>
      <point x="349" y="341" type="curve"/>
      <point x="221" y="341"/>
      <point x="349" y="341"/>
      <point x="221" y="341" type="curve"/>
      <point x="221" y="226"/>
      <point x="221" y="115"/>
      <point x="221" y="0" type="curve"/>
      <point x="349" y="0"/>
      <point x="221" y="0"/>
    </contour>
    <contour>
      <point x="290" y="791" type="move" name="top"/>
    </contour>
  </outline>
</glyph>
<glyph name="Z" format="1">
  <advance width="614"/>
  <unicode hex="005A"/>
  <outline>
    <contour>
      <point x="55" y="632" type="curve"/>
      <point x="198" y="632"/>
      <point x="383" y="632"/>
      <point x="526" y="632" type="curve"/>
      <point x="517" y="641"/>
      <point x="501" y="639"/>
      <point x="492" y="648" type="curve"/>
      <point x="484" y="656"/>
      <point x="484" y="670"/>
      <point x="477" y="678" type="curve"/>
      <point x="470" y="670"/>
      <point x="457" y="676"/>
      <point x="451" y="668" type="curve"/>
      <point x="23" y="90" type="line"/>
      <point x="23" y="44"/>
      <point x="23" y="90"/>
      <point x="23" y="44" type="curve"/>
      <point x="23" y="0"/>
      <point x="23" y="44"/>
      <point x="23" y="0" type="curve"/>
      <point x="65" y="0"/>
      <point x="23" y="0"/>
      <point x="65" y="0" type="curve"/>
      <point x="579" y="0"/>
      <point x="423" y="0"/>
      <point x="595" y="0" type="curve"/>
      <point x="595" y="90"/>
      <point x="595" y="0"/>
      <point x="595" y="90" type="curve"/>
      <point x="423" y="90"/>
      <point x="236" y="90"/>
      <point x="65" y="90" type="curve"/>
      <point x="74" y="83"/>
      <point x="87" y="83"/>
      <point x="95" y="77" type="curve"/>
      <point x="104" y="68"/>
      <point x="105" y="53"/>
      <point x="114" y="44" type="curve"/>
      <point x="121" y="53"/>
      <point x="136" y="46"/>
      <point x="143" y="54" type="curve"/>
      <point x="575" y="632" type="line"/>
      <point x="575" y="678"/>
      <point x="575" y="632"/>
      <point x="575" y="678" type="curve"/>
      <point x="575" y="722"/>
      <point x="575" y="678"/>
      <point x="575" y="722" type="curve"/>
      <point x="522" y="722"/>
      <point x="575" y="722"/>
      <point x="522" y="722" type="curve"/>
      <point x="380" y="722"/>
      <point x="197" y="722"/>
      <point x="55" y="722" type="curve"/>
      <point x="55" y="632"/>
      <point x="55" y="722"/>
    </contour>
    <contour>
      <point x="313" y="791" type="move" name="top"/>
    </contour>
  </outline>
</glyph>
<glyph name="bracketleft" format="1">
  <advance width="291"/>
  <unicode hex="005B"/>
  <outline>
    <contour>
      <point x="254" y="769" type="curve"/>
      <point x="208" y="769"/>
      <point x="163" y="769"/>
      <point x="118" y="769" type="curve"/>
      <point x="104" y="769"/>
      <point x="78" y="769"/>
      <point x="65" y="769" type="curve"/>
      <point x="65" y="756"/>
      <point x="65" y="739"/>
      <point x="65" y="726" type="curve"/>
      <point x="65" y="459"/>
      <point x="65" y="193"/>
      <point x="65" y="-73" type="curve"/>
      <point x="65" y="-87"/>
      <point x="65" y="-99"/>
      <point x="65" y="-115" type="curve"/>
      <point x="77" y="-115"/>
      <point x="103" y="-115"/>
      <point x="117" y="-115" type="curve"/>
      <point x="162" y="-115"/>
      <point x="208" y="-115"/>
      <point x="254" y="-115" type="curve"/>
      <point x="254" y="-16"/>
      <point x="254" y="-115"/>
      <point x="254" y="-16" type="curve"/>
      <point x="208" y="-16"/>
      <point x="162" y="-16"/>
      <point x="117" y="-16" type="curve"/>
      <point x="182" y="-16"/>
      <point x="117" y="-16"/>
      <point x="182" y="-16" type="curve"/>
      <point x="182" y="-73"/>
      <point x="182" y="-16"/>
      <point x="182" y="-73" type="curve"/>
      <point x="182" y="193"/>
      <point x="182" y="459"/>
      <point x="182" y="726" type="curve"/>
      <point x="182" y="671"/>
      <point x="182" y="726"/>
      <point x="182" y="671" type="curve"/>
      <point x="118" y="671"/>
      <point x="182" y="671"/>
      <point x="118" y="671" type="curve"/>
      <point x="163" y="671"/>
      <point x="208" y="671"/>
      <point x="254" y="671" type="curve"/>
      <point x="254" y="769"/>
      <point x="254" y="671"/>
    </contour>
  </outline>
</glyph>
<glyph name="bracketright" format="1">
  <advance width="290"/>
  <unicode hex="005D"/>
  <outline>
    <contour>
      <point x="37" y="671" type="curve"/>
      <point x="83" y="671"/>
      <point x="128" y="671"/>
      <point x="173" y="671" type="curve"/>
      <point x="162" y="680"/>
      <point x="147" y="683"/>
      <point x="136" y="692" type="curve"/>
      <point x="126" y="702"/>
      <point x="118" y="715"/>
      <point x="109" y="726" type="curve"/>
      <point x="109" y="459"/>
      <point x="108" y="193"/>
      <point x="109" y="-73" type="curve"/>
      <point x="119" y="-62"/>
      <point x="129" y="-51"/>
      <point x="140" y="-41" type="curve"/>
      <point x="150" y="-30"/>
      <point x="164" y="-26"/>
      <point x="174" y="-16" type="curve"/>
      <point x="129" y="-16"/>
      <point x="83" y="-16"/>
      <point x="37" y="-16" type="curve"/>
      <point x="37" y="-115"/>
      <point x="37" y="-16"/>
      <point x="37" y="-115" type="curve"/>
      <point x="83" y="-115"/>
      <point x="129" y="-115"/>
      <point x="174" y="-115" type="curve"/>
      <point x="226" y="-115"/>
      <point x="174" y="-115"/>
      <point x="226" y="-115" type="curve"/>
      <point x="226" y="-73"/>
      <point x="226" y="-115"/>
      <point x="226" y="-73" type="curve"/>
      <point x="226" y="193"/>
      <point x="226" y="459"/>
      <point x="226" y="726" type="curve"/>
      <point x="226" y="769"/>
      <point x="226" y="726"/>
      <point x="226" y="769" type="curve"/>
      <point x="173" y="769"/>
      <point x="226" y="769"/>
      <point x="173" y="769" type="curve"/>
      <point x="128" y="769"/>
      <point x="83" y="769"/>
      <point x="37" y="769" type="curve"/>
      <point x="37" y="671"/>
      <point x="37" y="769"/>
    </contour>
  </outline>
</glyph>
<glyph name="asciicircum" format="1">
  <advance width="502"/>
  <unicode hex="005E"/>
  <outline>
    <contour>
      <point x="154" y="456" type="curve"/>
      <point x="205" y="560"/>
      <point x="257" y="663"/>
      <point x="309" y="767" type="curve"/>
      <point x="192" y="767"/>
      <point x="309" y="767"/>
      <point x="191" y="767" type="curve"/>
      <point x="139" y="663"/>
      <point x="88" y="560"/>
      <point x="36" y="456" type="curve"/>
      <point x="154" y="456"/>
      <point x="36" y="456"/>
    </contour>
    <contour>
      <point x="465" y="456" type="curve"/>
      <point x="414" y="558"/>
      <point x="360" y="664"/>
      <point x="309" y="767" type="curve"/>
      <point x="192" y="767"/>
      <point x="309" y="767"/>
      <point x="192" y="767" type="curve"/>
      <point x="243" y="664"/>
      <point x="297" y="558"/>
      <point x="348" y="456" type="curve"/>
      <point x="465" y="456"/>
      <point x="348" y="456"/>
    </contour>
  </outline>
</glyph>
<glyph name="grave" format="1">
  <advance width="373"/>
  <unicode hex="0060"/>
  <outline>
    <contour>
      <point x="285" y="579" type="line"/>
      <point x="185" y="745" type="line"/>
      <point x="37" y="745" type="line"/>
      <point x="171" y="579" type="line"/>
    </contour>
    <contour>
      <point x="225" y="578" type="move" name="_top"/>
    </contour>
  </outline>
</glyph>
<glyph name="b" format="1">
  <advance width="597"/>
  <unicode hex="0062"/>
  <outline>
    <contour>
      <point x="155" y="354" type="curve"/>
      <point x="187" y="396"/>
      <point x="238" y="444"/>
      <point x="311" y="444" type="curve"/>
      <point x="402" y="444"/>
      <point x="439" y="364"/>
      <point x="439" y="263" type="curve"/>
      <point x="440" y="165"/>
      <point x="400" y="88"/>
      <point x="312" y="89" type="curve"/>
      <point x="248" y="89"/>
      <point x="201" y="119"/>
      <point x="164" y="165" type="curve"/>
      <point x="112" y="130"/>
      <point x="152" y="157"/>
      <point x="101" y="122" type="curve"/>
      <point x="158" y="47"/>
      <point x="222" y="-5"/>
      <point x="326" y="-5" type="curve"/>
      <point x="473" y="-5"/>
      <point x="557" y="106"/>
      <point x="557" y="267" type="curve"/>
      <point x="557" y="426"/>
      <point x="474" y="538"/>
      <point x="327" y="538" type="curve"/>
      <point x="222" y="538"/>
      <point x="153" y="473"/>
      <point x="104" y="403" type="curve"/>
      <point x="147" y="366"/>
      <point x="113" y="390"/>
    </contour>
    <contour>
      <point x="184" y="0" type="curve"/>
      <point x="184" y="275"/>
      <point x="184" y="525"/>
      <point x="184" y="800" type="curve"/>
      <point x="86" y="800"/>
      <point x="164" y="800"/>
      <point x="67" y="800" type="curve"/>
      <point x="67" y="525"/>
      <point x="67" y="275"/>
      <point x="67" y="0" type="curve"/>
      <point x="164" y="0"/>
      <point x="86" y="0"/>
    </contour>
  </outline>
</glyph>
<glyph name="d" format="1">
  <advance width="599"/>
  <unicode hex="0064"/>
  <outline>
    <contour>
      <point x="481" y="437" type="curve"/>
      <point x="430" y="500"/>
      <point x="358" y="535"/>
      <point x="274" y="535" type="curve"/>
      <point x="122" y="535"/>
      <point x="40" y="422"/>
      <point x="40" y="262" type="curve"/>
      <point x="40" y="105"/>
      <point x="124" y="-2"/>
      <point x="273" y="-2" type="curve"/>
      <point x="369" y="-2"/>
      <point x="436" y="44"/>
      <point x="482" y="126" type="curve"/>
      <point x="436" y="184"/>
      <point x="480" y="126"/>
      <point x="434" y="184" type="curve"/>
      <point x="399" y="125"/>
      <point x="357" y="88"/>
      <point x="293" y="88" type="curve"/>
      <point x="201" y="88"/>
      <point x="157" y="164"/>
      <point x="157" y="267" type="curve"/>
      <point x="157" y="370"/>
      <point x="204" y="445"/>
      <point x="297" y="445" type="curve"/>
      <point x="353" y="445"/>
      <point x="404" y="415"/>
      <point x="436" y="371" type="curve"/>
      <point x="482" y="435"/>
      <point x="435" y="373"/>
    </contour>
    <contour>
      <point x="532" y="0" type="curve"/>
      <point x="532" y="267"/>
      <point x="532" y="533"/>
      <point x="532" y="800" type="curve"/>
      <point x="410" y="800"/>
      <point x="532" y="800"/>
      <point x="410" y="800" type="curve"/>
      <point x="410" y="533"/>
      <point x="410" y="267"/>
      <point x="410" y="0" type="curve"/>
      <point x="532" y="0"/>
      <point x="410" y="0"/>
    </contour>
  </outline>
</glyph>
<glyph name="f" format="1">
  <advance width="410"/>
  <unicode hex="0066"/>
  <outline>
    <contour>
      <point x="23" y="443" type="curve"/>
      <point x="385" y="443" type="line"/>
      <point x="385" y="533"/>
      <point x="385" y="443"/>
      <point x="385" y="533" type="curve"/>
      <point x="23" y="533" type="line"/>
      <point x="23" y="443"/>
      <point x="23" y="533"/>
    </contour>
    <contour>
      <point x="242" y="0" type="curve"/>
      <point x="242" y="612" type="line"/>
      <point x="242" y="671"/>
      <point x="256" y="717"/>
      <point x="310" y="717" type="curve"/>
      <point x="335" y="717"/>
      <point x="357" y="709"/>
      <point x="378" y="698" type="curve"/>
      <point x="425" y="770"/>
      <point x="378" y="698"/>
      <point x="425" y="770" type="curve"/>
      <point x="391" y="789"/>
      <point x="351" y="804"/>
      <point x="310" y="804" type="curve"/>
      <point x="194" y="804"/>
      <point x="123" y="729"/>
      <point x="124" y="612" type="curve"/>
      <point x="124" y="0" type="line"/>
      <point x="242" y="0"/>
      <point x="124" y="0"/>
    </contour>
  </outline>
</glyph>
<glyph name="g" format="1">
  <advance width="526"/>
  <unicode hex="0067"/>
  <outline>
    <contour>
      <point x="364" y="446" type="curve"/>
      <point x="503" y="512" type="line"/>
      <point x="500" y="516"/>
      <point x="458" y="594"/>
      <point x="455" y="597" type="curve"/>
      <point x="302" y="516" type="line"/>
      <point x="364" y="446"/>
      <point x="302" y="516"/>
    </contour>
    <contour>
      <point x="165" y="341" type="curve"/>
      <point x="165" y="403"/>
      <point x="201" y="448"/>
      <point x="262" y="448" type="curve"/>
      <point x="324" y="448"/>
      <point x="356" y="403"/>
      <point x="356" y="341" type="curve"/>
      <point x="356" y="283"/>
      <point x="323" y="241"/>
      <point x="262" y="241" type="curve"/>
      <point x="203" y="241"/>
      <point x="165" y="280"/>
      <point x="165" y="341" type="curve"/>
      <point x="47" y="337"/>
      <point x="165" y="341"/>
      <point x="47" y="337" type="curve"/>
      <point x="47" y="220"/>
      <point x="134" y="152"/>
      <point x="256" y="152" type="curve"/>
      <point x="382" y="152"/>
      <point x="473" y="222"/>
      <point x="473" y="345" type="curve"/>
      <point x="473" y="464"/>
      <point x="386" y="538"/>
      <point x="262" y="538" type="curve"/>
      <point x="135" y="538"/>
      <point x="47" y="461"/>
      <point x="47" y="337" type="curve"/>
      <point x="165" y="341"/>
      <point x="47" y="337"/>
    </contour>
    <contour>
      <point x="145" y="242" type="curve"/>
      <point x="90" y="211"/>
      <point x="51" y="174"/>
      <point x="51" y="112" type="curve"/>
      <point x="51" y="14"/>
      <point x="141" y="-19"/>
      <point x="247" y="-29" type="curve"/>
      <point x="330" y="-36"/>
      <point x="409" y="-50"/>
      <point x="409" y="-124" type="curve"/>
      <point x="409" y="-191"/>
      <point x="340" y="-215"/>
      <point x="262" y="-215" type="curve"/>
      <point x="188" y="-215"/>
      <point x="129" y="-181"/>
      <point x="129" y="-110" type="curve"/>
      <point x="129" y="-55"/>
      <point x="154" y="-15"/>
      <point x="200" y="5" type="curve"/>
      <point x="141" y="59"/>
      <point x="200" y="5"/>
      <point x="141" y="59" type="curve"/>
      <point x="64" y="27"/>
      <point x="12" y="-27"/>
      <point x="12" y="-115" type="curve"/>
      <point x="12" y="-244"/>
      <point x="120" y="-305"/>
      <point x="257" y="-305" type="curve"/>
      <point x="399" y="-305"/>
      <point x="518" y="-249"/>
      <point x="515" y="-115" type="curve"/>
      <point x="515" y="10"/>
      <point x="400" y="46"/>
      <point x="268" y="57" type="curve"/>
      <point x="215" y="61"/>
      <point x="168" y="76"/>
      <point x="168" y="121" type="curve"/>
      <point x="168" y="150"/>
      <point x="180" y="168"/>
      <point x="204" y="185" type="curve"/>
      <point x="145" y="242"/>
      <point x="204" y="185"/>
    </contour>
    <contour>
      <point x="258" y="625" type="move" name="top"/>
    </contour>
  </outline>
</glyph>
<glyph name="h" format="1">
  <advance width="577"/>
  <unicode hex="0068"/>
  <outline>
    <contour>
      <point x="158" y="307" type="curve"/>
      <point x="182" y="380"/>
      <point x="234" y="445"/>
      <point x="305" y="445" type="curve"/>
      <point x="377" y="445"/>
      <point x="398" y="389"/>
      <point x="398" y="313" type="curve"/>
      <point x="398" y="208"/>
      <point x="398" y="105"/>
      <point x="398" y="0" type="curve"/>
      <point x="515" y="0"/>
      <point x="398" y="0"/>
      <point x="515" y="0" type="curve"/>
      <point x="515" y="108"/>
      <point x="515" y="217"/>
      <point x="515" y="325" type="curve"/>
      <point x="515" y="454"/>
      <point x="463" y="535"/>
      <point x="334" y="535" type="curve"/>
      <point x="232" y="535"/>
      <point x="150" y="458"/>
      <point x="119" y="352" type="curve"/>
      <point x="159" y="306"/>
      <point x="118" y="352"/>
    </contour>
    <contour>
      <point x="184" y="0" type="curve"/>
      <point x="184" y="267"/>
      <point x="184" y="533"/>
      <point x="184" y="800" type="curve"/>
      <point x="67" y="800"/>
      <point x="184" y="800"/>
      <point x="67" y="800" type="curve"/>
      <point x="67" y="533"/>
      <point x="67" y="267"/>
      <point x="67" y="0" type="curve"/>
      <point x="184" y="0"/>
      <point x="67" y="0"/>
    </contour>
  </outline>
</glyph>
<glyph name="i" format="1">
  <advance width="251"/>
  <unicode hex="0069"/>
  <outline>
    <contour>
      <point x="188" y="0" type="curve"/>
      <point x="188" y="178"/>
      <point x="188" y="355"/>
      <point x="188" y="533" type="curve"/>
      <point x="64" y="533"/>
      <point x="188" y="533"/>
      <point x="64" y="533" type="curve"/>
      <point x="64" y="355"/>
      <point x="64" y="178"/>
      <point x="64" y="0" type="curve"/>
      <point x="188" y="0"/>
      <point x="64" y="0"/>
    </contour>
    <contour>
      <point x="188" y="682" type="curve"/>
      <point x="188" y="722"/>
      <point x="160" y="742"/>
      <point x="122" y="742" type="curve"/>
      <point x="84" y="742"/>
      <point x="58" y="720"/>
      <point x="58" y="682" type="curve"/>
      <point x="186" y="682"/>
      <point x="60" y="682"/>
      <point x="188" y="682" type="curve"/>
      <point x="188" y="641"/>
      <point x="161" y="623"/>
      <point x="122" y="623" type="curve"/>
      <point x="83" y="623"/>
      <point x="58" y="643"/>
      <point x="58" y="682" type="curve"/>
      <point x="186" y="682"/>
      <point x="60" y="682"/>
    </contour>
    <contour>
      <point x="122" y="625" type="move" name="top"/>
    </contour>
    <contour>
      <point x="179" y="5" type="move" name="bottom"/>
    </contour>
  </outline>
</glyph>
<glyph name="j" format="1">
  <advance width="257"/>
  <unicode hex="006A"/>
  <outline>
    <contour>
      <point x="-23" y="-303" type="curve"/>
      <point x="-14" y="-304"/>
      <point x="-3" y="-305"/>
      <point x="8" y="-305" type="curve"/>
      <point x="120" y="-305"/>
      <point x="200" y="-235"/>
      <point x="200" y="-125" type="curve"/>
      <point x="200" y="95"/>
      <point x="200" y="314"/>
      <point x="200" y="534" type="curve"/>
      <point x="83" y="534"/>
      <point x="200" y="534"/>
      <point x="83" y="534" type="curve"/>
      <point x="83" y="314"/>
      <point x="83" y="95"/>
      <point x="83" y="-125" type="curve"/>
      <point x="83" y="-176"/>
      <point x="61" y="-218"/>
      <point x="13" y="-218" type="curve"/>
      <point x="6" y="-218"/>
      <point x="0" y="-217"/>
      <point x="-6" y="-216" type="curve"/>
      <point x="-23" y="-302"/>
      <point x="-6" y="-217"/>
    </contour>
    <contour>
      <point x="206" y="677" type="curve"/>
      <point x="206" y="717"/>
      <point x="178" y="737"/>
      <point x="140" y="737" type="curve"/>
      <point x="101" y="737"/>
      <point x="76" y="716"/>
      <point x="76" y="677" type="curve"/>
      <point x="204" y="677"/>
      <point x="78" y="677"/>
      <point x="206" y="677" type="curve"/>
      <point x="206" y="637"/>
      <point x="178" y="618"/>
      <point x="140" y="618" type="curve"/>
      <point x="101" y="618"/>
      <point x="76" y="638"/>
      <point x="76" y="677" type="curve"/>
      <point x="204" y="677"/>
      <point x="78" y="677"/>
    </contour>
  </outline>
</glyph>
<glyph name="k" format="1">
  <advance width="557"/>
  <unicode hex="006B"/>
  <outline>
    <contour>
      <point x="184" y="0" type="curve"/>
      <point x="184" y="800" type="line"/>
      <point x="67" y="800"/>
      <point x="184" y="800"/>
      <point x="67" y="800" type="curve"/>
      <point x="67" y="533"/>
      <point x="67" y="267"/>
      <point x="67" y="0" type="curve"/>
      <point x="184" y="0"/>
      <point x="67" y="0"/>
    </contour>
    <contour>
      <point x="378" y="533" type="curve"/>
      <point x="160" y="275" type="line"/>
      <point x="283" y="275"/>
      <point x="169" y="275"/>
      <point x="293" y="275" type="curve"/>
      <point x="519" y="533" type="line"/>
      <point x="400" y="533"/>
      <point x="497" y="533"/>
    </contour>
    <contour>
      <point x="542" y="0" type="curve"/>
      <point x="293" y="275" type="line"/>
      <point x="169" y="275"/>
      <point x="283" y="275"/>
      <point x="160" y="275" type="curve"/>
      <point x="401" y="0" type="line"/>
      <point x="514" y="0"/>
      <point x="429" y="0"/>
    </contour>
    <contour>
      <point x="337" y="-15" type="move" name="bottom"/>
    </contour>
  </outline>
</glyph>
<glyph name="m" format="1">
  <advance width="838"/>
  <unicode hex="006D"/>
  <outline>
    <contour>
      <point x="453" y="288" type="curve"/>
      <point x="480" y="369"/>
      <point x="511" y="444"/>
      <point x="580" y="444" type="curve"/>
      <point x="651" y="444"/>
      <point x="658" y="394"/>
      <point x="658" y="315" type="curve"/>
      <point x="658" y="210"/>
      <point x="658" y="105"/>
      <point x="658" y="0" type="curve"/>
      <point x="775" y="0"/>
      <point x="658" y="0"/>
      <point x="775" y="0" type="curve"/>
      <point x="775" y="108"/>
      <point x="775" y="217"/>
      <point x="775" y="325" type="curve"/>
      <point x="775" y="459"/>
      <point x="746" y="538"/>
      <point x="616" y="538" type="curve"/>
      <point x="513" y="538"/>
      <point x="451" y="455"/>
      <point x="414" y="339" type="curve"/>
      <point x="456" y="290"/>
      <point x="411" y="337"/>
    </contour>
    <contour>
      <point x="158" y="289" type="curve"/>
      <point x="183" y="369"/>
      <point x="214" y="445"/>
      <point x="284" y="445" type="curve"/>
      <point x="355" y="445"/>
      <point x="362" y="394"/>
      <point x="362" y="315" type="curve"/>
      <point x="362" y="210"/>
      <point x="362" y="105"/>
      <point x="362" y="0" type="curve"/>
      <point x="480" y="0"/>
      <point x="362" y="0"/>
      <point x="480" y="0" type="curve"/>
      <point x="480" y="108"/>
      <point x="480" y="217"/>
      <point x="480" y="325" type="curve"/>
      <point x="480" y="459"/>
      <point x="451" y="538"/>
      <point x="321" y="538" type="curve"/>
      <point x="217" y="538"/>
      <point x="160" y="458"/>
      <point x="118" y="340" type="curve"/>
      <point x="161" y="291"/>
      <point x="115" y="338"/>
    </contour>
    <contour>
      <point x="184" y="0" type="curve"/>
      <point x="184" y="178"/>
      <point x="184" y="355"/>
      <point x="184" y="533" type="curve"/>
      <point x="67" y="533"/>
      <point x="184" y="533"/>
      <point x="67" y="533" type="curve"/>
      <point x="67" y="355"/>
      <point x="67" y="178"/>
      <point x="67" y="0" type="curve"/>
      <point x="184" y="0"/>
      <point x="67" y="0"/>
    </contour>
  </outline>
</glyph>
<glyph name="n" format="1">
  <advance width="577"/>
  <unicode hex="006E"/>
  <outline>
    <contour>
      <point x="160" y="279" type="curve"/>
      <point x="180" y="369"/>
      <point x="229" y="444"/>
      <point x="301" y="444" type="curve"/>
      <point x="372" y="444"/>
      <point x="398" y="391"/>
      <point x="398" y="315" type="curve"/>
      <point x="398" y="208"/>
      <point x="398" y="107"/>
      <point x="398" y="0" type="curve"/>
      <point x="495" y="0"/>
      <point x="418" y="0"/>
      <point x="515" y="0" type="curve"/>
      <point x="515" y="110"/>
      <point x="515" y="214"/>
      <point x="515" y="325" type="curve"/>
      <point x="515" y="454"/>
      <point x="466" y="538"/>
      <point x="339" y="538" type="curve"/>
      <point x="230" y="538"/>
      <point x="149" y="460"/>
      <point x="118" y="328" type="curve"/>
      <point x="150" y="286"/>
      <point x="128" y="321"/>
    </contour>
    <contour>
      <point x="184" y="0" type="curve"/>
      <point x="184" y="178"/>
      <point x="184" y="355"/>
      <point x="184" y="533" type="curve"/>
      <point x="67" y="533"/>
      <point x="184" y="533"/>
      <point x="67" y="533" type="curve"/>
      <point x="67" y="355"/>
      <point x="67" y="178"/>
      <point x="67" y="0" type="curve"/>
      <point x="184" y="0"/>
      <point x="67" y="0"/>
    </contour>
    <contour>
      <point x="295" y="625" type="move" name="top"/>
    </contour>
    <contour>
      <point x="328" y="-3" type="move" name="bottom"/>
    </contour>
  </outline>
</glyph>
<glyph name="p" format="1">
  <advance width="599"/>
  <unicode hex="0070"/>
  <outline>
    <contour>
      <point x="155" y="321" type="curve"/>
      <point x="184" y="386"/>
      <point x="240" y="447"/>
      <point x="311" y="447" type="curve"/>
      <point x="409" y="447"/>
      <point x="442" y="366"/>
      <point x="442" y="265" type="curve"/>
      <point x="443" y="164"/>
      <point x="408" y="85"/>
      <point x="311" y="85" type="curve"/>
      <point x="248" y="85"/>
      <point x="201" y="114"/>
      <point x="158" y="159" type="curve"/>
      <point x="120" y="119"/>
      <point x="150" y="147"/>
      <point x="111" y="107" type="curve"/>
      <point x="170" y="36"/>
      <point x="238" y="-5"/>
      <point x="332" y="-5" type="curve"/>
      <point x="488" y="-5"/>
      <point x="559" y="114"/>
      <point x="559" y="270" type="curve"/>
      <point x="559" y="422"/>
      <point x="490" y="539"/>
      <point x="336" y="539" type="curve"/>
      <point x="236" y="539"/>
      <point x="163" y="473"/>
      <point x="118" y="392" type="curve"/>
      <point x="147" y="331"/>
      <point x="126" y="382"/>
    </contour>
    <contour>
      <point x="184" y="-300" type="curve"/>
      <point x="184" y="-22"/>
      <point x="184" y="255"/>
      <point x="184" y="533" type="curve"/>
      <point x="67" y="533"/>
      <point x="184" y="533"/>
      <point x="67" y="533" type="curve"/>
      <point x="67" y="255"/>
      <point x="67" y="-22"/>
      <point x="67" y="-300" type="curve"/>
      <point x="184" y="-300"/>
      <point x="67" y="-300"/>
    </contour>
  </outline>
</glyph>
<glyph name="q" format="1">
  <advance width="603"/>
  <unicode hex="0071"/>
  <outline>
    <contour>
      <point x="486" y="401" type="curve"/>
      <point x="434" y="485"/>
      <point x="360" y="538"/>
      <point x="267" y="538" type="curve"/>
      <point x="110" y="538"/>
      <point x="39" y="420"/>
      <point x="40" y="264" type="curve"/>
      <point x="40" y="108"/>
      <point x="116" y="-5"/>
      <point x="272" y="-5" type="curve"/>
      <point x="365" y="-5"/>
      <point x="436" y="54"/>
      <point x="490" y="131" type="curve"/>
      <point x="456" y="173"/>
      <point x="479" y="140"/>
      <point x="445" y="182" type="curve"/>
      <point x="408" y="124"/>
      <point x="355" y="85"/>
      <point x="289" y="85" type="curve"/>
      <point x="194" y="85"/>
      <point x="158" y="166"/>
      <point x="158" y="269" type="curve"/>
      <point x="158" y="368"/>
      <point x="195" y="446"/>
      <point x="287" y="446" type="curve"/>
      <point x="351" y="446"/>
      <point x="403" y="414"/>
      <point x="449" y="346" type="curve"/>
      <point x="474" y="392"/>
      <point x="460" y="356"/>
    </contour>
    <contour>
      <point x="537" y="-300" type="curve"/>
      <point x="537" y="-16"/>
      <point x="537" y="249"/>
      <point x="537" y="533" type="curve"/>
      <point x="435" y="533"/>
      <point x="515" y="533"/>
      <point x="414" y="533" type="curve"/>
      <point x="414" y="249"/>
      <point x="414" y="-16"/>
      <point x="414" y="-300" type="curve"/>
      <point x="515" y="-300"/>
      <point x="435" y="-300"/>
    </contour>
  </outline>
</glyph>
<glyph name="r" format="1">
  <advance width="366"/>
  <unicode hex="0072"/>
  <outline>
    <contour>
      <point x="184" y="0" type="curve"/>
      <point x="184" y="183"/>
      <point x="184" y="350"/>
      <point x="184" y="533" type="curve"/>
      <point x="86" y="533"/>
      <point x="164" y="533"/>
      <point x="67" y="533" type="curve"/>
      <point x="67" y="350"/>
      <point x="67" y="183"/>
      <point x="67" y="0" type="curve"/>
      <point x="164" y="0"/>
      <point x="86" y="0"/>
    </contour>
    <contour>
      <point x="157" y="296" type="curve"/>
      <point x="197" y="408"/>
      <point x="267" y="440"/>
      <point x="355" y="440" type="curve"/>
      <point x="355" y="521"/>
      <point x="355" y="457"/>
      <point x="355" y="538" type="curve"/>
      <point x="243" y="538"/>
      <point x="162" y="462"/>
      <point x="117" y="348" type="curve"/>
      <point x="151" y="308"/>
      <point x="124" y="337"/>
    </contour>
    <contour>
      <point x="149" y="625" type="move" name="top"/>
    </contour>
    <contour>
      <point x="165" y="-6" type="move" name="bottom"/>
    </contour>
  </outline>
</glyph>
<glyph name="s" format="1">
  <advance width="454"/>
  <unicode hex="0073"/>
  <outline>
    <contour>
      <point x="33" y="47" type="curve"/>
      <point x="97" y="15"/>
      <point x="155" y="-5"/>
      <point x="223" y="-5" type="curve"/>
      <point x="344" y="-5"/>
      <point x="426" y="45"/>
      <point x="426" y="155" type="curve"/>
      <point x="425" y="258"/>
      <point x="344" y="286"/>
      <point x="240" y="318" type="curve" smooth="yes"/>
      <point x="189" y="334"/>
      <point x="148" y="353"/>
      <point x="148" y="395" type="curve"/>
      <point x="148" y="425"/>
      <point x="175" y="445"/>
      <point x="217" y="445" type="curve"/>
      <point x="257" y="445"/>
      <point x="302" y="429"/>
      <point x="332" y="411" type="curve"/>
      <point x="381" y="490"/>
      <point x="333" y="413"/>
      <point x="383" y="493" type="curve"/>
      <point x="344" y="517"/>
      <point x="278" y="538"/>
      <point x="220" y="538" type="curve"/>
      <point x="114" y="538"/>
      <point x="41" y="492"/>
      <point x="41" y="395" type="curve"/>
      <point x="41" y="301"/>
      <point x="106" y="262"/>
      <point x="202" y="232" type="curve" smooth="yes"/>
      <point x="260" y="214"/>
      <point x="313" y="198"/>
      <point x="313" y="150" type="curve"/>
      <point x="313" y="112"/>
      <point x="279" y="90"/>
      <point x="234" y="90" type="curve"/>
      <point x="181" y="90"/>
      <point x="140" y="105"/>
      <point x="89" y="129" type="curve"/>
      <point x="33" y="47"/>
      <point x="89" y="129"/>
    </contour>
    <contour>
      <point x="223" y="625" type="move" name="top"/>
    </contour>
    <contour>
      <point x="258" y="-10" type="move" name="bottom"/>
    </contour>
  </outline>
</glyph>
<glyph name="t" format="1">
  <advance width="384"/>
  <unicode hex="0074"/>
  <outline>
    <contour>
      <point x="26" y="442" type="curve"/>
      <point x="364" y="442" type="line"/>
      <point x="364" y="533"/>
      <point x="364" y="442"/>
      <point x="364" y="533" type="curve"/>
      <point x="26" y="533" type="line"/>
      <point x="26" y="442"/>
      <point x="26" y="533"/>
    </contour>
    <contour>
      <point x="333" y="107" type="curve"/>
      <point x="313" y="95"/>
      <point x="297" y="89"/>
      <point x="275" y="89" type="curve"/>
      <point x="232" y="89"/>
      <point x="222" y="121"/>
      <point x="222" y="168" type="curve"/>
      <point x="222" y="682" type="line"/>
      <point x="141" y="632"/>
      <point x="185" y="661"/>
      <point x="104" y="610" type="curve"/>
      <point x="104" y="164" type="line"/>
      <point x="104" y="55"/>
      <point x="157" y="-6"/>
      <point x="259" y="-6" type="curve"/>
      <point x="306" y="-6"/>
      <point x="338" y="8"/>
      <point x="376" y="29" type="curve"/>
      <point x="333" y="107"/>
      <point x="376" y="29"/>
    </contour>
    <contour>
      <point x="292" y="-8" type="move" name="bottom"/>
    </contour>
  </outline>
</glyph>
<glyph name="u" format="1">
  <advance width="570"/>
  <unicode hex="0075"/>
  <outline>
    <contour>
      <point x="504" y="0" type="curve"/>
      <point x="504" y="181"/>
      <point x="504" y="352"/>
      <point x="504" y="533" type="curve"/>
      <point x="407" y="533"/>
      <point x="483" y="533"/>
      <point x="386" y="533" type="curve"/>
      <point x="386" y="352"/>
      <point x="386" y="181"/>
      <point x="386" y="0" type="curve"/>
      <point x="483" y="0"/>
      <point x="407" y="0"/>
    </contour>
    <contour>
      <point x="413" y="224" type="curve"/>
      <point x="386" y="156"/>
      <point x="343" y="88"/>
      <point x="274" y="88" type="curve"/>
      <point x="205" y="88"/>
      <point x="179" y="138"/>
      <point x="179" y="212" type="curve"/>
      <point x="179" y="321"/>
      <point x="179" y="424"/>
      <point x="179" y="533" type="curve"/>
      <point x="81" y="533"/>
      <point x="158" y="533"/>
      <point x="61" y="533" type="curve"/>
      <point x="61" y="422"/>
      <point x="61" y="318"/>
      <point x="61" y="207" type="curve"/>
      <point x="61" y="77"/>
      <point x="122" y="-5"/>
      <point x="256" y="-5" type="curve"/>
      <point x="356" y="-5"/>
      <point x="420" y="77"/>
      <point x="459" y="181" type="curve"/>
      <point x="420" y="213"/>
      <point x="451" y="192"/>
    </contour>
    <contour>
      <point x="262" y="625" type="move" name="top"/>
    </contour>
    <contour>
      <point x="496" y="6" type="move" name="bottom"/>
    </contour>
  </outline>
</glyph>
<glyph name="v" format="1">
  <advance width="541"/>
  <unicode hex="0076"/>
  <outline>
    <contour>
      <point x="17" y="533" type="curve"/>
      <point x="78" y="355"/>
      <point x="140" y="178"/>
      <point x="202" y="0" type="curve"/>
      <point x="314" y="0"/>
      <point x="202" y="0"/>
      <point x="314" y="0" type="curve"/>
      <point x="253" y="177"/>
      <point x="197" y="356"/>
      <point x="136" y="533" type="curve"/>
      <point x="17" y="533"/>
      <point x="136" y="533"/>
    </contour>
    <contour>
      <point x="411" y="533" type="curve"/>
      <point x="222" y="0" type="line"/>
      <point x="335" y="0"/>
      <point x="222" y="0"/>
      <point x="335" y="0" type="curve"/>
      <point x="400" y="178"/>
      <point x="464" y="355"/>
      <point x="529" y="533" type="curve"/>
      <point x="411" y="533"/>
      <point x="529" y="533"/>
    </contour>
  </outline>
</glyph>
<glyph name="w" format="1">
  <advance width="817"/>
  <unicode hex="0077"/>
  <outline>
    <contour>
      <point x="286" y="0" type="curve"/>
      <point x="346" y="178"/>
      <point x="406" y="355"/>
      <point x="466" y="533" type="curve"/>
      <point x="359" y="533"/>
      <point x="466" y="533"/>
      <point x="359" y="533" type="curve"/>
      <point x="299" y="355"/>
      <point x="240" y="178"/>
      <point x="181" y="0" type="curve"/>
      <point x="286" y="0"/>
      <point x="181" y="0"/>
    </contour>
    <contour>
      <point x="694" y="533" type="curve"/>
      <point x="639" y="355"/>
      <point x="583" y="178"/>
      <point x="528" y="0" type="curve"/>
      <point x="632" y="0"/>
      <point x="528" y="0"/>
      <point x="632" y="0" type="curve"/>
      <point x="689" y="178"/>
      <point x="746" y="355"/>
      <point x="802" y="533" type="curve"/>
      <point x="694" y="533"/>
      <point x="802" y="533"/>
    </contour>
    <contour>
      <point x="364" y="533" type="curve"/>
      <point x="418" y="355"/>
      <point x="473" y="178"/>
      <point x="527" y="0" type="curve"/>
      <point x="632" y="0"/>
      <point x="527" y="0"/>
      <point x="632" y="0" type="curve"/>
      <point x="579" y="178"/>
      <point x="524" y="355"/>
      <point x="471" y="533" type="curve"/>
      <point x="364" y="533"/>
      <point x="471" y="533"/>
    </contour>
    <contour>
      <point x="18" y="533" type="curve"/>
      <point x="72" y="355"/>
      <point x="126" y="178"/>
      <point x="180" y="0" type="curve"/>
      <point x="285" y="0"/>
      <point x="180" y="0"/>
      <point x="285" y="0" type="curve"/>
      <point x="231" y="178"/>
      <point x="178" y="355"/>
      <point x="125" y="533" type="curve"/>
      <point x="18" y="533"/>
      <point x="125" y="533"/>
    </contour>
  </outline>
</glyph>
<glyph name="x" format="1">
  <advance width="552"/>
  <unicode hex="0078"/>
  <outline>
    <contour>
      <point x="540" y="0" type="curve"/>
      <point x="510" y="43"/>
      <point x="168" y="490"/>
      <point x="138" y="533" type="curve"/>
      <point x="-4" y="533"/>
      <point x="157" y="533"/>
      <point x="15" y="533" type="curve"/>
      <point x="44" y="490"/>
      <point x="383" y="43"/>
      <point x="413" y="0" type="curve"/>
      <point x="540" y="0"/>
      <point x="413" y="0"/>
    </contour>
    <contour>
      <point x="418" y="533" type="curve"/>
      <point x="388" y="490"/>
      <point x="40" y="43"/>
      <point x="10" y="0" type="curve"/>
      <point x="138" y="0"/>
      <point x="10" y="0"/>
      <point x="138" y="0" type="curve"/>
      <point x="168" y="43"/>
      <point x="511" y="490"/>
      <point x="541" y="533" type="curve"/>
      <point x="392" y="533"/>
      <point x="567" y="533"/>
    </contour>
  </outline>
</glyph>
<glyph name="y" format="1">
  <advance width="565"/>
  <unicode hex="0079"/>
  <outline>
    <contour>
      <point x="330" y="-13" type="curve"/>
      <point x="290" y="102"/>
      <point x="172" y="418"/>
      <point x="132" y="533" type="curve"/>
      <point x="11" y="533"/>
      <point x="132" y="533"/>
      <point x="11" y="533" type="curve"/>
      <point x="55" y="419"/>
      <point x="180" y="96"/>
      <point x="223" y="-18" type="curve"/>
      <point x="330" y="-18"/>
      <point x="223" y="-13"/>
    </contour>
    <contour>
      <point x="217" y="-300" type="curve"/>
      <point x="285" y="-128"/>
      <point x="493" y="361"/>
      <point x="561" y="533" type="curve"/>
      <point x="441" y="533"/>
      <point x="561" y="533"/>
      <point x="441" y="533" type="curve"/>
      <point x="372" y="361"/>
      <point x="164" y="-128"/>
      <point x="96" y="-300" type="curve"/>
      <point x="217" y="-300"/>
      <point x="96" y="-300"/>
    </contour>
    <contour>
      <point x="286" y="625" type="move" name="top"/>
    </contour>
  </outline>
</glyph>
<glyph name="braceleft" format="1">
  <advance width="274"/>
  <unicode hex="007B"/>
  <outline>
    <contour>
      <point x="235" y="-22" type="curve"/>
      <point x="194" y="-22"/>
      <point x="185" y="13"/>
      <point x="185" y="57" type="curve"/>
      <point x="185" y="110"/>
      <point x="185" y="162"/>
      <point x="185" y="215" type="curve"/>
      <point x="185" y="318"/>
      <point x="129" y="388"/>
      <point x="30" y="388" type="curve"/>
      <point x="30" y="293"/>
      <point x="30" y="388"/>
      <point x="30" y="293" type="curve"/>
      <point x="67" y="293"/>
      <point x="79" y="264"/>
      <point x="79" y="224" type="curve"/>
      <point x="79" y="170"/>
      <point x="79" y="115"/>
      <point x="79" y="62" type="curve"/>
      <point x="79" y="-43"/>
      <point x="134" y="-112"/>
      <point x="235" y="-112" type="curve"/>
      <point x="235" y="-22"/>
      <point x="235" y="-112"/>
    </contour>
    <contour>
      <point x="235" y="792" type="curve"/>
      <point x="134" y="792"/>
      <point x="78" y="725"/>
      <point x="78" y="622" type="curve"/>
      <point x="78" y="566"/>
      <point x="78" y="510"/>
      <point x="78" y="454" type="curve"/>
      <point x="78" y="415"/>
      <point x="66" y="388"/>
      <point x="30" y="388" type="curve"/>
      <point x="30" y="293"/>
      <point x="30" y="388"/>
      <point x="30" y="293" type="curve"/>
      <point x="130" y="293"/>
      <point x="185" y="363"/>
      <point x="185" y="468" type="curve"/>
      <point x="185" y="519"/>
      <point x="185" y="570"/>
      <point x="185" y="622" type="curve"/>
      <point x="185" y="667"/>
      <point x="193" y="702"/>
      <point x="235" y="702" type="curve"/>
      <point x="235" y="792"/>
      <point x="235" y="702"/>
    </contour>
  </outline>
</glyph>
<glyph name="braceright" format="1">
  <advance width="274"/>
  <unicode hex="007D"/>
  <outline>
    <contour>
      <point x="38" y="-112" type="curve"/>
      <point x="138" y="-112"/>
      <point x="194" y="-43"/>
      <point x="194" y="62" type="curve"/>
      <point x="194" y="115"/>
      <point x="194" y="170"/>
      <point x="194" y="224" type="curve"/>
      <point x="194" y="264"/>
      <point x="206" y="293"/>
      <point x="243" y="293" type="curve"/>
      <point x="243" y="388"/>
      <point x="243" y="293"/>
      <point x="243" y="388" type="curve"/>
      <point x="143" y="388"/>
      <point x="87" y="317"/>
      <point x="87" y="215" type="curve"/>
      <point x="87" y="162"/>
      <point x="87" y="110"/>
      <point x="87" y="57" type="curve"/>
      <point x="87" y="13"/>
      <point x="79" y="-22"/>
      <point x="38" y="-22" type="curve"/>
      <point x="38" y="-112"/>
      <point x="38" y="-22"/>
    </contour>
    <contour>
      <point x="38" y="702" type="curve"/>
      <point x="79" y="702"/>
      <point x="87" y="667"/>
      <point x="87" y="622" type="curve"/>
      <point x="87" y="570"/>
      <point x="87" y="519"/>
      <point x="87" y="468" type="curve"/>
      <point x="87" y="363"/>
      <point x="143" y="293"/>
      <point x="243" y="293" type="curve"/>
      <point x="243" y="388"/>
      <point x="243" y="293"/>
      <point x="243" y="388" type="curve"/>
      <point x="206" y="388"/>
      <point x="194" y="415"/>
      <point x="194" y="454" type="curve"/>
      <point x="194" y="510"/>
      <point x="194" y="566"/>
      <point x="194" y="622" type="curve"/>
      <point x="194" y="725"/>
      <point x="138" y="792"/>
      <point x="38" y="792" type="curve"/>
      <point x="38" y="702"/>
      <point x="38" y="792"/>
    </contour>
  </outline>
</glyph>
<glyph name="asciitilde" format="1">
  <advance width="629"/>
  <unicode hex="007E"/>
  <outline>
    <contour>
      <point x="484" y="371" type="curve"/>
      <point x="470" y="331"/>
      <point x="455" y="292"/>
      <point x="421" y="292" type="curve"/>
      <point x="391" y="292"/>
      <point x="373" y="302"/>
      <point x="350" y="321" type="curve"/>
      <point x="305" y="361"/>
      <point x="273" y="382"/>
      <point x="213" y="382" type="curve"/>
      <point x="120" y="382"/>
      <point x="77" y="330"/>
      <point x="53" y="240" type="curve"/>
      <point x="91" y="225"/>
      <point x="105" y="220"/>
      <point x="144" y="206" type="curve"/>
      <point x="156" y="251"/>
      <point x="172" y="288"/>
      <point x="210" y="288" type="curve"/>
      <point x="238" y="288"/>
      <point x="254" y="278"/>
      <point x="276" y="260" type="curve"/>
      <point x="323" y="220"/>
      <point x="356" y="199"/>
      <point x="419" y="198" type="curve"/>
      <point x="509" y="198"/>
      <point x="546" y="253"/>
      <point x="576" y="339" type="curve"/>
      <point x="537" y="353"/>
      <point x="523" y="358"/>
    </contour>
  </outline>
</glyph>
<glyph name="exclamdown" format="1">
  <advance width="254"/>
  <unicode hex="00A1"/>
  <outline>
    <contour>
      <point x="74" y="301" type="line"/>
      <point x="62" y="-192" type="line"/>
      <point x="193" y="-192" type="line"/>
      <point x="183" y="301" type="line"/>
    </contour>
    <contour>
      <point x="64" y="480" type="curve"/>
      <point x="64" y="440"/>
      <point x="92" y="421"/>
      <point x="129" y="420" type="curve"/>
      <point x="167" y="420"/>
      <point x="193" y="442"/>
      <point x="193" y="479" type="curve"/>
      <point x="66" y="480"/>
      <point x="192" y="479"/>
      <point x="64" y="480" type="curve"/>
      <point x="64" y="521"/>
      <point x="92" y="539"/>
      <point x="130" y="538" type="curve"/>
      <point x="169" y="538"/>
      <point x="193" y="518"/>
      <point x="193" y="479" type="curve"/>
      <point x="66" y="480"/>
      <point x="192" y="479"/>
    </contour>
  </outline>
</glyph>
<glyph name="cent" format="1">
  <advance width="597"/>
  <unicode hex="00A2"/>
  <outline>
    <contour>
      <point x="379" y="-53" type="curve"/>
      <point x="379" y="-13"/>
      <point x="379" y="27"/>
      <point x="379" y="67" type="curve"/>
      <point x="261" y="67"/>
      <point x="379" y="67"/>
      <point x="261" y="67" type="curve"/>
      <point x="261" y="27"/>
      <point x="261" y="-13"/>
      <point x="261" y="-53" type="curve"/>
      <point x="379" y="-53"/>
      <point x="261" y="-53"/>
    </contour>
    <contour>
      <point x="280" y="778" type="curve"/>
      <point x="280" y="742"/>
      <point x="280" y="706"/>
      <point x="280" y="670" type="curve"/>
      <point x="398" y="670"/>
      <point x="280" y="670"/>
      <point x="398" y="670" type="curve"/>
      <point x="398" y="706"/>
      <point x="398" y="742"/>
      <point x="398" y="778" type="curve"/>
      <point x="280" y="778"/>
      <point x="398" y="778"/>
    </contour>
    <contour>
      <point x="561" y="611" type="curve"/>
      <point x="491" y="665"/>
      <point x="432" y="685"/>
      <point x="347" y="685" type="curve"/>
      <point x="154" y="685"/>
      <point x="38" y="560"/>
      <point x="38" y="364" type="curve"/>
      <point x="38" y="176"/>
      <point x="134" y="47"/>
      <point x="314" y="47" type="curve"/>
      <point x="415" y="47"/>
      <point x="484" y="74"/>
      <point x="559" y="144" type="curve"/>
      <point x="491" y="215"/>
      <point x="559" y="144"/>
      <point x="491" y="215" type="curve"/>
      <point x="435" y="170"/>
      <point x="393" y="141"/>
      <point x="325" y="141" type="curve"/>
      <point x="208" y="141"/>
      <point x="156" y="238"/>
      <point x="156" y="369" type="curve"/>
      <point x="156" y="499"/>
      <point x="219" y="591"/>
      <point x="336" y="591" type="curve"/>
      <point x="400" y="591"/>
      <point x="444" y="573"/>
      <point x="498" y="535" type="curve"/>
      <point x="561" y="611"/>
      <point x="498" y="535"/>
    </contour>
  </outline>
</glyph>
<glyph name="sterling" format="1">
  <advance width="466"/>
  <unicode hex="00A3"/>
  <outline>
    <contour>
      <point x="404" y="90" type="curve"/>
      <point x="284" y="90"/>
      <point x="160" y="90"/>
      <point x="41" y="90" type="curve"/>
      <point x="41" y="0"/>
      <point x="41" y="90"/>
      <point x="41" y="0" type="curve"/>
      <point x="160" y="0"/>
      <point x="284" y="0"/>
      <point x="404" y="0" type="curve"/>
      <point x="404" y="90"/>
      <point x="404" y="0"/>
    </contour>
    <contour>
      <point x="358" y="420" type="curve"/>
      <point x="262" y="420"/>
      <point x="161" y="420"/>
      <point x="66" y="420" type="curve"/>
      <point x="66" y="330"/>
      <point x="66" y="420"/>
      <point x="66" y="330" type="curve"/>
      <point x="161" y="330"/>
      <point x="262" y="330"/>
      <point x="358" y="330" type="curve"/>
      <point x="358" y="420"/>
      <point x="358" y="330"/>
    </contour>
    <contour>
      <point x="432" y="664" type="curve"/>
      <point x="387" y="707"/>
      <point x="348" y="721"/>
      <point x="291" y="721" type="curve"/>
      <point x="126" y="721"/>
      <point x="78" y="559"/>
      <point x="117" y="365" type="curve"/>
      <point x="145" y="223"/>
      <point x="137" y="90"/>
      <point x="41" y="90" type="curve"/>
      <point x="41" y="0"/>
      <point x="41" y="90"/>
      <point x="41" y="0" type="curve"/>
      <point x="221" y="0"/>
      <point x="265" y="177"/>
      <point x="225" y="384" type="curve"/>
      <point x="199" y="514"/>
      <point x="205" y="635"/>
      <point x="285" y="635" type="curve"/>
      <point x="322" y="635"/>
      <point x="344" y="620"/>
      <point x="373" y="598" type="curve"/>
      <point x="432" y="664"/>
      <point x="373" y="598"/>
    </contour>
  </outline>
</glyph>
<glyph name="currency" format="1">
  <advance width="627"/>
  <unicode hex="00A4"/>
  <outline>
    <contour>
      <point x="237" y="315" type="curve"/>
      <point x="237" y="370"/>
      <point x="259" y="413"/>
      <point x="311" y="413" type="curve"/>
      <point x="366" y="413"/>
      <point x="388" y="373"/>
      <point x="388" y="315" type="curve"/>
      <point x="388" y="259"/>
      <point x="368" y="211"/>
      <point x="316" y="211" type="curve"/>
      <point x="259" y="211"/>
      <point x="237" y="255"/>
      <point x="237" y="315" type="curve"/>
      <point x="120" y="315"/>
      <point x="242" y="315"/>
      <point x="124" y="315" type="curve"/>
      <point x="124" y="196"/>
      <point x="196" y="122"/>
      <point x="315" y="122" type="curve"/>
      <point x="433" y="122"/>
      <point x="503" y="199"/>
      <point x="503" y="318" type="curve"/>
      <point x="503" y="431"/>
      <point x="434" y="503"/>
      <point x="321" y="503" type="curve"/>
      <point x="201" y="503"/>
      <point x="124" y="433"/>
      <point x="124" y="315" type="curve"/>
      <point x="242" y="315"/>
      <point x="120" y="315"/>
    </contour>
    <contour>
      <point x="421" y="349" type="line"/>
      <point x="579" y="494" type="line"/>
      <point x="492" y="581" type="line"/>
      <point x="346" y="424" type="line"/>
    </contour>
    <contour>
      <point x="350" y="208" type="line"/>
      <point x="496" y="51" type="line"/>
      <point x="582" y="138" type="line"/>
      <point x="425" y="284" type="line"/>
    </contour>
    <contour>
      <point x="202" y="284" type="line"/>
      <point x="45" y="138" type="line"/>
      <point x="131" y="51" type="line"/>
      <point x="277" y="209" type="line"/>
    </contour>
    <contour>
      <point x="282" y="425" type="line"/>
      <point x="137" y="582" type="line"/>
      <point x="50" y="495" type="line"/>
      <point x="207" y="350" type="line"/>
    </contour>
  </outline>
</glyph>
<glyph name="yen" format="1">
  <advance width="609"/>
  <unicode hex="00A5"/>
  <outline>
    <contour>
      <point x="504" y="415" type="curve"/>
      <point x="441" y="415"/>
      <point x="378" y="415"/>
      <point x="316" y="415" type="curve"/>
      <point x="316" y="315"/>
      <point x="316" y="415"/>
      <point x="316" y="315" type="curve"/>
      <point x="378" y="315"/>
      <point x="441" y="315"/>
      <point x="504" y="315" type="curve"/>
      <point x="504" y="415"/>
      <point x="504" y="315"/>
    </contour>
    <contour>
      <point x="290" y="415" type="curve"/>
      <point x="229" y="415"/>
      <point x="167" y="415"/>
      <point x="106" y="415" type="curve"/>
      <point x="106" y="315"/>
      <point x="106" y="415"/>
      <point x="106" y="315" type="curve"/>
      <point x="167" y="315"/>
      <point x="229" y="315"/>
      <point x="290" y="315" type="curve"/>
      <point x="290" y="415"/>
      <point x="290" y="315"/>
    </contour>
    <contour>
      <point x="504" y="272" type="curve"/>
      <point x="371" y="272"/>
      <point x="238" y="272"/>
      <point x="106" y="272" type="curve"/>
      <point x="106" y="173"/>
      <point x="106" y="272"/>
      <point x="106" y="173" type="curve"/>
      <point x="238" y="173"/>
      <point x="371" y="173"/>
      <point x="504" y="173" type="curve"/>
      <point x="504" y="272"/>
      <point x="504" y="173"/>
    </contour>
    <contour>
      <point x="30" y="722" type="curve"/>
      <point x="97" y="597"/>
      <point x="173" y="464"/>
      <point x="240" y="337" type="curve"/>
      <point x="359" y="337"/>
      <point x="227" y="337"/>
      <point x="347" y="337" type="curve"/>
      <point x="282" y="468"/>
      <point x="220" y="592"/>
      <point x="153" y="722" type="curve"/>
      <point x="40" y="722"/>
      <point x="143" y="722"/>
    </contour>
    <contour>
      <point x="463" y="722" type="curve"/>
      <point x="392" y="591"/>
      <point x="325" y="467"/>
      <point x="252" y="337" type="curve"/>
      <point x="372" y="337"/>
      <point x="246" y="337"/>
      <point x="365" y="337" type="curve"/>
      <point x="436" y="464"/>
      <point x="512" y="597"/>
      <point x="584" y="722" type="curve"/>
      <point x="470" y="722"/>
      <point x="577" y="722"/>
    </contour>
    <contour>
      <point x="366" y="0" type="curve"/>
      <point x="366" y="115"/>
      <point x="366" y="226"/>
      <point x="366" y="341" type="curve"/>
      <point x="238" y="341"/>
      <point x="366" y="341"/>
      <point x="238" y="341" type="curve"/>
      <point x="238" y="226"/>
      <point x="238" y="115"/>
      <point x="238" y="0" type="curve"/>
      <point x="366" y="0"/>
      <point x="238" y="0"/>
    </contour>
  </outline>
</glyph>
<glyph name="section" format="1">
  <advance width="486"/>
  <unicode hex="00A7"/>
  <outline>
    <contour>
      <point x="397" y="702" type="curve"/>
      <point x="345" y="734"/>
      <point x="306" y="749"/>
      <point x="248" y="749" type="curve"/>
      <point x="142" y="749"/>
      <point x="71" y="697"/>
      <point x="71" y="601" type="curve"/>
      <point x="71" y="517"/>
      <point x="123" y="469"/>
      <point x="205" y="439" type="curve"/>
      <point x="265" y="418"/>
      <point x="332" y="410"/>
      <point x="332" y="359" type="curve"/>
      <point x="332" y="307"/>
      <point x="296" y="280"/>
      <point x="241" y="269" type="curve"/>
      <point x="310" y="197"/>
      <point x="241" y="269"/>
      <point x="310" y="197" type="curve"/>
      <point x="398" y="219"/>
      <point x="449" y="273"/>
      <point x="449" y="361" type="curve"/>
      <point x="448" y="461"/>
      <point x="363" y="492"/>
      <point x="263" y="525" type="curve"/>
      <point x="221" y="540"/>
      <point x="183" y="559"/>
      <point x="183" y="601" type="curve"/>
      <point x="183" y="636"/>
      <point x="206" y="659"/>
      <point x="245" y="659" type="curve"/>
      <point x="286" y="659"/>
      <point x="308" y="648"/>
      <point x="344" y="628" type="curve"/>
      <point x="397" y="702"/>
      <point x="344" y="628"/>
    </contour>
    <contour>
      <point x="176" y="525" type="curve"/>
      <point x="93" y="498"/>
      <point x="40" y="451"/>
      <point x="40" y="366" type="curve"/>
      <point x="40" y="271"/>
      <point x="111" y="231"/>
      <point x="206" y="200" type="curve"/>
      <point x="256" y="182"/>
      <point x="308" y="170"/>
      <point x="308" y="124" type="curve"/>
      <point x="308" y="87"/>
      <point x="283" y="63"/>
      <point x="244" y="63" type="curve"/>
      <point x="199" y="63"/>
      <point x="172" y="78"/>
      <point x="131" y="104" type="curve"/>
      <point x="70" y="37"/>
      <point x="131" y="104"/>
      <point x="70" y="37" type="curve"/>
      <point x="125" y="-9"/>
      <point x="173" y="-27"/>
      <point x="242" y="-27" type="curve"/>
      <point x="347" y="-27"/>
      <point x="423" y="24"/>
      <point x="423" y="125" type="curve"/>
      <point x="422" y="212"/>
      <point x="365" y="257"/>
      <point x="281" y="285" type="curve"/>
      <point x="221" y="306"/>
      <point x="157" y="316"/>
      <point x="157" y="369" type="curve"/>
      <point x="157" y="416"/>
      <point x="187" y="441"/>
      <point x="234" y="457" type="curve"/>
      <point x="176" y="525"/>
      <point x="234" y="457"/>
    </contour>
  </outline>
</glyph>
<glyph name="dieresis" format="1">
  <advance width="399"/>
  <unicode hex="00A8"/>
  <outline>
    <contour>
      <point x="169" y="649" type="curve"/>
      <point x="169" y="689"/>
      <point x="141" y="709"/>
      <point x="104" y="709" type="curve"/>
      <point x="65" y="709"/>
      <point x="40" y="687"/>
      <point x="40" y="649" type="curve"/>
      <point x="168" y="649"/>
      <point x="42" y="649"/>
      <point x="169" y="649" type="curve"/>
      <point x="169" y="609"/>
      <point x="142" y="591"/>
      <point x="103" y="591" type="curve"/>
      <point x="65" y="591"/>
      <point x="40" y="611"/>
      <point x="40" y="649" type="curve"/>
      <point x="168" y="649"/>
      <point x="42" y="649"/>
    </contour>
    <contour>
      <point x="354" y="649" type="curve"/>
      <point x="354" y="689"/>
      <point x="326" y="709"/>
      <point x="289" y="709" type="curve"/>
      <point x="250" y="709"/>
      <point x="225" y="687"/>
      <point x="225" y="649" type="curve"/>
      <point x="352" y="649"/>
      <point x="227" y="649"/>
      <point x="354" y="649" type="curve"/>
      <point x="354" y="609"/>
      <point x="327" y="591"/>
      <point x="288" y="591" type="curve"/>
      <point x="250" y="591"/>
      <point x="225" y="611"/>
      <point x="225" y="649" type="curve"/>
      <point x="352" y="649"/>
      <point x="227" y="649"/>
    </contour>
    <contour>
      <point x="197" y="595" type="move" name="_top"/>
    </contour>
  </outline>
</glyph>
<glyph name="copyright" format="1">
  <advance width="724"/>
  <unicode hex="00A9"/>
  <outline>
    <contour>
      <point x="138" y="323" type="curve"/>
      <point x="138" y="469"/>
      <point x="223" y="572"/>
      <point x="364" y="572" type="curve"/>
      <point x="502" y="572"/>
      <point x="585" y="466"/>
      <point x="585" y="321" type="curve"/>
      <point x="585" y="181"/>
      <point x="505" y="76"/>
      <point x="371" y="76" type="curve"/>
      <point x="230" y="76"/>
      <point x="138" y="177"/>
      <point x="138" y="323" type="curve"/>
      <point x="42" y="323"/>
      <point x="139" y="323"/>
      <point x="44" y="323" type="curve"/>
      <point x="44" y="132"/>
      <point x="174" y="4"/>
      <point x="367" y="4" type="curve"/>
      <point x="554" y="4"/>
      <point x="677" y="135"/>
      <point x="677" y="324" type="curve"/>
      <point x="677" y="515"/>
      <point x="552" y="645"/>
      <point x="364" y="645" type="curve"/>
      <point x="173" y="645"/>
      <point x="44" y="516"/>
      <point x="44" y="323" type="curve"/>
      <point x="139" y="323"/>
      <point x="42" y="323"/>
    </contour>
    <contour>
      <point x="502" y="448" type="curve"/>
      <point x="466" y="491"/>
      <point x="422" y="509"/>
      <point x="370" y="509" type="curve"/>
      <point x="256" y="509"/>
      <point x="191" y="437"/>
      <point x="191" y="322" type="curve"/>
      <point x="191" y="211"/>
      <point x="248" y="140"/>
      <point x="356" y="140" type="curve"/>
      <point x="415" y="140"/>
      <point x="457" y="151"/>
      <point x="501" y="198" type="curve"/>
      <point x="447" y="246"/>
      <point x="501" y="198"/>
      <point x="447" y="246" type="curve"/>
      <point x="418" y="224"/>
      <point x="394" y="213"/>
      <point x="360" y="213" type="curve"/>
      <point x="301" y="213"/>
      <point x="281" y="262"/>
      <point x="281" y="325" type="curve"/>
      <point x="281" y="390"/>
      <point x="305" y="436"/>
      <point x="366" y="436" type="curve"/>
      <point x="392" y="436"/>
      <point x="416" y="429"/>
      <point x="442" y="409" type="curve"/>
      <point x="506" y="450"/>
      <point x="437" y="407"/>
    </contour>
  </outline>
</glyph>
<glyph name="ordfeminine" format="1">
  <advance width="381"/>
  <unicode hex="00AA"/>
  <outline>
    <contour>
      <point x="322" y="426" type="curve"/>
      <point x="322" y="509"/>
      <point x="322" y="585"/>
      <point x="322" y="668" type="curve"/>
      <point x="322" y="744"/>
      <point x="266" y="773"/>
      <point x="189" y="773" type="curve"/>
      <point x="132" y="773"/>
      <point x="91" y="752"/>
      <point x="59" y="723" type="curve"/>
      <point x="87" y="675"/>
      <point x="62" y="720"/>
      <point x="91" y="671" type="curve"/>
      <point x="111" y="690"/>
      <point x="138" y="710"/>
      <point x="178" y="710" type="curve"/>
      <point x="217" y="710"/>
      <point x="244" y="694"/>
      <point x="244" y="657" type="curve"/>
      <point x="244" y="577"/>
      <point x="244" y="505"/>
      <point x="244" y="426" type="curve"/>
      <point x="319" y="426"/>
      <point x="248" y="426"/>
    </contour>
    <contour>
      <point x="281" y="647" type="curve"/>
      <point x="237" y="642"/>
      <point x="209" y="640"/>
      <point x="165" y="634" type="curve"/>
      <point x="92" y="624"/>
      <point x="41" y="598"/>
      <point x="41" y="529" type="curve"/>
      <point x="41" y="459"/>
      <point x="84" y="422"/>
      <point x="156" y="422" type="curve"/>
      <point x="226" y="422"/>
      <point x="258" y="470"/>
      <point x="302" y="521" type="curve"/>
      <point x="265" y="552"/>
      <point x="300" y="523"/>
      <point x="263" y="554" type="curve"/>
      <point x="239" y="515"/>
      <point x="217" y="483"/>
      <point x="173" y="483" type="curve"/>
      <point x="137" y="483"/>
      <point x="118" y="499"/>
      <point x="118" y="531" type="curve"/>
      <point x="118" y="560"/>
      <point x="139" y="575"/>
      <point x="166" y="579" type="curve"/>
      <point x="213" y="585"/>
      <point x="237" y="589"/>
      <point x="285" y="596" type="curve"/>
      <point x="281" y="644"/>
      <point x="284" y="599"/>
    </contour>
  </outline>
</glyph>
<glyph name="guillemotleft" format="1">
  <advance width="505"/>
  <unicode hex="00AB"/>
  <outline>
    <contour>
      <point x="233" y="466" type="curve"/>
      <point x="195" y="439"/>
      <point x="77" y="366"/>
      <point x="38" y="340" type="curve"/>
      <point x="38" y="240"/>
      <point x="38" y="329"/>
      <point x="38" y="229" type="curve"/>
      <point x="77" y="256"/>
      <point x="195" y="335"/>
      <point x="233" y="361" type="curve"/>
      <point x="233" y="460"/>
      <point x="233" y="367"/>
    </contour>
    <contour>
      <point x="233" y="210" type="curve"/>
      <point x="195" y="236"/>
      <point x="77" y="313"/>
      <point x="38" y="340" type="curve"/>
      <point x="38" y="240"/>
      <point x="38" y="329"/>
      <point x="38" y="229" type="curve"/>
      <point x="77" y="203"/>
      <point x="195" y="131"/>
      <point x="233" y="105" type="curve"/>
      <point x="233" y="204"/>
      <point x="233" y="111"/>
    </contour>
    <contour>
      <point x="444" y="466" type="curve"/>
      <point x="406" y="439"/>
      <point x="288" y="366"/>
      <point x="249" y="340" type="curve"/>
      <point x="249" y="240"/>
      <point x="249" y="329"/>
      <point x="249" y="229" type="curve"/>
      <point x="288" y="256"/>
      <point x="406" y="335"/>
      <point x="444" y="361" type="curve"/>
      <point x="444" y="460"/>
      <point x="444" y="367"/>
    </contour>
    <contour>
      <point x="444" y="210" type="curve"/>
      <point x="406" y="236"/>
      <point x="288" y="313"/>
      <point x="249" y="340" type="curve"/>
      <point x="249" y="240"/>
      <point x="249" y="329"/>
      <point x="249" y="229" type="curve"/>
      <point x="288" y="203"/>
      <point x="406" y="131"/>
      <point x="444" y="105" type="curve"/>
      <point x="444" y="204"/>
      <point x="444" y="111"/>
    </contour>
  </outline>
</glyph>
<glyph name="logicalnot" format="1">
  <advance width="587"/>
  <unicode hex="00AC"/>
  <outline>
    <contour>
      <point x="62" y="264" type="curve"/>
      <point x="522" y="264" type="line"/>
      <point x="522" y="363"/>
      <point x="522" y="264"/>
      <point x="522" y="363" type="curve"/>
      <point x="62" y="363" type="line"/>
      <point x="62" y="264"/>
      <point x="62" y="363"/>
    </contour>
    <contour>
      <point x="522" y="142" type="curve"/>
      <point x="522" y="363" type="line"/>
      <point x="404" y="363"/>
      <point x="524" y="363"/>
      <point x="407" y="363" type="curve"/>
      <point x="407" y="142" type="line"/>
      <point x="524" y="142"/>
      <point x="404" y="142"/>
    </contour>
  </outline>
</glyph>
<glyph name="registered" format="1">
  <advance width="734"/>
  <unicode hex="00AE"/>
  <outline>
    <contour>
      <point x="129" y="322" type="curve"/>
      <point x="129" y="478"/>
      <point x="219" y="578"/>
      <point x="370" y="578" type="curve"/>
      <point x="520" y="578"/>
      <point x="606" y="475"/>
      <point x="606" y="320" type="curve"/>
      <point x="606" y="169"/>
      <point x="523" y="68"/>
      <point x="378" y="68" type="curve"/>
      <point x="224" y="68"/>
      <point x="129" y="165"/>
      <point x="129" y="322" type="curve"/>
      <point x="95" y="322"/>
      <point x="81" y="322"/>
      <point x="47" y="322" type="curve"/>
      <point x="47" y="123"/>
      <point x="174" y="2"/>
      <point x="374" y="2" type="curve"/>
      <point x="568" y="2"/>
      <point x="687" y="127"/>
      <point x="687" y="323" type="curve"/>
      <point x="687" y="521"/>
      <point x="566" y="644"/>
      <point x="370" y="644" type="curve"/>
      <point x="172" y="644"/>
      <point x="47" y="522"/>
      <point x="47" y="322" type="curve"/>
      <point x="81" y="322"/>
      <point x="95" y="322"/>
    </contour>
    <contour>
      <point x="338" y="317" type="curve"/>
      <point x="352" y="296"/>
      <point x="414" y="164"/>
      <point x="428" y="143" type="curve"/>
      <point x="476" y="143"/>
      <point x="462" y="143"/>
      <point x="514" y="143" type="curve"/>
      <point x="500" y="164"/>
      <point x="438" y="290"/>
      <point x="425" y="312" type="curve"/>
      <point x="320" y="312"/>
      <point x="444" y="317"/>
    </contour>
    <contour>
      <point x="341" y="143" type="curve"/>
      <point x="341" y="246"/>
      <point x="341" y="400"/>
      <point x="341" y="504" type="curve"/>
      <point x="286" y="504"/>
      <point x="312" y="505"/>
      <point x="253" y="505" type="curve"/>
      <point x="253" y="401"/>
      <point x="253" y="246"/>
      <point x="253" y="143" type="curve"/>
      <point x="311" y="143"/>
      <point x="278" y="143"/>
    </contour>
    <contour>
      <point x="302" y="275" type="curve"/>
      <point x="319" y="275"/>
      <point x="336" y="275"/>
      <point x="353" y="275" type="curve"/>
      <point x="439" y="275"/>
      <point x="497" y="308"/>
      <point x="497" y="392" type="curve"/>
      <point x="497" y="464"/>
      <point x="446" y="505"/>
      <point x="372" y="505" type="curve"/>
      <point x="364" y="505"/>
      <point x="293" y="505"/>
      <point x="285" y="505" type="curve"/>
      <point x="253" y="454"/>
      <point x="348" y="505"/>
      <point x="253" y="431" type="curve"/>
      <point x="287" y="431"/>
      <point x="321" y="431"/>
      <point x="355" y="431" type="curve"/>
      <point x="387" y="431"/>
      <point x="410" y="419"/>
      <point x="410" y="388" type="curve"/>
      <point x="410" y="361"/>
      <point x="393" y="348"/>
      <point x="366" y="348" type="curve"/>
      <point x="345" y="348"/>
      <point x="323" y="348"/>
      <point x="302" y="348" type="curve"/>
      <point x="302" y="275"/>
      <point x="302" y="348"/>
    </contour>
  </outline>
</glyph>
<glyph name="macron" format="1">
  <advance width="314"/>
  <unicode hex="00AF"/>
  <outline>
    <contour>
      <point x="228" y="678" type="curve"/>
      <point x="162" y="678"/>
      <point x="94" y="678"/>
      <point x="28" y="678" type="curve"/>
      <point x="28" y="588"/>
      <point x="28" y="678"/>
      <point x="28" y="588" type="curve"/>
      <point x="94" y="588"/>
      <point x="162" y="588"/>
      <point x="228" y="588" type="curve"/>
      <point x="228" y="678"/>
      <point x="228" y="588"/>
    </contour>
    <contour>
      <point x="129" y="588" type="move" name="_top"/>
    </contour>
  </outline>
</glyph>
<glyph name="degree" format="1">
  <advance width="438"/>
  <unicode hex="00B0"/>
  <outline>
    <contour>
      <point x="399" y="549" type="curve"/>
      <point x="399" y="664"/>
      <point x="332" y="736"/>
      <point x="219" y="736" type="curve"/>
      <point x="106" y="736"/>
      <point x="40" y="664"/>
      <point x="40" y="550" type="curve"/>
      <point x="98" y="550"/>
      <point x="80" y="550"/>
      <point x="138" y="550" type="curve"/>
      <point x="138" y="609"/>
      <point x="162" y="653"/>
      <point x="217" y="653" type="curve"/>
      <point x="273" y="653"/>
      <point x="298" y="609"/>
      <point x="298" y="549" type="curve"/>
      <point x="298" y="489"/>
      <point x="276" y="443"/>
      <point x="220" y="443" type="curve"/>
      <point x="162" y="443"/>
      <point x="138" y="489"/>
      <point x="138" y="550" type="curve"/>
      <point x="80" y="550"/>
      <point x="98" y="550"/>
      <point x="40" y="550" type="curve"/>
      <point x="40" y="435"/>
      <point x="105" y="359"/>
      <point x="218" y="359" type="curve"/>
      <point x="333" y="359"/>
      <point x="399" y="434"/>
    </contour>
  </outline>
</glyph>
<glyph name="plusminus" format="1">
  <advance width="639"/>
  <unicode hex="00B1"/>
  <outline>
    <contour>
      <point x="51" y="39" type="line"/>
      <point x="589" y="39" type="line"/>
      <point x="589" y="138" type="line"/>
      <point x="51" y="138" type="line"/>
    </contour>
    <contour>
      <point x="51" y="264" type="curve"/>
      <point x="589" y="264" type="line"/>
      <point x="589" y="363"/>
      <point x="589" y="264"/>
      <point x="589" y="363" type="curve"/>
      <point x="51" y="363" type="line"/>
      <point x="51" y="264"/>
      <point x="51" y="363"/>
    </contour>
    <contour>
      <point x="375" y="40" type="curve"/>
      <point x="375" y="582" type="line"/>
      <point x="258" y="582"/>
      <point x="383" y="582"/>
      <point x="265" y="582" type="curve"/>
      <point x="265" y="40" type="line"/>
      <point x="383" y="40"/>
      <point x="258" y="40"/>
    </contour>
  </outline>
</glyph>
<glyph name="twosuperior" format="1">
  <advance width="427"/>
  <unicode hex="00B2"/>
  <outline>
    <contour>
      <point x="42" y="341" type="curve"/>
      <point x="162" y="341"/>
      <point x="281" y="341"/>
      <point x="378" y="341" type="curve"/>
      <point x="378" y="382"/>
      <point x="378" y="376"/>
      <point x="378" y="419" type="curve"/>
      <point x="272" y="419"/>
      <point x="148" y="419"/>
      <point x="42" y="419" type="curve"/>
      <point x="42" y="341"/>
      <point x="42" y="419"/>
    </contour>
    <contour>
      <point x="130" y="639" type="curve"/>
      <point x="148" y="672"/>
      <point x="167" y="696"/>
      <point x="203" y="696" type="curve"/>
      <point x="240" y="696"/>
      <point x="262" y="672"/>
      <point x="262" y="635" type="curve"/>
      <point x="262" y="597"/>
      <point x="237" y="577"/>
      <point x="209" y="551" type="curve"/>
      <point x="154" y="507"/>
      <point x="98" y="463"/>
      <point x="42" y="419" type="curve"/>
      <point x="45" y="342"/>
      <point x="43" y="419"/>
      <point x="46" y="342" type="curve"/>
      <point x="124" y="395"/>
      <point x="209" y="441"/>
      <point x="269" y="490" type="curve"/>
      <point x="320" y="536"/>
      <point x="360" y="571"/>
      <point x="360" y="639" type="curve"/>
      <point x="360" y="725"/>
      <point x="299" y="773"/>
      <point x="210" y="773" type="curve"/>
      <point x="139" y="773"/>
      <point x="87" y="746"/>
      <point x="59" y="672" type="curve"/>
      <point x="130" y="639"/>
      <point x="59" y="672"/>
    </contour>
    <contour>
      <point x="213" y="773" type="move" name="_top"/>
    </contour>
    <contour>
      <point x="206" y="341" type="move" name="_bottom"/>
    </contour>
  </outline>
</glyph>
<glyph name="threesuperior" format="1">
  <advance width="379"/>
  <unicode hex="00B3"/>
  <outline>
    <contour>
      <point x="95" y="660" type="curve"/>
      <point x="116" y="680"/>
      <point x="138" y="694"/>
      <point x="163" y="694" type="curve"/>
      <point x="199" y="694"/>
      <point x="222" y="676"/>
      <point x="222" y="643" type="curve"/>
      <point x="222" y="603"/>
      <point x="175" y="592"/>
      <point x="126" y="589" type="curve"/>
      <point x="126" y="523"/>
      <point x="126" y="589"/>
      <point x="126" y="523" type="curve"/>
      <point x="234" y="526"/>
      <point x="323" y="555"/>
      <point x="323" y="649" type="curve"/>
      <point x="323" y="732"/>
      <point x="261" y="771"/>
      <point x="173" y="771" type="curve"/>
      <point x="121" y="771"/>
      <point x="73" y="748"/>
      <point x="41" y="712" type="curve"/>
      <point x="95" y="660"/>
      <point x="41" y="712"/>
    </contour>
    <contour>
      <point x="39" y="371" type="curve"/>
      <point x="75" y="348"/>
      <point x="112" y="334"/>
      <point x="155" y="334" type="curve"/>
      <point x="262" y="332"/>
      <point x="339" y="370"/>
      <point x="337" y="466" type="curve"/>
      <point x="337" y="564"/>
      <point x="238" y="577"/>
      <point x="126" y="580" type="curve"/>
      <point x="126" y="522"/>
      <point x="126" y="580"/>
      <point x="126" y="522" type="curve"/>
      <point x="185" y="519"/>
      <point x="235" y="506"/>
      <point x="235" y="463" type="curve"/>
      <point x="235" y="426"/>
      <point x="206" y="408"/>
      <point x="165" y="409" type="curve"/>
      <point x="138" y="409"/>
      <point x="113" y="415"/>
      <point x="86" y="430" type="curve"/>
      <point x="39" y="371"/>
      <point x="86" y="430"/>
    </contour>
    <contour>
      <point x="185" y="771" type="move" name="_top"/>
    </contour>
    <contour>
      <point x="179" y="334" type="move" name="_bottom"/>
    </contour>
  </outline>
</glyph>
<glyph name="paragraph" format="1">
  <advance width="741"/>
  <unicode hex="00B6"/>
  <outline>
    <contour>
      <point x="412" y="632" type="curve"/>
      <point x="563" y="632"/>
      <point x="412" y="632"/>
      <point x="563" y="632" type="curve"/>
      <point x="563" y="722"/>
      <point x="563" y="632"/>
      <point x="563" y="722" type="curve"/>
      <point x="512" y="722"/>
      <point x="461" y="722"/>
      <point x="412" y="722" type="curve"/>
      <point x="412" y="632"/>
      <point x="412" y="722"/>
    </contour>
    <contour>
      <point x="391" y="379" type="curve"/>
      <point x="349" y="357"/>
      <point x="316" y="344"/>
      <point x="267" y="344" type="curve"/>
      <point x="191" y="344"/>
      <point x="148" y="398"/>
      <point x="148" y="478" type="curve"/>
      <point x="148" y="573"/>
      <point x="209" y="632"/>
      <point x="304" y="632" type="curve"/>
      <point x="339" y="632"/>
      <point x="374" y="632"/>
      <point x="408" y="632" type="curve"/>
      <point x="408" y="722"/>
      <point x="408" y="632"/>
      <point x="408" y="722" type="curve"/>
      <point x="369" y="722"/>
      <point x="328" y="722"/>
      <point x="288" y="722" type="curve"/>
      <point x="135" y="722"/>
      <point x="31" y="632"/>
      <point x="31" y="482" type="curve"/>
      <point x="31" y="338"/>
      <point x="131" y="259"/>
      <point x="278" y="257" type="curve"/>
      <point x="334" y="257"/>
      <point x="380" y="277"/>
      <point x="428" y="302" type="curve"/>
      <point x="391" y="379"/>
      <point x="428" y="304"/>
    </contour>
    <contour>
      <point x="471" y="0" type="curve"/>
      <point x="471" y="241"/>
      <point x="471" y="481"/>
      <point x="471" y="722" type="curve"/>
      <point x="354" y="722"/>
      <point x="471" y="722"/>
      <point x="354" y="722" type="curve"/>
      <point x="354" y="481"/>
      <point x="354" y="241"/>
      <point x="354" y="0" type="curve"/>
      <point x="471" y="0"/>
      <point x="354" y="0"/>
    </contour>
    <contour>
      <point x="673" y="0" type="curve"/>
      <point x="673" y="241"/>
      <point x="673" y="481"/>
      <point x="673" y="722" type="curve"/>
      <point x="555" y="722"/>
      <point x="673" y="722"/>
      <point x="555" y="722" type="curve"/>
      <point x="555" y="481"/>
      <point x="555" y="241"/>
      <point x="555" y="0" type="curve"/>
      <point x="673" y="0"/>
      <point x="555" y="0"/>
    </contour>
  </outline>
</glyph>
<glyph name="periodcentered" format="1">
  <advance width="225"/>
  <unicode hex="00B7"/>
  <outline>
    <contour>
      <point x="177" y="440" type="curve"/>
      <point x="177" y="480"/>
      <point x="149" y="499"/>
      <point x="111" y="499" type="curve"/>
      <point x="73" y="499"/>
      <point x="48" y="478"/>
      <point x="48" y="440" type="curve"/>
      <point x="175" y="440"/>
      <point x="50" y="440"/>
      <point x="177" y="440" type="curve"/>
      <point x="177" y="399"/>
      <point x="150" y="381"/>
      <point x="111" y="381" type="curve"/>
      <point x="72" y="381"/>
      <point x="48" y="401"/>
      <point x="48" y="440" type="curve"/>
      <point x="175" y="440"/>
      <point x="50" y="440"/>
    </contour>
  </outline>
</glyph>
<glyph name="cedilla" format="1">
  <advance width="306"/>
  <unicode hex="00B8"/>
  <outline>
    <contour>
      <point x="129" y="133" type="curve"/>
      <point x="117" y="111"/>
      <point x="75" y="29"/>
      <point x="63" y="6" type="curve"/>
      <point x="143" y="-66"/>
      <point x="63" y="6"/>
      <point x="143" y="-66" type="curve"/>
      <point x="157" y="-39"/>
      <point x="205" y="44"/>
      <point x="219" y="70" type="curve"/>
      <point x="129" y="133"/>
      <point x="219" y="70"/>
    </contour>
    <contour>
      <point x="143" y="-66" type="curve"/>
      <point x="150" y="-61"/>
      <point x="155" y="-57"/>
      <point x="163" y="-57" type="curve"/>
      <point x="176" y="-57"/>
      <point x="184" y="-65"/>
      <point x="184" y="-79" type="curve"/>
      <point x="184" y="-98"/>
      <point x="169" y="-105"/>
      <point x="149" y="-105" type="curve"/>
      <point x="128" y="-105"/>
      <point x="111" y="-100"/>
      <point x="90" y="-89" type="curve"/>
      <point x="49" y="-155"/>
      <point x="90" y="-89"/>
      <point x="49" y="-155" type="curve"/>
      <point x="79" y="-174"/>
      <point x="107" y="-182"/>
      <point x="144" y="-182" type="curve"/>
      <point x="216" y="-182"/>
      <point x="267" y="-148"/>
      <point x="267" y="-77" type="curve"/>
      <point x="267" y="-11"/>
      <point x="224" y="29"/>
      <point x="157" y="29" type="curve"/>
      <point x="121" y="29"/>
      <point x="95" y="23"/>
      <point x="63" y="6" type="curve"/>
      <point x="143" y="-66"/>
      <point x="63" y="6"/>
    </contour>
    <contour>
      <point x="209" y="70" type="move" name="_bottom"/>
    </contour>
  </outline>
</glyph>
<glyph name="onesuperior" format="1">
  <advance width="285"/>
  <unicode hex="00B9"/>
  <outline>
    <contour>
      <point x="66" y="610" type="line"/>
      <point x="221" y="761" type="line"/>
      <point x="120" y="764" type="line"/>
      <point x="13" y="667" type="line"/>
    </contour>
    <contour>
      <point x="221" y="341" type="curve"/>
      <point x="221" y="764" type="line"/>
      <point x="120" y="764" type="line"/>
      <point x="120" y="341" type="line"/>
      <point x="188" y="341"/>
      <point x="148" y="341"/>
    </contour>
    <contour>
      <point x="161" y="763" type="move" name="_top"/>
    </contour>
    <contour>
      <point x="171" y="342" type="move" name="_bottom"/>
    </contour>
  </outline>
</glyph>
<glyph name="ordmasculine" format="1">
  <advance width="398"/>
  <unicode hex="00BA"/>
  <outline>
    <contour>
      <point x="113" y="599" type="curve"/>
      <point x="113" y="661"/>
      <point x="136" y="710"/>
      <point x="196" y="710" type="curve"/>
      <point x="257" y="710"/>
      <point x="282" y="661"/>
      <point x="282" y="598" type="curve"/>
      <point x="282" y="531"/>
      <point x="259" y="483"/>
      <point x="202" y="483" type="curve"/>
      <point x="137" y="483"/>
      <point x="113" y="531"/>
      <point x="113" y="599" type="curve"/>
      <point x="86" y="599"/>
      <point x="64" y="599"/>
      <point x="38" y="599" type="curve"/>
      <point x="38" y="490"/>
      <point x="94" y="421"/>
      <point x="199" y="421" type="curve"/>
      <point x="302" y="421"/>
      <point x="361" y="489"/>
      <point x="361" y="598" type="curve"/>
      <point x="361" y="704"/>
      <point x="304" y="772"/>
      <point x="200" y="772" type="curve"/>
      <point x="94" y="772"/>
      <point x="38" y="704"/>
      <point x="38" y="599" type="curve"/>
      <point x="64" y="599"/>
      <point x="86" y="599"/>
    </contour>
  </outline>
</glyph>
<glyph name="guillemotright" format="1">
  <advance width="507"/>
  <unicode hex="00BB"/>
  <outline>
    <contour>
      <point x="273" y="466" type="curve"/>
      <point x="311" y="439"/>
      <point x="429" y="366"/>
      <point x="468" y="340" type="curve"/>
      <point x="468" y="240"/>
      <point x="468" y="329"/>
      <point x="468" y="229" type="curve"/>
      <point x="429" y="256"/>
      <point x="311" y="335"/>
      <point x="273" y="361" type="curve"/>
      <point x="273" y="460"/>
      <point x="273" y="367"/>
    </contour>
    <contour>
      <point x="273" y="210" type="curve"/>
      <point x="311" y="236"/>
      <point x="429" y="313"/>
      <point x="468" y="340" type="curve"/>
      <point x="468" y="240"/>
      <point x="468" y="329"/>
      <point x="468" y="229" type="curve"/>
      <point x="429" y="203"/>
      <point x="311" y="131"/>
      <point x="273" y="105" type="curve"/>
      <point x="273" y="204"/>
      <point x="273" y="111"/>
    </contour>
    <contour>
      <point x="62" y="466" type="curve"/>
      <point x="101" y="439"/>
      <point x="218" y="366"/>
      <point x="257" y="340" type="curve"/>
      <point x="257" y="240"/>
      <point x="257" y="329"/>
      <point x="257" y="229" type="curve"/>
      <point x="218" y="256"/>
      <point x="101" y="335"/>
      <point x="62" y="361" type="curve"/>
      <point x="62" y="460"/>
      <point x="62" y="367"/>
    </contour>
    <contour>
      <point x="62" y="210" type="curve"/>
      <point x="100" y="236"/>
      <point x="218" y="313"/>
      <point x="257" y="340" type="curve"/>
      <point x="257" y="240"/>
      <point x="257" y="329"/>
      <point x="257" y="229" type="curve"/>
      <point x="218" y="203"/>
      <point x="100" y="131"/>
      <point x="62" y="105" type="curve"/>
      <point x="62" y="204"/>
      <point x="62" y="111"/>
    </contour>
  </outline>
</glyph>
<glyph name="onequarter" format="1">
  <advance width="909"/>
  <unicode hex="00BC"/>
  <outline>
    <contour>
      <point x="318" y="-48" type="line"/>
      <point x="698" y="718" type="line"/>
      <point x="589" y="718" type="line"/>
      <point x="210" y="-48" type="line"/>
    </contour>
    <contour>
      <point x="77" y="565" type="line"/>
      <point x="232" y="717" type="line"/>
      <point x="131" y="719" type="line"/>
      <point x="24" y="622" type="line"/>
    </contour>
    <contour>
      <point x="233" y="297" type="curve"/>
      <point x="233" y="719" type="line"/>
      <point x="131" y="719" type="line"/>
      <point x="131" y="297" type="line"/>
      <point x="200" y="297"/>
      <point x="159" y="297"/>
    </contour>
    <contour>
      <point x="876" y="146" type="line"/>
      <point x="526" y="146" type="line"/>
      <point x="526" y="70" type="line"/>
      <point x="876" y="70" type="line"/>
    </contour>
    <contour>
      <point x="559" y="76" type="line"/>
      <point x="780" y="376" type="line"/>
      <point x="704" y="391" type="line"/>
      <point x="526" y="146" type="line"/>
    </contour>
    <contour>
      <point x="806" y="-46" type="line"/>
      <point x="806" y="391" type="line"/>
      <point x="704" y="391" type="line"/>
      <point x="704" y="-46" type="line"/>
    </contour>
  </outline>
</glyph>
<glyph name="onehalf" format="1">
  <advance width="983"/>
  <unicode hex="00BD"/>
  <outline>
    <contour>
      <point x="344" y="-48" type="line"/>
      <point x="723" y="718" type="line"/>
      <point x="615" y="718" type="line"/>
      <point x="235" y="-48" type="line"/>
    </contour>
    <contour>
      <point x="77" y="565" type="line"/>
      <point x="232" y="717" type="line"/>
      <point x="131" y="719" type="line"/>
      <point x="24" y="622" type="line"/>
    </contour>
    <contour>
      <point x="233" y="297" type="curve"/>
      <point x="233" y="719" type="line"/>
      <point x="131" y="719" type="line"/>
      <point x="131" y="297" type="line"/>
      <point x="200" y="297"/>
      <point x="159" y="297"/>
    </contour>
    <contour>
      <point x="611" y="-47" type="curve"/>
      <point x="731" y="-47"/>
      <point x="849" y="-47"/>
      <point x="947" y="-47" type="curve"/>
      <point x="947" y="-6"/>
      <point x="947" y="-12"/>
      <point x="947" y="31" type="curve"/>
      <point x="841" y="31"/>
      <point x="717" y="31"/>
      <point x="611" y="31" type="curve"/>
      <point x="611" y="-47"/>
      <point x="611" y="31"/>
    </contour>
    <contour>
      <point x="699" y="251" type="curve"/>
      <point x="716" y="283"/>
      <point x="735" y="307"/>
      <point x="772" y="307" type="curve"/>
      <point x="809" y="307"/>
      <point x="830" y="284"/>
      <point x="830" y="247" type="curve"/>
      <point x="830" y="209"/>
      <point x="805" y="189"/>
      <point x="778" y="163" type="curve"/>
      <point x="722" y="119"/>
      <point x="666" y="75"/>
      <point x="611" y="31" type="curve"/>
      <point x="613" y="-46"/>
      <point x="612" y="31"/>
      <point x="614" y="-46" type="curve"/>
      <point x="692" y="6"/>
      <point x="777" y="53"/>
      <point x="838" y="102" type="curve"/>
      <point x="888" y="148"/>
      <point x="929" y="183"/>
      <point x="929" y="251" type="curve"/>
      <point x="929" y="337"/>
      <point x="868" y="385"/>
      <point x="779" y="385" type="curve"/>
      <point x="707" y="385"/>
      <point x="655" y="358"/>
      <point x="627" y="284" type="curve"/>
      <point x="699" y="251"/>
      <point x="627" y="284"/>
    </contour>
  </outline>
</glyph>
<glyph name="threequarters" format="1">
  <advance width="935"/>
  <unicode hex="00BE"/>
  <outline>
    <contour>
      <point x="352" y="-48" type="line"/>
      <point x="732" y="718" type="line"/>
      <point x="623" y="718" type="line"/>
      <point x="244" y="-48" type="line"/>
    </contour>
    <contour>
      <point x="91" y="607" type="curve"/>
      <point x="112" y="627"/>
      <point x="134" y="641"/>
      <point x="159" y="641" type="curve"/>
      <point x="195" y="641"/>
      <point x="218" y="624"/>
      <point x="218" y="590" type="curve"/>
      <point x="218" y="551"/>
      <point x="171" y="539"/>
      <point x="123" y="536" type="curve"/>
      <point x="123" y="470"/>
      <point x="123" y="536"/>
      <point x="123" y="470" type="curve"/>
      <point x="230" y="473"/>
      <point x="320" y="502"/>
      <point x="320" y="596" type="curve"/>
      <point x="320" y="679"/>
      <point x="258" y="718"/>
      <point x="170" y="718" type="curve"/>
      <point x="117" y="718"/>
      <point x="70" y="695"/>
      <point x="37" y="659" type="curve"/>
      <point x="91" y="607"/>
      <point x="37" y="659"/>
    </contour>
    <contour>
      <point x="35" y="318" type="curve"/>
      <point x="72" y="295"/>
      <point x="109" y="281"/>
      <point x="152" y="281" type="curve"/>
      <point x="258" y="279"/>
      <point x="335" y="317"/>
      <point x="334" y="413" type="curve"/>
      <point x="334" y="511"/>
      <point x="234" y="524"/>
      <point x="123" y="527" type="curve"/>
      <point x="123" y="469"/>
      <point x="123" y="527"/>
      <point x="123" y="469" type="curve"/>
      <point x="181" y="466"/>
      <point x="232" y="453"/>
      <point x="232" y="410" type="curve"/>
      <point x="232" y="373"/>
      <point x="202" y="355"/>
      <point x="161" y="356" type="curve"/>
      <point x="135" y="356"/>
      <point x="109" y="363"/>
      <point x="82" y="377" type="curve"/>
      <point x="35" y="318"/>
      <point x="82" y="377"/>
    </contour>
    <contour>
      <point x="907" y="146" type="line"/>
      <point x="556" y="146" type="line"/>
      <point x="556" y="70" type="line"/>
      <point x="907" y="70" type="line"/>
    </contour>
    <contour>
      <point x="589" y="76" type="line"/>
      <point x="810" y="376" type="line"/>
      <point x="735" y="391" type="line"/>
      <point x="556" y="146" type="line"/>
    </contour>
    <contour>
      <point x="836" y="-46" type="line"/>
      <point x="836" y="391" type="line"/>
      <point x="735" y="391" type="line"/>
      <point x="735" y="-46" type="line"/>
    </contour>
  </outline>
</glyph>
<glyph name="questiondown" format="1">
  <advance width="499"/>
  <unicode hex="00BF"/>
  <outline>
    <contour>
      <point x="317" y="357" type="curve"/>
      <point x="317" y="394"/>
      <point x="317" y="469"/>
      <point x="317" y="506" type="curve"/>
      <point x="207" y="506"/>
      <point x="317" y="506"/>
      <point x="207" y="506" type="curve"/>
      <point x="207" y="469"/>
      <point x="207" y="394"/>
      <point x="207" y="357" type="curve"/>
      <point x="317" y="357"/>
      <point x="207" y="357"/>
    </contour>
    <contour>
      <point x="396" y="140" type="line"/>
      <point x="364" y="104"/>
      <point x="324" y="79"/>
      <point x="271" y="79" type="curve"/>
      <point x="193" y="79"/>
      <point x="147" y="130"/>
      <point x="147" y="208" type="curve"/>
      <point x="147" y="299"/>
      <point x="208" y="357"/>
      <point x="305" y="357" type="curve"/>
      <point x="305" y="392"/>
      <point x="306" y="410"/>
      <point x="306" y="445" type="curve"/>
      <point x="144" y="445"/>
      <point x="35" y="356"/>
      <point x="35" y="208" type="curve"/>
      <point x="35" y="68"/>
      <point x="128" y="-16"/>
      <point x="265" y="-16" type="curve"/>
      <point x="348" y="-16"/>
      <point x="410" y="13"/>
      <point x="458" y="68" type="curve"/>
    </contour>
    <contour>
      <point x="197" y="686" type="curve"/>
      <point x="197" y="646"/>
      <point x="225" y="627"/>
      <point x="262" y="627" type="curve"/>
      <point x="300" y="627"/>
      <point x="325" y="648"/>
      <point x="325" y="686" type="curve"/>
      <point x="197" y="686"/>
      <point x="325" y="686"/>
      <point x="197" y="686" type="curve"/>
      <point x="197" y="726"/>
      <point x="224" y="744"/>
      <point x="262" y="744" type="curve"/>
      <point x="301" y="744"/>
      <point x="325" y="724"/>
      <point x="325" y="686" type="curve"/>
      <point x="197" y="686"/>
      <point x="325" y="686"/>
    </contour>
  </outline>
</glyph>
<glyph name="Agrave" format="1">
  <advance width="642"/>
  <unicode hex="00C0"/>
  <outline>
    <contour>
      <point x="462" y="294" type="curve"/>
      <point x="370" y="294"/>
      <point x="278" y="294"/>
      <point x="186" y="294" type="curve"/>
      <point x="137" y="199"/>
      <point x="186" y="294"/>
      <point x="137" y="199" type="curve"/>
      <point x="258" y="199"/>
      <point x="379" y="199"/>
      <point x="500" y="199" type="curve"/>
      <point x="462" y="294"/>
      <point x="500" y="199"/>
    </contour>
    <contour>
      <point x="630" y="0" type="curve"/>
      <point x="549" y="241"/>
      <point x="464" y="481"/>
      <point x="383" y="722" type="curve"/>
      <point x="276" y="722"/>
      <point x="383" y="722"/>
      <point x="276" y="722" type="curve"/>
      <point x="355" y="482"/>
      <point x="428" y="240"/>
      <point x="507" y="0" type="curve"/>
      <point x="630" y="0"/>
      <point x="507" y="0"/>
    </contour>
    <contour>
      <point x="125" y="0" type="curve"/>
      <point x="213" y="240"/>
      <point x="293" y="482"/>
      <point x="382" y="722" type="curve"/>
      <point x="275" y="722"/>
      <point x="382" y="722"/>
      <point x="275" y="722" type="curve"/>
      <point x="185" y="480"/>
      <point x="87" y="242"/>
      <point x="-3" y="0" type="curve"/>
      <point x="125" y="0"/>
      <point x="-3" y="0"/>
    </contour>
    <contour>
      <point x="387" y="791" type="line"/>
      <point x="287" y="957" type="line"/>
      <point x="139" y="957" type="line"/>
      <point x="273" y="791" type="line"/>
    </contour>
  </outline>
</glyph>
<glyph name="Atilde" format="1">
  <advance width="642"/>
  <unicode hex="00C3"/>
  <outline>
    <contour>
      <point x="462" y="294" type="curve"/>
      <point x="370" y="294"/>
      <point x="278" y="294"/>
      <point x="186" y="294" type="curve"/>
      <point x="137" y="199"/>
      <point x="186" y="294"/>
      <point x="137" y="199" type="curve"/>
      <point x="258" y="199"/>
      <point x="379" y="199"/>
      <point x="500" y="199" type="curve"/>
      <point x="462" y="294"/>
      <point x="500" y="199"/>
    </contour>
    <contour>
      <point x="630" y="0" type="curve"/>
      <point x="549" y="241"/>
      <point x="464" y="481"/>
      <point x="383" y="722" type="curve"/>
      <point x="276" y="722"/>
      <point x="383" y="722"/>
      <point x="276" y="722" type="curve"/>
      <point x="355" y="482"/>
      <point x="428" y="240"/>
      <point x="507" y="0" type="curve"/>
      <point x="630" y="0"/>
      <point x="507" y="0"/>
    </contour>
    <contour>
      <point x="125" y="0" type="curve"/>
      <point x="213" y="240"/>
      <point x="293" y="482"/>
      <point x="382" y="722" type="curve"/>
      <point x="275" y="722"/>
      <point x="382" y="722"/>
      <point x="275" y="722" type="curve"/>
      <point x="185" y="480"/>
      <point x="87" y="242"/>
      <point x="-3" y="0" type="curve"/>
      <point x="125" y="0"/>
      <point x="-3" y="0"/>
    </contour>
    <contour>
      <point x="451" y="964" type="curve"/>
      <point x="436" y="924"/>
      <point x="422" y="901"/>
      <point x="398" y="901" type="curve"/>
      <point x="369" y="901"/>
      <point x="353" y="912"/>
      <point x="332" y="931" type="curve"/>
      <point x="302" y="957"/>
      <point x="283" y="970"/>
      <point x="246" y="970" type="curve"/>
      <point x="174" y="970"/>
      <point x="139" y="909"/>
      <point x="117" y="839" type="curve"/>
      <point x="204" y="792"/>
      <point x="117" y="839"/>
      <point x="204" y="792" type="curve"/>
      <point x="221" y="837"/>
      <point x="237" y="857"/>
      <point x="265" y="857" type="curve"/>
      <point x="291" y="857"/>
      <point x="304" y="846"/>
      <point x="321" y="829" type="curve"/>
      <point x="355" y="801"/>
      <point x="376" y="787"/>
      <point x="418" y="787" type="curve"/>
      <point x="490" y="787"/>
      <point x="518" y="847"/>
      <point x="543" y="919" type="curve"/>
      <point x="451" y="964"/>
      <point x="543" y="918"/>
    </contour>
  </outline>
</glyph>
<glyph name="Adieresis" format="1">
  <advance width="642"/>
  <unicode hex="00C4"/>
  <outline>
    <contour>
      <point x="462" y="294" type="curve"/>
      <point x="370" y="294"/>
      <point x="278" y="294"/>
      <point x="186" y="294" type="curve"/>
      <point x="137" y="199"/>
      <point x="186" y="294"/>
      <point x="137" y="199" type="curve"/>
      <point x="258" y="199"/>
      <point x="379" y="199"/>
      <point x="500" y="199" type="curve"/>
      <point x="462" y="294"/>
      <point x="500" y="199"/>
    </contour>
    <contour>
      <point x="630" y="0" type="curve"/>
      <point x="549" y="241"/>
      <point x="464" y="481"/>
      <point x="383" y="722" type="curve"/>
      <point x="276" y="722"/>
      <point x="383" y="722"/>
      <point x="276" y="722" type="curve"/>
      <point x="355" y="482"/>
      <point x="428" y="240"/>
      <point x="507" y="0" type="curve"/>
      <point x="630" y="0"/>
      <point x="507" y="0"/>
    </contour>
    <contour>
      <point x="125" y="0" type="curve"/>
      <point x="213" y="240"/>
      <point x="293" y="482"/>
      <point x="382" y="722" type="curve"/>
      <point x="275" y="722"/>
      <point x="382" y="722"/>
      <point x="275" y="722" type="curve"/>
      <point x="185" y="480"/>
      <point x="87" y="242"/>
      <point x="-3" y="0" type="curve"/>
      <point x="125" y="0"/>
      <point x="-3" y="0"/>
    </contour>
    <contour>
      <point x="299" y="845" type="curve"/>
      <point x="299" y="885"/>
      <point x="271" y="905"/>
      <point x="234" y="905" type="curve"/>
      <point x="195" y="905"/>
      <point x="170" y="883"/>
      <point x="170" y="845" type="curve"/>
      <point x="298" y="845"/>
      <point x="172" y="845"/>
      <point x="299" y="845" type="curve"/>
      <point x="299" y="805"/>
      <point x="272" y="787"/>
      <point x="233" y="787" type="curve"/>
      <point x="195" y="787"/>
      <point x="170" y="806"/>
      <point x="170" y="845" type="curve"/>
      <point x="298" y="845"/>
      <point x="172" y="845"/>
    </contour>
    <contour>
      <point x="484" y="845" type="curve"/>
      <point x="484" y="885"/>
      <point x="456" y="905"/>
      <point x="419" y="905" type="curve"/>
      <point x="380" y="905"/>
      <point x="355" y="883"/>
      <point x="355" y="845" type="curve"/>
      <point x="482" y="845"/>
      <point x="357" y="845"/>
      <point x="484" y="845" type="curve"/>
      <point x="484" y="805"/>
      <point x="457" y="787"/>
      <point x="418" y="787" type="curve"/>
      <point x="380" y="787"/>
      <point x="355" y="806"/>
      <point x="355" y="845" type="curve"/>
      <point x="482" y="845"/>
      <point x="357" y="845"/>
    </contour>
  </outline>
</glyph>
<glyph name="Aring" format="1">
  <advance width="642"/>
  <unicode hex="00C5"/>
  <outline>
    <contour>
      <point x="462" y="294" type="curve"/>
      <point x="370" y="294"/>
      <point x="278" y="294"/>
      <point x="186" y="294" type="curve"/>
      <point x="137" y="199"/>
      <point x="186" y="294"/>
      <point x="137" y="199" type="curve"/>
      <point x="258" y="199"/>
      <point x="379" y="199"/>
      <point x="500" y="199" type="curve"/>
      <point x="462" y="294"/>
      <point x="500" y="199"/>
    </contour>
    <contour>
      <point x="630" y="0" type="curve"/>
      <point x="549" y="241"/>
      <point x="464" y="481"/>
      <point x="383" y="722" type="curve"/>
      <point x="276" y="722"/>
      <point x="383" y="722"/>
      <point x="276" y="722" type="curve"/>
      <point x="355" y="482"/>
      <point x="428" y="240"/>
      <point x="507" y="0" type="curve"/>
      <point x="630" y="0"/>
      <point x="507" y="0"/>
    </contour>
    <contour>
      <point x="125" y="0" type="curve"/>
      <point x="213" y="240"/>
      <point x="293" y="482"/>
      <point x="382" y="722" type="curve"/>
      <point x="275" y="722"/>
      <point x="382" y="722"/>
      <point x="275" y="722" type="curve"/>
      <point x="185" y="480"/>
      <point x="87" y="242"/>
      <point x="-3" y="0" type="curve"/>
      <point x="125" y="0"/>
      <point x="-3" y="0"/>
    </contour>
    <contour>
      <point x="180" y="929" type="curve"/>
      <point x="180" y="841"/>
      <point x="237" y="789"/>
      <point x="326" y="789" type="curve"/>
      <point x="417" y="789"/>
      <point x="475" y="840"/>
      <point x="475" y="929" type="curve"/>
      <point x="475" y="1018"/>
      <point x="416" y="1070"/>
      <point x="324" y="1070" type="curve"/>
      <point x="236" y="1070"/>
      <point x="180" y="1017"/>
      <point x="180" y="929" type="curve"/>
      <point x="282" y="929"/>
      <point x="174" y="929"/>
      <point x="276" y="929" type="curve"/>
      <point x="276" y="963"/>
      <point x="288" y="989"/>
      <point x="324" y="989" type="curve"/>
      <point x="361" y="989"/>
      <point x="376" y="966"/>
      <point x="376" y="929" type="curve"/>
      <point x="376" y="894"/>
      <point x="362" y="870"/>
      <point x="326" y="870" type="curve"/>
      <point x="291" y="870"/>
      <point x="276" y="895"/>
      <point x="276" y="929" type="curve"/>
      <point x="174" y="929"/>
      <point x="282" y="929"/>
    </contour>
  </outline>
</glyph>
<glyph name="AE" format="1">
  <advance width="874"/>
  <unicode hex="00C6"/>
  <outline>
    <contour>
      <point x="426" y="278" type="curve"/>
      <point x="334" y="278"/>
      <point x="275" y="278"/>
      <point x="183" y="278" type="curve"/>
      <point x="135" y="183"/>
      <point x="183" y="278"/>
      <point x="135" y="183" type="curve"/>
      <point x="256" y="183"/>
      <point x="343" y="183"/>
      <point x="463" y="183" type="curve"/>
      <point x="426" y="278"/>
      <point x="463" y="183"/>
    </contour>
    <contour>
      <point x="117" y="0" type="curve"/>
      <point x="517" y="722" type="line"/>
      <point x="410" y="722"/>
      <point x="517" y="722"/>
      <point x="410" y="722" type="curve"/>
      <point x="-12" y="0" type="line"/>
      <point x="116" y="0"/>
      <point x="-12" y="0"/>
    </contour>
    <contour>
      <point x="473" y="328" type="curve"/>
      <point x="570" y="328"/>
      <point x="668" y="328"/>
      <point x="765" y="328" type="curve"/>
      <point x="765" y="418"/>
      <point x="765" y="328"/>
      <point x="765" y="418" type="curve"/>
      <point x="668" y="418"/>
      <point x="570" y="418"/>
      <point x="473" y="418" type="curve"/>
      <point x="473" y="328"/>
      <point x="473" y="418"/>
    </contour>
    <contour>
      <point x="459" y="632" type="curve"/>
      <point x="580" y="632"/>
      <point x="700" y="632"/>
      <point x="821" y="632" type="curve"/>
      <point x="821" y="722"/>
      <point x="821" y="632"/>
      <point x="821" y="722" type="curve"/>
      <point x="700" y="722"/>
      <point x="580" y="722"/>
      <point x="459" y="722" type="curve"/>
      <point x="459" y="632"/>
      <point x="459" y="722"/>
    </contour>
    <contour>
      <point x="528" y="0" type="curve"/>
      <point x="528" y="722" type="line"/>
      <point x="410" y="722"/>
      <point x="528" y="722"/>
      <point x="410" y="722" type="curve"/>
      <point x="410" y="481"/>
      <point x="410" y="241"/>
      <point x="410" y="0" type="curve"/>
      <point x="528" y="0"/>
      <point x="410" y="0"/>
    </contour>
    <contour>
      <point x="459" y="0" type="curve"/>
      <point x="590" y="0"/>
      <point x="720" y="0"/>
      <point x="851" y="0" type="curve"/>
      <point x="851" y="90"/>
      <point x="851" y="0"/>
      <point x="851" y="90" type="curve"/>
      <point x="720" y="90"/>
      <point x="590" y="90"/>
      <point x="459" y="90" type="curve"/>
      <point x="459" y="0"/>
      <point x="459" y="90"/>
    </contour>
  </outline>
</glyph>
<glyph name="Ccedilla" format="1">
  <advance width="630"/>
  <unicode hex="00C7"/>
  <outline>
    <contour>
      <point x="606" y="654" type="curve"/>
      <point x="540" y="696"/>
      <point x="464" y="727"/>
      <point x="377" y="727" type="curve"/>
      <point x="158" y="727"/>
      <point x="45" y="578"/>
      <point x="45" y="345" type="curve"/>
      <point x="45" y="131"/>
      <point x="153" y="-5"/>
      <point x="358" y="-5" type="curve"/>
      <point x="471" y="-5"/>
      <point x="544" y="28"/>
      <point x="617" y="96" type="curve"/>
      <point x="555" y="166"/>
      <point x="617" y="96"/>
      <point x="555" y="166" type="curve"/>
      <point x="493" y="117"/>
      <point x="442" y="90"/>
      <point x="364" y="90" type="curve"/>
      <point x="221" y="90"/>
      <point x="162" y="196"/>
      <point x="162" y="349" type="curve"/>
      <point x="162" y="515"/>
      <point x="223" y="633"/>
      <point x="373" y="633" type="curve"/>
      <point x="437" y="633"/>
      <point x="494" y="614"/>
      <point x="548" y="581" type="curve"/>
      <point x="606" y="654"/>
      <point x="548" y="581"/>
    </contour>
    <contour>
      <point x="310" y="66" type="curve"/>
      <point x="298" y="43"/>
      <point x="256" y="-38"/>
      <point x="244" y="-61" type="curve"/>
      <point x="324" y="-133"/>
      <point x="244" y="-61"/>
      <point x="324" y="-133" type="curve"/>
      <point x="338" y="-106"/>
      <point x="386" y="-23"/>
      <point x="400" y="3" type="curve"/>
      <point x="310" y="66"/>
      <point x="400" y="3"/>
    </contour>
    <contour>
      <point x="324" y="-133" type="curve"/>
      <point x="331" y="-128"/>
      <point x="336" y="-124"/>
      <point x="344" y="-124" type="curve"/>
      <point x="357" y="-124"/>
      <point x="365" y="-132"/>
      <point x="365" y="-147" type="curve"/>
      <point x="365" y="-165"/>
      <point x="350" y="-173"/>
      <point x="330" y="-173" type="curve"/>
      <point x="309" y="-173"/>
      <point x="292" y="-168"/>
      <point x="270" y="-156" type="curve"/>
      <point x="229" y="-223"/>
      <point x="270" y="-156"/>
      <point x="229" y="-223" type="curve"/>
      <point x="260" y="-241"/>
      <point x="288" y="-249"/>
      <point x="325" y="-249" type="curve"/>
      <point x="397" y="-249"/>
      <point x="448" y="-216"/>
      <point x="448" y="-145" type="curve"/>
      <point x="448" y="-78"/>
      <point x="405" y="-39"/>
      <point x="338" y="-39" type="curve"/>
      <point x="302" y="-39"/>
      <point x="276" y="-45"/>
      <point x="244" y="-61" type="curve"/>
      <point x="324" y="-133"/>
      <point x="244" y="-61"/>
    </contour>
  </outline>
</glyph>
<glyph name="Egrave" format="1">
  <advance width="554"/>
  <unicode hex="00C8"/>
  <outline>
    <contour>
      <point x="152" y="328" type="curve"/>
      <point x="249" y="328"/>
      <point x="347" y="328"/>
      <point x="444" y="328" type="curve"/>
      <point x="444" y="418"/>
      <point x="444" y="328"/>
      <point x="444" y="418" type="curve"/>
      <point x="347" y="418"/>
      <point x="249" y="418"/>
      <point x="152" y="418" type="curve"/>
      <point x="152" y="328"/>
      <point x="152" y="418"/>
    </contour>
    <contour>
      <point x="138" y="632" type="curve"/>
      <point x="259" y="632"/>
      <point x="379" y="632"/>
      <point x="500" y="632" type="curve"/>
      <point x="500" y="722"/>
      <point x="500" y="632"/>
      <point x="500" y="722" type="curve"/>
      <point x="379" y="722"/>
      <point x="259" y="722"/>
      <point x="138" y="722" type="curve"/>
      <point x="138" y="632"/>
      <point x="138" y="722"/>
    </contour>
    <contour>
      <point x="207" y="0" type="curve"/>
      <point x="207" y="722" type="line"/>
      <point x="89" y="722"/>
      <point x="207" y="722"/>
      <point x="89" y="722" type="curve"/>
      <point x="89" y="481"/>
      <point x="89" y="241"/>
      <point x="89" y="0" type="curve"/>
      <point x="207" y="0"/>
      <point x="89" y="0"/>
    </contour>
    <contour>
      <point x="138" y="0" type="curve"/>
      <point x="269" y="0"/>
      <point x="399" y="0"/>
      <point x="530" y="0" type="curve"/>
      <point x="530" y="90"/>
      <point x="530" y="0"/>
      <point x="530" y="90" type="curve"/>
      <point x="399" y="90"/>
      <point x="269" y="90"/>
      <point x="138" y="90" type="curve"/>
      <point x="138" y="0"/>
      <point x="138" y="90"/>
    </contour>
    <contour>
      <point x="335" y="791" type="line"/>
      <point x="235" y="957" type="line"/>
      <point x="88" y="957" type="line"/>
      <point x="221" y="791" type="line"/>
    </contour>
  </outline>
</glyph>
<glyph name="Eacute" format="1">
  <advance width="544"/>
  <unicode hex="00C9"/>
  <outline>
    <contour>
      <point x="143" y="328" type="curve"/>
      <point x="239" y="328"/>
      <point x="337" y="328"/>
      <point x="435" y="328" type="curve"/>
      <point x="435" y="418"/>
      <point x="435" y="328"/>
      <point x="435" y="418" type="curve"/>
      <point x="337" y="418"/>
      <point x="239" y="418"/>
      <point x="143" y="418" type="curve"/>
      <point x="143" y="328"/>
      <point x="143" y="418"/>
    </contour>
    <contour>
      <point x="129" y="632" type="curve"/>
      <point x="250" y="632"/>
      <point x="370" y="632"/>
      <point x="490" y="632" type="curve"/>
      <point x="490" y="722"/>
      <point x="490" y="632"/>
      <point x="490" y="722" type="curve"/>
      <point x="370" y="722"/>
      <point x="250" y="722"/>
      <point x="129" y="722" type="curve"/>
      <point x="129" y="632"/>
      <point x="129" y="722"/>
    </contour>
    <contour>
      <point x="197" y="0" type="curve"/>
      <point x="197" y="722" type="line"/>
      <point x="80" y="722"/>
      <point x="197" y="722"/>
      <point x="80" y="722" type="curve"/>
      <point x="80" y="481"/>
      <point x="80" y="241"/>
      <point x="80" y="0" type="curve"/>
      <point x="197" y="0"/>
      <point x="80" y="0"/>
    </contour>
    <contour>
      <point x="129" y="0" type="curve"/>
      <point x="259" y="0"/>
      <point x="390" y="0"/>
      <point x="520" y="0" type="curve"/>
      <point x="520" y="90"/>
      <point x="520" y="0"/>
      <point x="520" y="90" type="curve"/>
      <point x="390" y="90"/>
      <point x="259" y="90"/>
      <point x="129" y="90" type="curve"/>
      <point x="129" y="0"/>
      <point x="129" y="90"/>
    </contour>
    <contour>
      <point x="316" y="790" type="line"/>
      <point x="450" y="956" type="line"/>
      <point x="303" y="956" type="line"/>
      <point x="203" y="790" type="line"/>
    </contour>
  </outline>
</glyph>
<glyph name="Ecircumflex" format="1">
  <advance width="520"/>
  <unicode hex="00CA"/>
  <outline>
    <contour>
      <point x="129" y="328" type="curve"/>
      <point x="226" y="328"/>
      <point x="324" y="328"/>
      <point x="421" y="328" type="curve"/>
      <point x="421" y="418"/>
      <point x="421" y="328"/>
      <point x="421" y="418" type="curve"/>
      <point x="324" y="418"/>
      <point x="226" y="418"/>
      <point x="129" y="418" type="curve"/>
      <point x="129" y="328"/>
      <point x="129" y="418"/>
    </contour>
    <contour>
      <point x="116" y="632" type="curve"/>
      <point x="236" y="632"/>
      <point x="356" y="632"/>
      <point x="477" y="632" type="curve"/>
      <point x="477" y="722"/>
      <point x="477" y="632"/>
      <point x="477" y="722" type="curve"/>
      <point x="356" y="722"/>
      <point x="236" y="722"/>
      <point x="116" y="722" type="curve"/>
      <point x="116" y="632"/>
      <point x="116" y="722"/>
    </contour>
    <contour>
      <point x="184" y="0" type="curve"/>
      <point x="184" y="722" type="line"/>
      <point x="66" y="722"/>
      <point x="184" y="722"/>
      <point x="66" y="722" type="curve"/>
      <point x="66" y="481"/>
      <point x="66" y="241"/>
      <point x="66" y="0" type="curve"/>
      <point x="184" y="0"/>
      <point x="66" y="0"/>
    </contour>
    <contour>
      <point x="116" y="0" type="curve"/>
      <point x="246" y="0"/>
      <point x="377" y="0"/>
      <point x="507" y="0" type="curve"/>
      <point x="507" y="90"/>
      <point x="507" y="0"/>
      <point x="507" y="90" type="curve"/>
      <point x="377" y="90"/>
      <point x="246" y="90"/>
      <point x="116" y="90" type="curve"/>
      <point x="116" y="0"/>
      <point x="116" y="90"/>
    </contour>
    <contour>
      <point x="170" y="791" type="line"/>
      <point x="304" y="957" type="line"/>
      <point x="157" y="957" type="line"/>
      <point x="57" y="791" type="line"/>
    </contour>
    <contour>
      <point x="447" y="791" type="line"/>
      <point x="347" y="957" type="line"/>
      <point x="199" y="957" type="line"/>
      <point x="333" y="791" type="line"/>
    </contour>
  </outline>
</glyph>
<glyph name="Edieresis" format="1">
  <advance width="542"/>
  <unicode hex="00CB"/>
  <outline>
    <contour>
      <point x="141" y="328" type="curve"/>
      <point x="238" y="328"/>
      <point x="335" y="328"/>
      <point x="433" y="328" type="curve"/>
      <point x="433" y="418"/>
      <point x="433" y="328"/>
      <point x="433" y="418" type="curve"/>
      <point x="335" y="418"/>
      <point x="238" y="418"/>
      <point x="141" y="418" type="curve"/>
      <point x="141" y="328"/>
      <point x="141" y="418"/>
    </contour>
    <contour>
      <point x="127" y="632" type="curve"/>
      <point x="248" y="632"/>
      <point x="368" y="632"/>
      <point x="489" y="632" type="curve"/>
      <point x="489" y="722"/>
      <point x="489" y="632"/>
      <point x="489" y="722" type="curve"/>
      <point x="368" y="722"/>
      <point x="248" y="722"/>
      <point x="127" y="722" type="curve"/>
      <point x="127" y="632"/>
      <point x="127" y="722"/>
    </contour>
    <contour>
      <point x="195" y="0" type="curve"/>
      <point x="195" y="722" type="line"/>
      <point x="78" y="722"/>
      <point x="195" y="722"/>
      <point x="78" y="722" type="curve"/>
      <point x="78" y="481"/>
      <point x="78" y="241"/>
      <point x="78" y="0" type="curve"/>
      <point x="195" y="0"/>
      <point x="78" y="0"/>
    </contour>
    <contour>
      <point x="127" y="0" type="curve"/>
      <point x="258" y="0"/>
      <point x="388" y="0"/>
      <point x="519" y="0" type="curve"/>
      <point x="519" y="90"/>
      <point x="519" y="0"/>
      <point x="519" y="90" type="curve"/>
      <point x="388" y="90"/>
      <point x="258" y="90"/>
      <point x="127" y="90" type="curve"/>
      <point x="127" y="0"/>
      <point x="127" y="90"/>
    </contour>
    <contour>
      <point x="236" y="845" type="curve"/>
      <point x="236" y="885"/>
      <point x="208" y="905"/>
      <point x="170" y="905" type="curve"/>
      <point x="132" y="905"/>
      <point x="107" y="883"/>
      <point x="107" y="845" type="curve"/>
      <point x="234" y="845"/>
      <point x="109" y="845"/>
      <point x="236" y="845" type="curve"/>
      <point x="236" y="805"/>
      <point x="209" y="787"/>
      <point x="170" y="787" type="curve"/>
      <point x="132" y="787"/>
      <point x="107" y="806"/>
      <point x="107" y="845" type="curve"/>
      <point x="234" y="845"/>
      <point x="109" y="845"/>
    </contour>
    <contour>
      <point x="421" y="845" type="curve"/>
      <point x="421" y="885"/>
      <point x="393" y="905"/>
      <point x="355" y="905" type="curve"/>
      <point x="317" y="905"/>
      <point x="292" y="883"/>
      <point x="292" y="845" type="curve"/>
      <point x="419" y="845"/>
      <point x="294" y="845"/>
      <point x="421" y="845" type="curve"/>
      <point x="421" y="805"/>
      <point x="394" y="787"/>
      <point x="355" y="787" type="curve"/>
      <point x="317" y="787"/>
      <point x="292" y="806"/>
      <point x="292" y="845" type="curve"/>
      <point x="419" y="845"/>
      <point x="294" y="845"/>
    </contour>
  </outline>
</glyph>
<glyph name="Igrave" format="1">
  <advance width="291"/>
  <unicode hex="00CC"/>
  <outline>
    <contour>
      <point x="208" y="0" type="curve"/>
      <point x="208" y="241"/>
      <point x="208" y="481"/>
      <point x="208" y="722" type="curve"/>
      <point x="90" y="722"/>
      <point x="208" y="722"/>
      <point x="90" y="722" type="curve"/>
      <point x="90" y="481"/>
      <point x="90" y="241"/>
      <point x="90" y="0" type="curve"/>
      <point x="208" y="0"/>
      <point x="90" y="0"/>
    </contour>
    <contour>
      <point x="211" y="791" type="line"/>
      <point x="110" y="957" type="line"/>
      <point x="-37" y="957" type="line"/>
      <point x="97" y="791" type="line"/>
    </contour>
  </outline>
</glyph>
<glyph name="Iacute" format="1">
  <advance width="288"/>
  <unicode hex="00CD"/>
  <outline>
    <contour>
      <point x="200" y="0" type="curve"/>
      <point x="200" y="241"/>
      <point x="200" y="481"/>
      <point x="200" y="722" type="curve"/>
      <point x="82" y="722"/>
      <point x="200" y="722"/>
      <point x="82" y="722" type="curve"/>
      <point x="82" y="481"/>
      <point x="82" y="241"/>
      <point x="82" y="0" type="curve"/>
      <point x="200" y="0"/>
      <point x="82" y="0"/>
    </contour>
    <contour>
      <point x="194" y="790" type="line"/>
      <point x="328" y="956" type="line"/>
      <point x="180" y="956" type="line"/>
      <point x="81" y="790" type="line"/>
    </contour>
  </outline>
</glyph>
<glyph name="Icircumflex" format="1">
  <advance width="315"/>
  <unicode hex="00CE"/>
  <outline>
    <contour>
      <point x="219" y="0" type="curve"/>
      <point x="219" y="241"/>
      <point x="219" y="481"/>
      <point x="219" y="722" type="curve"/>
      <point x="101" y="722"/>
      <point x="219" y="722"/>
      <point x="101" y="722" type="curve"/>
      <point x="101" y="481"/>
      <point x="101" y="241"/>
      <point x="101" y="0" type="curve"/>
      <point x="219" y="0"/>
      <point x="101" y="0"/>
    </contour>
    <contour>
      <point x="80" y="791" type="line"/>
      <point x="214" y="957" type="line"/>
      <point x="66" y="957" type="line"/>
      <point x="-33" y="791" type="line"/>
    </contour>
    <contour>
      <point x="357" y="791" type="line"/>
      <point x="256" y="957" type="line"/>
      <point x="109" y="957" type="line"/>
      <point x="243" y="791" type="line"/>
    </contour>
  </outline>
</glyph>
<glyph name="Idieresis" format="1">
  <advance width="282"/>
  <unicode hex="00CF"/>
  <outline>
    <contour>
      <point x="202" y="0" type="curve"/>
      <point x="202" y="241"/>
      <point x="202" y="481"/>
      <point x="202" y="722" type="curve"/>
      <point x="84" y="722"/>
      <point x="202" y="722"/>
      <point x="84" y="722" type="curve"/>
      <point x="84" y="481"/>
      <point x="84" y="241"/>
      <point x="84" y="0" type="curve"/>
      <point x="202" y="0"/>
      <point x="84" y="0"/>
    </contour>
    <contour>
      <point x="117" y="845" type="curve"/>
      <point x="117" y="885"/>
      <point x="90" y="905"/>
      <point x="52" y="905" type="curve"/>
      <point x="14" y="905"/>
      <point x="-12" y="883"/>
      <point x="-12" y="845" type="curve"/>
      <point x="116" y="845"/>
      <point x="-10" y="845"/>
      <point x="117" y="845" type="curve"/>
      <point x="117" y="805"/>
      <point x="90" y="787"/>
      <point x="52" y="787" type="curve"/>
      <point x="13" y="787"/>
      <point x="-12" y="806"/>
      <point x="-12" y="845" type="curve"/>
      <point x="116" y="845"/>
      <point x="-10" y="845"/>
    </contour>
    <contour>
      <point x="302" y="845" type="curve"/>
      <point x="302" y="885"/>
      <point x="274" y="905"/>
      <point x="237" y="905" type="curve"/>
      <point x="199" y="905"/>
      <point x="173" y="883"/>
      <point x="173" y="845" type="curve"/>
      <point x="301" y="845"/>
      <point x="175" y="845"/>
      <point x="302" y="845" type="curve"/>
      <point x="302" y="805"/>
      <point x="275" y="787"/>
      <point x="237" y="787" type="curve"/>
      <point x="198" y="787"/>
      <point x="173" y="806"/>
      <point x="173" y="845" type="curve"/>
      <point x="301" y="845"/>
      <point x="175" y="845"/>
    </contour>
  </outline>
</glyph>
<glyph name="Ntilde" format="1">
  <advance width="762"/>
  <unicode hex="00D1"/>
  <outline>
    <contour>
      <point x="683" y="0" type="curve"/>
      <point x="524" y="241"/>
      <point x="366" y="481"/>
      <point x="209" y="722" type="curve"/>
      <point x="80" y="722"/>
      <point x="208" y="722"/>
      <point x="80" y="722" type="curve"/>
      <point x="237" y="481"/>
      <point x="395" y="241"/>
      <point x="554" y="0" type="curve"/>
      <point x="682" y="0"/>
      <point x="554" y="0"/>
    </contour>
    <contour>
      <point x="566" y="722" type="curve"/>
      <point x="566" y="481"/>
      <point x="566" y="241"/>
      <point x="566" y="0" type="curve"/>
      <point x="683" y="0"/>
      <point x="566" y="0"/>
      <point x="683" y="0" type="curve"/>
      <point x="683" y="241"/>
      <point x="683" y="481"/>
      <point x="683" y="722" type="curve"/>
      <point x="566" y="722"/>
      <point x="683" y="722"/>
    </contour>
    <contour>
      <point x="197" y="0" type="curve"/>
      <point x="197" y="241"/>
      <point x="197" y="481"/>
      <point x="197" y="722" type="curve"/>
      <point x="80" y="722"/>
      <point x="197" y="722"/>
      <point x="80" y="722" type="curve"/>
      <point x="80" y="481"/>
      <point x="80" y="241"/>
      <point x="80" y="0" type="curve"/>
      <point x="197" y="0"/>
      <point x="80" y="0"/>
    </contour>
    <contour>
      <point x="507" y="964" type="curve"/>
      <point x="492" y="924"/>
      <point x="478" y="901"/>
      <point x="455" y="901" type="curve"/>
      <point x="425" y="901"/>
      <point x="409" y="912"/>
      <point x="388" y="931" type="curve"/>
      <point x="359" y="957"/>
      <point x="339" y="970"/>
      <point x="302" y="970" type="curve"/>
      <point x="231" y="970"/>
      <point x="195" y="909"/>
      <point x="173" y="839" type="curve"/>
      <point x="260" y="792"/>
      <point x="173" y="839"/>
      <point x="260" y="792" type="curve"/>
      <point x="277" y="837"/>
      <point x="293" y="857"/>
      <point x="321" y="857" type="curve"/>
      <point x="347" y="857"/>
      <point x="360" y="846"/>
      <point x="378" y="829" type="curve"/>
      <point x="411" y="801"/>
      <point x="432" y="787"/>
      <point x="474" y="787" type="curve"/>
      <point x="546" y="787"/>
      <point x="575" y="847"/>
      <point x="600" y="919" type="curve"/>
      <point x="507" y="964"/>
      <point x="600" y="918"/>
    </contour>
  </outline>
</glyph>
<glyph name="Ograve" format="1">
  <advance width="717"/>
  <unicode hex="00D2"/>
  <outline>
    <contour>
      <point x="162" y="360" type="curve" name="FullCurve"/>
      <point x="162" y="513"/>
      <point x="212" y="633"/>
      <point x="355" y="633" type="curve" name="FullCurve"/>
      <point x="496" y="633"/>
      <point x="555" y="517"/>
      <point x="555" y="363" type="curve" name="FullCurve"/>
      <point x="555" y="210"/>
      <point x="504" y="90"/>
      <point x="361" y="90" type="curve" name="FullCurve"/>
      <point x="218" y="90"/>
      <point x="162" y="206"/>
      <point x="162" y="360" type="curve" name="FullCurve"/>
      <point x="45" y="360"/>
      <point x="162" y="360"/>
      <point x="45" y="360" type="curve" name="FullCurve"/>
      <point x="45" y="145"/>
      <point x="151" y="-5"/>
      <point x="356" y="-5" type="curve" name="FullCurve"/>
      <point x="564" y="-5"/>
      <point x="672" y="146"/>
      <point x="672" y="363" type="curve" name="FullCurve"/>
      <point x="672" y="577"/>
      <point x="567" y="727"/>
      <point x="361" y="727" type="curve" name="FullCurve"/>
      <point x="154" y="727"/>
      <point x="45" y="576"/>
      <point x="45" y="360" type="curve" name="FullCurve"/>
      <point x="162" y="360"/>
      <point x="45" y="360"/>
    </contour>
    <contour>
      <point x="420" y="791" type="line"/>
      <point x="320" y="957" type="line"/>
      <point x="173" y="957" type="line"/>
      <point x="306" y="791" type="line"/>
    </contour>
  </outline>
</glyph>
<glyph name="Otilde" format="1">
  <advance width="717"/>
  <unicode hex="00D5"/>
  <outline>
    <contour>
      <point x="162" y="360" type="curve" name="FullCurve"/>
      <point x="162" y="513"/>
      <point x="212" y="633"/>
      <point x="355" y="633" type="curve" name="FullCurve"/>
      <point x="496" y="633"/>
      <point x="555" y="517"/>
      <point x="555" y="363" type="curve" name="FullCurve"/>
      <point x="555" y="210"/>
      <point x="504" y="90"/>
      <point x="361" y="90" type="curve" name="FullCurve"/>
      <point x="218" y="90"/>
      <point x="162" y="206"/>
      <point x="162" y="360" type="curve" name="FullCurve"/>
      <point x="45" y="360"/>
      <point x="162" y="360"/>
      <point x="45" y="360" type="curve" name="FullCurve"/>
      <point x="45" y="145"/>
      <point x="151" y="-5"/>
      <point x="356" y="-5" type="curve" name="FullCurve"/>
      <point x="564" y="-5"/>
      <point x="672" y="146"/>
      <point x="672" y="363" type="curve" name="FullCurve"/>
      <point x="672" y="577"/>
      <point x="567" y="727"/>
      <point x="361" y="727" type="curve" name="FullCurve"/>
      <point x="154" y="727"/>
      <point x="45" y="576"/>
      <point x="45" y="360" type="curve" name="FullCurve"/>
      <point x="162" y="360"/>
      <point x="45" y="360"/>
    </contour>
    <contour>
      <point x="484" y="964" type="curve"/>
      <point x="470" y="924"/>
      <point x="456" y="901"/>
      <point x="432" y="901" type="curve"/>
      <point x="402" y="901"/>
      <point x="387" y="912"/>
      <point x="365" y="931" type="curve"/>
      <point x="336" y="957"/>
      <point x="316" y="970"/>
      <point x="279" y="970" type="curve"/>
      <point x="208" y="970"/>
      <point x="172" y="909"/>
      <point x="150" y="839" type="curve"/>
      <point x="237" y="792"/>
      <point x="150" y="839"/>
      <point x="237" y="792" type="curve"/>
      <point x="255" y="837"/>
      <point x="271" y="857"/>
      <point x="298" y="857" type="curve"/>
      <point x="324" y="857"/>
      <point x="337" y="846"/>
      <point x="355" y="829" type="curve"/>
      <point x="388" y="801"/>
      <point x="410" y="787"/>
      <point x="451" y="787" type="curve"/>
      <point x="523" y="787"/>
      <point x="552" y="847"/>
      <point x="577" y="919" type="curve"/>
      <point x="484" y="964"/>
      <point x="577" y="918"/>
    </contour>
  </outline>
</glyph>
<glyph name="Odieresis" format="1">
  <advance width="717"/>
  <unicode hex="00D6"/>
  <outline>
    <contour>
      <point x="162" y="360" type="curve" name="FullCurve"/>
      <point x="162" y="513"/>
      <point x="212" y="633"/>
      <point x="355" y="633" type="curve" name="FullCurve"/>
      <point x="496" y="633"/>
      <point x="555" y="517"/>
      <point x="555" y="363" type="curve" name="FullCurve"/>
      <point x="555" y="210"/>
      <point x="504" y="90"/>
      <point x="361" y="90" type="curve" name="FullCurve"/>
      <point x="218" y="90"/>
      <point x="162" y="206"/>
      <point x="162" y="360" type="curve" name="FullCurve"/>
      <point x="45" y="360"/>
      <point x="162" y="360"/>
      <point x="45" y="360" type="curve" name="FullCurve"/>
      <point x="45" y="145"/>
      <point x="151" y="-5"/>
      <point x="356" y="-5" type="curve" name="FullCurve"/>
      <point x="564" y="-5"/>
      <point x="672" y="146"/>
      <point x="672" y="363" type="curve" name="FullCurve"/>
      <point x="672" y="577"/>
      <point x="567" y="727"/>
      <point x="361" y="727" type="curve" name="FullCurve"/>
      <point x="154" y="727"/>
      <point x="45" y="576"/>
      <point x="45" y="360" type="curve" name="FullCurve"/>
      <point x="162" y="360"/>
      <point x="45" y="360"/>
    </contour>
    <contour>
      <point x="333" y="845" type="curve"/>
      <point x="333" y="885"/>
      <point x="305" y="905"/>
      <point x="267" y="905" type="curve"/>
      <point x="229" y="905"/>
      <point x="204" y="883"/>
      <point x="204" y="845" type="curve"/>
      <point x="331" y="845"/>
      <point x="205" y="845"/>
      <point x="333" y="845" type="curve"/>
      <point x="333" y="805"/>
      <point x="305" y="787"/>
      <point x="267" y="787" type="curve"/>
      <point x="228" y="787"/>
      <point x="204" y="806"/>
      <point x="204" y="845" type="curve"/>
      <point x="331" y="845"/>
      <point x="205" y="845"/>
    </contour>
    <contour>
      <point x="518" y="845" type="curve"/>
      <point x="518" y="885"/>
      <point x="490" y="905"/>
      <point x="452" y="905" type="curve"/>
      <point x="414" y="905"/>
      <point x="389" y="883"/>
      <point x="389" y="845" type="curve"/>
      <point x="516" y="845"/>
      <point x="390" y="845"/>
      <point x="518" y="845" type="curve"/>
      <point x="518" y="805"/>
      <point x="490" y="787"/>
      <point x="452" y="787" type="curve"/>
      <point x="413" y="787"/>
      <point x="389" y="806"/>
      <point x="389" y="845" type="curve"/>
      <point x="516" y="845"/>
      <point x="390" y="845"/>
    </contour>
  </outline>
</glyph>
